{
classes = (
{
automatic = 1;
code = "A Aacute Abreve Acircumflex Adieresis Agrave Amacron Aogonek Aring Aringacute Atilde AE AEacute B C Cacute Ccaron Ccedilla Ccircumflex Cdotaccent D Eth Dcaron Dcroat E Eacute Ebreve Ecaron Ecircumflex Edieresis Edotaccent Egrave Emacron Eogonek F G Gbreve Gcircumflex Gcommaaccent Gdotaccent H Hbar Hcircumflex I IJ Iacute Ibreve Icircumflex Idieresis Idotaccent Igrave Imacron Iogonek Itilde J Jcircumflex K Kcommaaccent L Lacute Lcaron Lcommaaccent Ldot Lslash M N Nacute Ncaron Ncommaaccent Eng Ntilde O Oacute Obreve Ocircumflex Odieresis Ograve Ohungarumlaut Omacron Oslash Oslashacute Otilde OE P Thorn Q R Racute Rcaron Rcommaaccent S Sacute Scaron Scedilla Scircumflex Scommaaccent T Tbar Tcaron Tcedilla Tcommaaccent U Uacute Ubreve Ucircumflex Udieresis Ugrave Uhungarumlaut Umacron Uogonek Uring Utilde V W Wacute Wcircumflex Wdieresis Wgrave X Y Yacute Ycircumflex Ydieresis Ygrave Z Zacute Zcaron Zdotaccent Delta Omega";
name = Uppercase;
},
{
automatic = 1;
code = "iMatra-deva iMatra-deva.00 iMatra-deva.01 iMatra-deva.02 iMatra-deva.03 iMatra-deva.04 iMatra-deva.05 iMatra-deva.06 iMatra-deva.07 iMatra-deva.08 iMatra-deva.09 iMatra-deva.10 iMatra-deva.11 iMatra-deva.12 iMatra-deva.13 iMatra-deva.14 iMatra-deva.15 iMatra-deva.16 iMatra-deva.17 iMatra-deva.18 iMatra-deva.19 iMatra-deva.20 iMatra-deva.21 iMatra-deva.22 iMatra-deva.23 iMatra-deva.24 iMatra-deva.25 iMatra-deva.26 iMatra-deva.27 iMatra-deva.28 iMatra-deva.29 iMatra-deva.30";
name = DevaIMatras;
},
{
automatic = 1;

glyphs = (
{
glyphname = A;
lastChange = "2015-02-24 03:04:22 +0000";
layers = (
{
anchors = (
{
name = ogonek;
position = "{452, 9}";
},
{
name = top;
position = "{252, 630}";
}
);
layerId = "F9754C76-BF5B-4405-B8AE-C91642E979E1";
name = Regular;
paths = (
{
closed = 1;
nodes = (
"304 630 LINE",
"200 630 LINE",
"-1 0 LINE",
"80 0 LINE",
"123 140 LINE",
"373 140 LINE",
"416 0 LINE",
"503 0 LINE"
);
},
{
closed = 1;
nodes = (
"250 565 LINE",
"250 565 OFFCURVE",
"258 516 OFFCURVE",
"265 495 CURVE SMOOTH",
"350 214 LINE",
"146 214 LINE",
"232 495 LINE SMOOTH",
"238 515 OFFCURVE",
"246 565 OFFCURVE",
"246 565 CURVE"
);
}
);
width = 503;
},
{
anchors = (
{
name = ogonek;
position = "{490, 9}";
},
{
name = top;
position = "{272, 630}";
}
);
layerId = "6F612806-55AD-4202-9302-A343176768ED";
name = Bold;
paths = (
{
closed = 1;
nodes = (
"340 630 LINE",
"203 630 LINE",
"0 0 LINE",
"114 0 LINE",
"152 124 LINE",
"385 124 LINE",
"423 0 LINE",
"543 0 LINE"
);
},
{
closed = 1;
nodes = (
"270 525 LINE",
"270 525 OFFCURVE",
"279 472 OFFCURVE",
"289 440 CURVE SMOOTH",
"353 229 LINE",
"184 229 LINE",
"249 440 LINE SMOOTH",
"258 469 OFFCURVE",
"266 525 OFFCURVE",
"266 525 CURVE"
);
}
);
width = 544;
}
);
unicode = 0041;
},
{
glyphname = Aacute;
lastChange = "2015-02-24 03:04:22 +0000";
layers = (
{
layerId = "F9754C76-BF5B-4405-B8AE-C91642E979E1";
name = Regular;
paths = (
{
closed = 1;
nodes = (
"304 630 LINE",
"200 630 LINE",
"-1 0 LINE",
"80 0 LINE",
"123 140 LINE",
"373 140 LINE",
"416 0 LINE",
"503 0 LINE"
);
},
{
closed = 1;
nodes = (
"250 565 LINE",
"250 565 OFFCURVE",
"258 516 OFFCURVE",
"265 495 CURVE SMOOTH",
"350 214 LINE",
"146 214 LINE",
"232 495 LINE SMOOTH",
"238 515 OFFCURVE",
"246 565 OFFCURVE",
"246 565 CURVE"
);
},
{
closed = 1;
nodes = (
"359 812 LINE",
"276 812 LINE",
"197 691 LINE",
"260 691 LINE",
"360 809 LINE"
);
}
);
width = 503;
},
{
layerId = "6F612806-55AD-4202-9302-A343176768ED";
name = Bold;
paths = (
{
closed = 1;
nodes = (
"340 630 LINE",
"203 630 LINE",
"0 0 LINE",
"114 0 LINE",
"152 124 LINE",
"385 124 LINE",
"423 0 LINE",
"543 0 LINE"
);
},
{
closed = 1;
nodes = (
"270 525 LINE",
"270 525 OFFCURVE",
"279 472 OFFCURVE",
"289 440 CURVE SMOOTH",
"353 229 LINE",
"184 229 LINE",
"249 440 LINE SMOOTH",
"258 469 OFFCURVE",
"266 525 OFFCURVE",
"266 525 CURVE"
);
},
{
closed = 1;
nodes = (
"398 812 LINE",
"288 812 LINE",
"209 691 LINE",
"300 691 LINE",
"399 809 LINE"
);
}
);
width = 544;
}
);
unicode = 00C1;
},
{
glyphname = Abreve;
lastChange = "2015-02-24 03:04:22 +0000";
layers = (
{
layerId = "F9754C76-BF5B-4405-B8AE-C91642E979E1";
name = Regular;
paths = (
{
closed = 1;
nodes = (
"304 630 LINE",
"200 630 LINE",
"-1 0 LINE",
"80 0 LINE",
"123 140 LINE",
"373 140 LINE",
"416 0 LINE",
"503 0 LINE"
);
},
{
closed = 1;
nodes = (
"250 565 LINE",
"250 565 OFFCURVE",
"258 516 OFFCURVE",
"265 495 CURVE SMOOTH",
"350 214 LINE",
"146 214 LINE",
"232 495 LINE SMOOTH",
"238 515 OFFCURVE",
"246 565 OFFCURVE",
"246 565 CURVE"
);
},
{
closed = 1;
nodes = (
"306 812 LINE",
"305 799 OFFCURVE",
"282 781 OFFCURVE",
"251 781 CURVE SMOOTH",
"220 781 OFFCURVE",
"200 799 OFFCURVE",
"197 812 CURVE",
"138 812 LINE",
"138 771 OFFCURVE",
"181 723 OFFCURVE",
"251 723 CURVE SMOOTH",
"321 723 OFFCURVE",
"365 771 OFFCURVE",
"365 812 CURVE"
);
}
);
width = 503;
},
{
layerId = "6F612806-55AD-4202-9302-A343176768ED";
name = Bold;
paths = (
{
closed = 1;
nodes = (
"340 630 LINE",
"203 630 LINE",
"0 0 LINE",
"114 0 LINE",
"152 124 LINE",
"385 124 LINE",
"423 0 LINE",
"543 0 LINE"
);
},
{
closed = 1;
nodes = (
"270 525 LINE",
"270 525 OFFCURVE",
"279 472 OFFCURVE",
"289 440 CURVE SMOOTH",
"353 229 LINE",
"184 229 LINE",
"249 440 LINE SMOOTH",
"258 469 OFFCURVE",
"266 525 OFFCURVE",
"266 525 CURVE"
);
},
{
closed = 1;
nodes = (
"327 812 LINE",
"326 799 OFFCURVE",
"304 781 OFFCURVE",
"271 781 CURVE SMOOTH",
"241 781 OFFCURVE",
"220 799 OFFCURVE",
"218 812 CURVE",
"150 812 LINE",
"150 765 OFFCURVE",
"196 713 OFFCURVE",
"271 713 CURVE SMOOTH",
"347 713 OFFCURVE",
"395 765 OFFCURVE",
"395 812 CURVE"
);
}
);
width = 544;
}
);
unicode = 0102;
},
{
glyphname = Acircumflex;
lastChange = "2015-02-24 03:04:22 +0000";
layers = (
{
layerId = "F9754C76-BF5B-4405-B8AE-C91642E979E1";
name = Regular;
paths = (
{
closed = 1;
nodes = (
"304 630 LINE",
"200 630 LINE",
"-1 0 LINE",
"80 0 LINE",
"123 140 LINE",
"373 140 LINE",
"416 0 LINE",
"503 0 LINE"
);
},
{
closed = 1;
nodes = (
"250 565 LINE",
"250 565 OFFCURVE",
"258 516 OFFCURVE",
"265 495 CURVE SMOOTH",
"350 214 LINE",
"146 214 LINE",
"232 495 LINE SMOOTH",
"238 515 OFFCURVE",
"246 565 OFFCURVE",
"246 565 CURVE"
);
},
{
closed = 1;
nodes = (
"288 811 LINE",
"216 811 LINE",
"137 686 LINE",
"210 686 LINE",
"252 759 LINE",
"292 686 LINE",
"366 686 LINE"
);
}
);
width = 503;
},
{
layerId = "6F612806-55AD-4202-9302-A343176768ED";
name = Bold;
paths = (
{
closed = 1;
nodes = (
"340 630 LINE",
"203 630 LINE",
"0 0 LINE",
"114 0 LINE",
"152 124 LINE",
"385 124 LINE",
"423 0 LINE",
"543 0 LINE"
);
},
{
closed = 1;
nodes = (
"270 525 LINE",
"270 525 OFFCURVE",
"279 472 OFFCURVE",
"289 440 CURVE SMOOTH",
"353 229 LINE",
"184 229 LINE",
"249 440 LINE SMOOTH",
"258 469 OFFCURVE",
"266 525 OFFCURVE",
"266 525 CURVE"
);
},
{
closed = 1;
nodes = (
"318 812 LINE",
"228 812 LINE",
"149 687 LINE",
"231 687 LINE",
"272 751 LINE",
"313 687 LINE",
"396 687 LINE"
);
}
);
width = 544;
}
);
unicode = 00C2;
},
{
glyphname = Adieresis;
lastChange = "2015-02-24 03:04:22 +0000";
layers = (
{
layerId = "F9754C76-BF5B-4405-B8AE-C91642E979E1";
name = Regular;
paths = (
{
closed = 1;
nodes = (
"304 630 LINE",
"200 630 LINE",
"-1 0 LINE",
"80 0 LINE",
"123 140 LINE",
"373 140 LINE",
"416 0 LINE",
"503 0 LINE"
);
},
{
closed = 1;
nodes = (
"250 565 LINE",
"250 565 OFFCURVE",
"258 516 OFFCURVE",
"265 495 CURVE SMOOTH",
"350 214 LINE",
"146 214 LINE",
"232 495 LINE SMOOTH",
"238 515 OFFCURVE",
"246 565 OFFCURVE",
"246 565 CURVE"
);
},
{
closed = 1;
nodes = (
"223 812 LINE",
"142 812 LINE",
"142 725 LINE",
"223 725 LINE"
);
},
{
closed = 1;
nodes = (
"361 812 LINE",
"281 812 LINE",
"281 725 LINE",
"361 725 LINE"
);
}
);
width = 503;
},
{
layerId = "6F612806-55AD-4202-9302-A343176768ED";
name = Bold;
paths = (
{
closed = 1;
nodes = (
"340 630 LINE",
"203 630 LINE",
"0 0 LINE",
"114 0 LINE",
"152 124 LINE",
"385 124 LINE",
"423 0 LINE",
"543 0 LINE"
);
},
{
closed = 1;
nodes = (
"270 525 LINE",
"270 525 OFFCURVE",
"279 472 OFFCURVE",
"289 440 CURVE SMOOTH",
"353 229 LINE",
"184 229 LINE",
"249 440 LINE SMOOTH",
"258 469 OFFCURVE",
"266 525 OFFCURVE",
"266 525 CURVE"
);
},
{
closed = 1;
nodes = (
"238 812 LINE",
"147 812 LINE",
"147 711 LINE",
"238 711 LINE"
);
},
{
closed = 1;
nodes = (
"399 812 LINE",
"306 812 LINE",
"306 711 LINE",
"399 711 LINE"
);
}
);
width = 544;
}
);
unicode = 00C4;
},
{
glyphname = Agrave;
lastChange = "2015-02-24 03:04:22 +0000";
layers = (
{
layerId = "F9754C76-BF5B-4405-B8AE-C91642E979E1";
name = Regular;
paths = (
{
closed = 1;
nodes = (
"304 630 LINE",
"200 630 LINE",
"-1 0 LINE",
"80 0 LINE",
"123 140 LINE",
"373 140 LINE",
"416 0 LINE",
"503 0 LINE"
);
},
{
closed = 1;
nodes = (
"250 565 LINE",
"250 565 OFFCURVE",
"258 516 OFFCURVE",
"265 495 CURVE SMOOTH",
"350 214 LINE",
"146 214 LINE",
"232 495 LINE SMOOTH",
"238 515 OFFCURVE",
"246 565 OFFCURVE",
"246 565 CURVE"
);
},
{
closed = 1;
nodes = (
"227 812 LINE",
"145 812 LINE",
"144 809 LINE",
"242 691 LINE",
"306 691 LINE"
);
}
);
width = 503;
},
{
layerId = "6F612806-55AD-4202-9302-A343176768ED";
name = Bold;
paths = (
{
closed = 1;
nodes = (
"340 630 LINE",
"203 630 LINE",
"0 0 LINE",
"114 0 LINE",
"152 124 LINE",
"385 124 LINE",
"423 0 LINE",
"543 0 LINE"
);
},
{
closed = 1;
nodes = (
"270 525 LINE",
"270 525 OFFCURVE",
"279 472 OFFCURVE",
"289 440 CURVE SMOOTH",
"353 229 LINE",
"184 229 LINE",
"249 440 LINE SMOOTH",
"258 469 OFFCURVE",
"266 525 OFFCURVE",
"266 525 CURVE"
);
},
{
closed = 1;
nodes = (
"257 812 LINE",
"147 812 LINE",
"146 809 LINE",
"244 691 LINE",
"336 691 LINE"
);
}
);
width = 544;
}
);
unicode = 00C0;
},
{
glyphname = Amacron;
lastChange = "2015-02-24 03:04:22 +0000";
layers = (
{
layerId = "F9754C76-BF5B-4405-B8AE-C91642E979E1";
name = Regular;
paths = (
{
closed = 1;
nodes = (
"304 630 LINE",
"200 630 LINE",
"-1 0 LINE",
"80 0 LINE",
"123 140 LINE",
"373 140 LINE",
"416 0 LINE",
"503 0 LINE"
);
},
{
closed = 1;
nodes = (
"250 565 LINE",
"250 565 OFFCURVE",
"258 516 OFFCURVE",
"265 495 CURVE SMOOTH",
"350 214 LINE",
"146 214 LINE",
"232 495 LINE SMOOTH",
"238 515 OFFCURVE",
"246 565 OFFCURVE",
"246 565 CURVE"
);
},
{
closed = 1;
nodes = (
"367 764 LINE",
"136 764 LINE",
"136 698 LINE",
"367 698 LINE"
);
}
);
width = 503;
},
{
layerId = "6F612806-55AD-4202-9302-A343176768ED";
name = Bold;
paths = (
{
closed = 1;
nodes = (
"340 630 LINE",
"203 630 LINE",
"0 0 LINE",
"114 0 LINE",
"152 124 LINE",
"385 124 LINE",
"423 0 LINE",
"543 0 LINE"
);
},
{
closed = 1;
nodes = (
"270 525 LINE",
"270 525 OFFCURVE",
"279 472 OFFCURVE",
"289 440 CURVE SMOOTH",
"353 229 LINE",
"184 229 LINE",
"249 440 LINE SMOOTH",
"258 469 OFFCURVE",
"266 525 OFFCURVE",
"266 525 CURVE"
);
},
{
closed = 1;
nodes = (
"390 778 LINE",
"155 778 LINE",
"155 698 LINE",
"390 698 LINE"
);
}
);
width = 544;
}
);
unicode = 0100;
},
{
glyphname = Aogonek;
lastChange = "2015-02-24 03:04:22 +0000";
layers = (
{
layerId = "F9754C76-BF5B-4405-B8AE-C91642E979E1";
name = Regular;
paths = (
{
closed = 1;
nodes = (
"416 0 LINE",
"503 0 LINE",
"304 630 LINE",
"200 630 LINE",
"-1 0 LINE",
"80 0 LINE",
"123 140 LINE",
"373 140 LINE"
);
},
{
closed = 1;
nodes = (
"250 565 LINE",
"250 565 OFFCURVE",
"258 516 OFFCURVE",
"265 495 CURVE SMOOTH",
"350 214 LINE",
"146 214 LINE",
"232 495 LINE SMOOTH",
"238 515 OFFCURVE",
"246 565 OFFCURVE",
"246 565 CURVE"
);
},
{
closed = 1;
nodes = (
"446 0 LINE",
"428 -22 OFFCURVE",
"410 -43 OFFCURVE",
"410 -84 CURVE SMOOTH",
"410 -148 OFFCURVE",
"457 -167 OFFCURVE",
"496 -167 CURVE SMOOTH",
"515 -167 OFFCURVE",
"534 -162 OFFCURVE",
"552 -155 CURVE",
"552 -107 LINE",
"524 -107 LINE SMOOTH",
"493 -107 OFFCURVE",
"482 -83 OFFCURVE",
"482 -57 CURVE SMOOTH",
"482 -31 OFFCURVE",
"494 -14 OFFCURVE",
"503 0 CURVE"
);
}
);
width = 503;
},
{
layerId = "6F612806-55AD-4202-9302-A343176768ED";
name = Bold;
paths = (
{
closed = 1;
nodes = (
"423 0 LINE",
"543 0 LINE",
"340 630 LINE",
"203 630 LINE",
"0 0 LINE",
"114 0 LINE",
"152 124 LINE",
"385 124 LINE"
);
},
{
closed = 1;
nodes = (
"270 525 LINE",
"270 525 OFFCURVE",
"279 472 OFFCURVE",
"289 440 CURVE SMOOTH",
"353 229 LINE",
"184 229 LINE",
"249 440 LINE SMOOTH",
"258 469 OFFCURVE",
"266 525 OFFCURVE",
"266 525 CURVE"
);
},
{
closed = 1;
nodes = (
"467 0 LINE",
"447 -25 OFFCURVE",
"425 -46 OFFCURVE",
"425 -92 CURVE SMOOTH",
"425 -155 OFFCURVE",
"474 -175 OFFCURVE",
"517 -175 CURVE SMOOTH",
"537 -175 OFFCURVE",
"556 -171 OFFCURVE",
"577 -162 CURVE",
"577 -111 LINE",
"557 -111 LINE SMOOTH",
"527 -111 OFFCURVE",
"516 -88 OFFCURVE",
"516 -64 CURVE SMOOTH",
"516 -35 OFFCURVE",
"532 -10 OFFCURVE",
"543 0 CURVE"
);
}
);
width = 544;
}
);
unicode = 0104;
},
{
glyphname = Aring;
lastChange = "2015-02-24 03:04:22 +0000";
layers = (
{
layerId = "F9754C76-BF5B-4405-B8AE-C91642E979E1";
name = Regular;
paths = (
{
closed = 1;
nodes = (
"304 630 LINE",
"200 630 LINE",
"-1 0 LINE",
"80 0 LINE",
"123 140 LINE",
"373 140 LINE",
"416 0 LINE",
"503 0 LINE"
);
},
{
closed = 1;
nodes = (
"250 565 LINE",
"250 565 OFFCURVE",
"258 516 OFFCURVE",
"265 495 CURVE SMOOTH",
"350 214 LINE",
"146 214 LINE",
"232 495 LINE SMOOTH",
"238 515 OFFCURVE",
"246 565 OFFCURVE",
"246 565 CURVE"
);
},
{
closed = 1;
nodes = (
"202 841 OFFCURVE",
"162 802 OFFCURVE",
"162 753 CURVE SMOOTH",
"162 703 OFFCURVE",
"203 665 OFFCURVE",
"251 665 CURVE SMOOTH",
"301 665 OFFCURVE",
"339 704 OFFCURVE",
"339 753 CURVE SMOOTH",
"339 801 OFFCURVE",
"302 841 OFFCURVE",
"251 841 CURVE SMOOTH"
);
},
{
closed = 1;
nodes = (
"276 800 OFFCURVE",
"297 779 OFFCURVE",
"297 753 CURVE SMOOTH",
"297 727 OFFCURVE",
"276 706 OFFCURVE",
"251 706 CURVE SMOOTH",
"226 706 OFFCURVE",
"204 727 OFFCURVE",
"204 753 CURVE SMOOTH",
"204 779 OFFCURVE",
"226 800 OFFCURVE",
"251 800 CURVE SMOOTH"
);
}
);
width = 503;
},
{
layerId = "6F612806-55AD-4202-9302-A343176768ED";
name = Bold;
paths = (
{
closed = 1;
nodes = (
"340 630 LINE",
"203 630 LINE",
"0 0 LINE",
"114 0 LINE",
"152 124 LINE",
"385 124 LINE",
"423 0 LINE",
"543 0 LINE"
);
},
{
closed = 1;
nodes = (
"270 525 LINE",
"270 525 OFFCURVE",
"279 472 OFFCURVE",
"289 440 CURVE SMOOTH",
"353 229 LINE",
"184 229 LINE",
"249 440 LINE SMOOTH",
"258 469 OFFCURVE",
"266 525 OFFCURVE",
"266 525 CURVE"
);
},
{
closed = 1;
nodes = (
"224 839 OFFCURVE",
"184 800 OFFCURVE",
"184 751 CURVE SMOOTH",
"184 701 OFFCURVE",
"225 662 OFFCURVE",
"272 662 CURVE SMOOTH",
"321 662 OFFCURVE",
"361 702 OFFCURVE",
"361 751 CURVE SMOOTH",
"361 799 OFFCURVE",
"321 839 OFFCURVE",
"272 839 CURVE SMOOTH"
);
},
{
closed = 1;
nodes = (
"295 794 OFFCURVE",
"314 775 OFFCURVE",
"314 751 CURVE SMOOTH",
"314 727 OFFCURVE",
"295 709 OFFCURVE",
"272 709 CURVE SMOOTH",
"249 709 OFFCURVE",
"230 727 OFFCURVE",
"230 751 CURVE SMOOTH",
"230 775 OFFCURVE",
"249 794 OFFCURVE",
"272 794 CURVE SMOOTH"
);
}
);
width = 544;
}
);
unicode = 00C5;
},
{
glyphname = Aringacute;
lastChange = "2015-02-24 03:04:22 +0000";
layers = (
{
layerId = "F9754C76-BF5B-4405-B8AE-C91642E979E1";
name = Regular;
paths = (
{
closed = 1;
nodes = (
"203 755 OFFCURVE",
"163 718 OFFCURVE",
"163 670 CURVE SMOOTH",
"163 645 OFFCURVE",
"175 622 OFFCURVE",
"192 607 CURVE",
"-1 0 LINE",
"80 0 LINE",
"123 140 LINE",
"373 140 LINE",
"416 0 LINE",
"503 0 LINE",
"311 606 LINE",
"329 622 OFFCURVE",
"340 645 OFFCURVE",
"340 670 CURVE SMOOTH",
"340 717 OFFCURVE",
"302 755 OFFCURVE",
"252 755 CURVE SMOOTH"
);
},
{
closed = 1;
nodes = (
"250 565 LINE",
"250 565 OFFCURVE",
"258 516 OFFCURVE",
"265 495 CURVE SMOOTH",
"350 214 LINE",
"146 214 LINE",
"232 495 LINE SMOOTH",
"238 515 OFFCURVE",
"246 565 OFFCURVE",
"246 565 CURVE"
);
},
{
closed = 1;
nodes = (
"372 876 LINE",
"371 880 LINE",
"289 880 LINE",
"224 780 LINE",
"287 780 LINE"
);
},
{
closed = 1;
nodes = (
"277 716 OFFCURVE",
"298 695 OFFCURVE",
"298 670 CURVE SMOOTH",
"298 646 OFFCURVE",
"277 625 OFFCURVE",
"252 625 CURVE SMOOTH",
"226 625 OFFCURVE",
"205 646 OFFCURVE",
"205 670 CURVE SMOOTH",
"205 695 OFFCURVE",
"226 716 OFFCURVE",
"252 716 CURVE SMOOTH"
);
}
);
width = 503;
},
{
layerId = "6F612806-55AD-4202-9302-A343176768ED";
name = Bold;
paths = (
{
closed = 1;
nodes = (
"224 755 OFFCURVE",
"184 717 OFFCURVE",
"184 670 CURVE SMOOTH",
"184 651 OFFCURVE",
"189 633 OFFCURVE",
"200 620 CURVE",
"0 0 LINE",
"114 0 LINE",
"152 124 LINE",
"385 124 LINE",
"423 0 LINE",
"543 0 LINE",
"344 619 LINE",
"354 633 OFFCURVE",
"361 651 OFFCURVE",
"361 670 CURVE SMOOTH",
"361 716 OFFCURVE",
"321 755 OFFCURVE",
"272 755 CURVE SMOOTH"
);
},
{
closed = 1;
nodes = (
"270 525 LINE",
"270 525 OFFCURVE",
"279 472 OFFCURVE",
"289 440 CURVE SMOOTH",
"353 229 LINE",
"184 229 LINE",
"249 440 LINE SMOOTH",
"258 469 OFFCURVE",
"266 525 OFFCURVE",
"266 525 CURVE"
);
},
{
closed = 1;
nodes = (
"408 877 LINE",
"408 880 LINE",
"297 880 LINE",
"233 780 LINE",
"323 780 LINE"
);
},
{
closed = 1;
nodes = (
"295 709 OFFCURVE",
"314 693 OFFCURVE",
"314 670 CURVE SMOOTH",
"314 646 OFFCURVE",
"295 628 OFFCURVE",
"272 628 CURVE SMOOTH",
"249 628 OFFCURVE",
"230 646 OFFCURVE",
"230 670 CURVE SMOOTH",
"230 693 OFFCURVE",
"249 709 OFFCURVE",
"272 709 CURVE SMOOTH"
);
}
);
width = 544;
}
);
unicode = 01FA;
},
{
glyphname = Atilde;
lastChange = "2015-02-24 03:04:22 +0000";
layers = (
{
layerId = "F9754C76-BF5B-4405-B8AE-C91642E979E1";
name = Regular;
paths = (
{
closed = 1;
nodes = (
"304 630 LINE",
"200 630 LINE",
"-1 0 LINE",
"80 0 LINE",
"123 140 LINE",
"373 140 LINE",
"416 0 LINE",
"503 0 LINE"
);
},
{
closed = 1;
nodes = (
"250 565 LINE",
"250 565 OFFCURVE",
"258 516 OFFCURVE",
"265 495 CURVE SMOOTH",
"350 214 LINE",
"146 214 LINE",
"232 495 LINE SMOOTH",
"238 515 OFFCURVE",
"246 565 OFFCURVE",
"246 565 CURVE"
);
},
{
closed = 1;
nodes = (
"332 812 LINE",
"329 790 OFFCURVE",
"317 784 OFFCURVE",
"301 784 CURVE SMOOTH",
"265 784 OFFCURVE",
"234 812 OFFCURVE",
"194 812 CURVE SMOOTH",
"139 812 OFFCURVE",
"116 758 OFFCURVE",
"116 717 CURVE",
"171 717 LINE",
"173 737 OFFCURVE",
"185 745 OFFCURVE",
"202 745 CURVE SMOOTH",
"237 745 OFFCURVE",
"267 717 OFFCURVE",
"307 717 CURVE SMOOTH",
"363 717 OFFCURVE",
"385 770 OFFCURVE",
"385 812 CURVE"
);
}
);
width = 503;
},
{
layerId = "6F612806-55AD-4202-9302-A343176768ED";
name = Bold;
paths = (
{
closed = 1;
nodes = (
"340 630 LINE",
"203 630 LINE",
"0 0 LINE",
"114 0 LINE",
"152 124 LINE",
"385 124 LINE",
"423 0 LINE",
"543 0 LINE"
);
},
{
closed = 1;
nodes = (
"270 525 LINE",
"270 525 OFFCURVE",
"279 472 OFFCURVE",
"289 440 CURVE SMOOTH",
"353 229 LINE",
"184 229 LINE",
"249 440 LINE SMOOTH",
"258 469 OFFCURVE",
"266 525 OFFCURVE",
"266 525 CURVE"
);
},
{
closed = 1;
nodes = (
"366 812 LINE",
"362 786 OFFCURVE",
"349 778 OFFCURVE",
"330 778 CURVE SMOOTH",
"289 778 OFFCURVE",
"253 812 OFFCURVE",
"208 812 CURVE SMOOTH",
"144 812 OFFCURVE",
"118 750 OFFCURVE",
"118 700 CURVE",
"178 700 LINE",
"182 725 OFFCURVE",
"194 733 OFFCURVE",
"214 733 CURVE SMOOTH",
"256 733 OFFCURVE",
"291 700 OFFCURVE",
"336 700 CURVE SMOOTH",
"400 700 OFFCURVE",
"426 761 OFFCURVE",
"426 812 CURVE"
);
}
);
width = 544;
}
);
unicode = 00C3;
},
{
glyphname = AE;
lastChange = "2015-02-24 03:04:22 +0000";
layers = (
{
anchors = (
{
name = top;
position = "{376, 630}";
}
);
layerId = "F9754C76-BF5B-4405-B8AE-C91642E979E1";
name = Regular;
paths = (
{
closed = 1;
nodes = (
"714 630 LINE",
"257 630 LINE",
"-1 0 LINE",
"80 0 LINE",
"134 140 LINE",
"385 140 LINE",
"416 0 LINE",
"720 0 LINE",
"720 74 LINE",
"487 74 LINE",
"439 286 LINE",
"674 286 LINE",
"674 360 LINE",
"422 360 LINE",
"376 557 LINE",
"714 557 LINE"
);
},
{
closed = 1;
nodes = (
"297 556 LINE",
"301 537 OFFCURVE",
"303 519 OFFCURVE",
"307 499 CURVE SMOOTH",
"369 214 LINE",
"162 214 LINE",
"274 499 LINE SMOOTH",
"282 519 OFFCURVE",
"287 537 OFFCURVE",
"293 556 CURVE"
);
}
);
width = 754;
},
{
anchors = (
{
name = top;
position = "{376, 630}";
}
);
layerId = "6F612806-55AD-4202-9302-A343176768ED";
name = Bold;
paths = (
{
closed = 1;
nodes = (
"709 630 LINE",
"234 630 LINE",
"-7 0 LINE",
"102 0 LINE",
"148 124 LINE",
"381 124 LINE",
"411 0 LINE",
"714 0 LINE",
"714 105 LINE",
"505 105 LINE",
"465 270 LINE",
"669 270 LINE",
"669 375 LINE",
"440 375 LINE",
"402 526 LINE",
"709 526 LINE"
);
},
{
closed = 1;
nodes = (
"291 502 LINE",
"294 491 OFFCURVE",
"297 479 OFFCURVE",
"300 468 CURVE SMOOTH",
"356 229 LINE",
"186 229 LINE",
"275 468 LINE SMOOTH",
"280 479 OFFCURVE",
"283 491 OFFCURVE",
"288 502 CURVE"
);
}
);
width = 754;
}
);
unicode = 00C6;
},
{
glyphname = AEacute;
lastChange = "2015-02-24 03:04:22 +0000";
layers = (
{
layerId = "F9754C76-BF5B-4405-B8AE-C91642E979E1";
name = Regular;
paths = (
{
closed = 1;
nodes = (
"714 630 LINE",
"257 630 LINE",
"-1 0 LINE",
"80 0 LINE",
"134 140 LINE",
"385 140 LINE",
"416 0 LINE",
"720 0 LINE",
"720 74 LINE",
"487 74 LINE",
"439 286 LINE",
"674 286 LINE",
"674 360 LINE",
"422 360 LINE",
"376 557 LINE",
"714 557 LINE"
);
},
{
closed = 1;
nodes = (
"297 556 LINE",
"301 537 OFFCURVE",
"303 519 OFFCURVE",
"307 499 CURVE SMOOTH",
"369 214 LINE",
"162 214 LINE",
"274 499 LINE SMOOTH",
"282 519 OFFCURVE",
"287 537 OFFCURVE",
"293 556 CURVE"
);
},
{
closed = 1;
nodes = (
"574 812 LINE",
"491 812 LINE",
"412 691 LINE",
"475 691 LINE",
"574 809 LINE"
);
}
);
width = 754;
},
{
layerId = "6F612806-55AD-4202-9302-A343176768ED";
name = Bold;
paths = (
{
closed = 1;
nodes = (
"709 630 LINE",
"234 630 LINE",
"-7 0 LINE",
"102 0 LINE",
"148 124 LINE",
"381 124 LINE",
"411 0 LINE",
"714 0 LINE",
"714 105 LINE",
"505 105 LINE",
"465 270 LINE",
"669 270 LINE",
"669 375 LINE",
"440 375 LINE",
"402 526 LINE",
"709 526 LINE"
);
},
{
closed = 1;
nodes = (
"291 502 LINE",
"295 488 OFFCURVE",
"297 473 OFFCURVE",
"302 460 CURVE SMOOTH",
"356 229 LINE",
"186 229 LINE",
"271 457 LINE SMOOTH",
"277 471 OFFCURVE",
"282 488 OFFCURVE",
"288 502 CURVE"
);
},
{
closed = 1;
nodes = (
"503 812 LINE",
"392 812 LINE",
"313 691 LINE",
"405 691 LINE",
"503 809 LINE"
);
}
);
width = 754;
}
);
unicode = 01FC;
},
{
glyphname = B;
lastChange = "2015-02-24 03:04:22 +0000";
layers = (
{
layerId = "F9754C76-BF5B-4405-B8AE-C91642E979E1";
name = Regular;
paths = (
{
closed = 1;
nodes = (
"59 630 LINE",
"59 0 LINE",
"298 0 LINE SMOOTH",
"395 0 OFFCURVE",
"476 61 OFFCURVE",
"476 167 CURVE SMOOTH",
"476 249 OFFCURVE",
"427 308 OFFCURVE",
"365 328 CURVE",
"365 331 LINE",
"419 350 OFFCURVE",
"462 404 OFFCURVE",
"462 476 CURVE SMOOTH",
"462 569 OFFCURVE",
"392 630 OFFCURVE",
"298 630 CURVE SMOOTH"
);
},
{
closed = 1;
nodes = (
"140 286 LINE",
"282 286 LINE SMOOTH",
"349 286 OFFCURVE",
"392 235 OFFCURVE",
"392 178 CURVE SMOOTH",
"392 110 OFFCURVE",
"347 74 OFFCURVE",
"288 74 CURVE SMOOTH",
"140 74 LINE"
);
},
{
closed = 1;
nodes = (
"140 557 LINE",
"281 557 LINE SMOOTH",
"338 557 OFFCURVE",
"376 525 OFFCURVE",
"376 459 CURVE SMOOTH",
"376 406 OFFCURVE",
"337 360 OFFCURVE",
"275 360 CURVE SMOOTH",
"140 360 LINE"
);
}
);
width = 503;
},
{
layerId = "6F612806-55AD-4202-9302-A343176768ED";
name = Bold;
paths = (
{
closed = 1;
nodes = (
"55 630 LINE",
"55 0 LINE",
"327 0 LINE SMOOTH",
"427 0 OFFCURVE",
"513 63 OFFCURVE",
"513 170 CURVE SMOOTH",
"513 250 OFFCURVE",
"464 308 OFFCURVE",
"401 328 CURVE",
"401 331 LINE",
"456 350 OFFCURVE",
"498 401 OFFCURVE",
"498 474 CURVE SMOOTH",
"498 567 OFFCURVE",
"425 630 OFFCURVE",
"327 630 CURVE SMOOTH"
);
},
{
closed = 1;
nodes = (
"173 271 LINE",
"302 271 LINE SMOOTH",
"363 271 OFFCURVE",
"392 233 OFFCURVE",
"392 184 CURVE SMOOTH",
"392 132 OFFCURVE",
"356 105 OFFCURVE",
"307 105 CURVE SMOOTH",
"173 105 LINE"
);
},
{
closed = 1;
nodes = (
"173 526 LINE",
"300 526 LINE SMOOTH",
"346 526 OFFCURVE",
"378 501 OFFCURVE",
"378 453 CURVE SMOOTH",
"378 411 OFFCURVE",
"350 375 OFFCURVE",
"294 375 CURVE SMOOTH",
"173 375 LINE"
);
}
);
width = 544;
}
);
unicode = 0042;
},
{
glyphname = C;
lastChange = "2015-02-24 03:04:22 +0000";
layers = (
{
anchors = (
{
name = bottom;
position = "{272, 0}";
},
{
name = top;
position = "{272, 630}";
}
);
layerId = "F9754C76-BF5B-4405-B8AE-C91642E979E1";
name = Regular;
paths = (
{
closed = 1;
nodes = (
"123 642 OFFCURVE",
"38 535 OFFCURVE",
"38 315 CURVE SMOOTH",
"38 97 OFFCURVE",
"123 -11 OFFCURVE",
"287 -11 CURVE SMOOTH",
"416 -11 OFFCURVE",
"506 63 OFFCURVE",
"506 226 CURVE",
"426 226 LINE",
"426 116 OFFCURVE",
"371 63 OFFCURVE",
"287 63 CURVE SMOOTH",
"177 63 OFFCURVE",
"123 138 OFFCURVE",
"123 292 CURVE SMOOTH",
"123 338 LINE SMOOTH",
"123 492 OFFCURVE",
"177 567 OFFCURVE",
"287 567 CURVE SMOOTH",
"369 567 OFFCURVE",
"424 513 OFFCURVE",
"424 402 CURVE",
"506 402 LINE",
"506 564 OFFCURVE",
"416 642 OFFCURVE",
"287 642 CURVE SMOOTH"
);
}
);
width = 544;
},
{
anchors = (
{
name = bottom;
position = "{272, 0}";
},
{
name = top;
position = "{272, 630}";
}
);
layerId = "6F612806-55AD-4202-9302-A343176768ED";
name = Bold;
paths = (
{
closed = 1;
nodes = (
"124 642 OFFCURVE",
"31 538 OFFCURVE",
"31 315 CURVE SMOOTH",
"31 93 OFFCURVE",
"124 -11 OFFCURVE",
"282 -11 CURVE SMOOTH",
"416 -11 OFFCURVE",
"514 68 OFFCURVE",
"514 234 CURVE",
"399 234 LINE",
"399 136 OFFCURVE",
"354 90 OFFCURVE",
"286 90 CURVE SMOOTH",
"196 90 OFFCURVE",
"153 166 OFFCURVE",
"153 292 CURVE SMOOTH",
"153 338 LINE SMOOTH",
"153 464 OFFCURVE",
"194 541 OFFCURVE",
"282 541 CURVE SMOOTH",
"348 541 OFFCURVE",
"393 494 OFFCURVE",
"393 396 CURVE",
"514 396 LINE",
"514 567 OFFCURVE",
"414 642 OFFCURVE",
"282 642 CURVE SMOOTH"
);
}
);
width = 544;
}
);
unicode = 0043;
},
{
glyphname = Cacute;
lastChange = "2015-02-24 03:04:22 +0000";
layers = (
{
layerId = "F9754C76-BF5B-4405-B8AE-C91642E979E1";
name = Regular;
paths = (
{
closed = 1;
nodes = (
"123 642 OFFCURVE",
"38 535 OFFCURVE",
"38 315 CURVE SMOOTH",
"38 97 OFFCURVE",
"123 -11 OFFCURVE",
"287 -11 CURVE SMOOTH",
"416 -11 OFFCURVE",
"506 63 OFFCURVE",
"506 226 CURVE",
"426 226 LINE",
"426 116 OFFCURVE",
"371 63 OFFCURVE",
"287 63 CURVE SMOOTH",
"177 63 OFFCURVE",
"123 138 OFFCURVE",
"123 292 CURVE SMOOTH",
"123 338 LINE SMOOTH",
"123 492 OFFCURVE",
"177 567 OFFCURVE",
"287 567 CURVE SMOOTH",
"369 567 OFFCURVE",
"424 513 OFFCURVE",
"424 402 CURVE",
"506 402 LINE",
"506 564 OFFCURVE",
"416 642 OFFCURVE",
"287 642 CURVE SMOOTH"
);
},
{
closed = 1;
nodes = (
"392 812 LINE",
"310 812 LINE",
"231 691 LINE",
"294 691 LINE",
"393 809 LINE"
);
}
);
width = 544;
},
{
layerId = "6F612806-55AD-4202-9302-A343176768ED";
name = Bold;
paths = (
{
closed = 1;
nodes = (
"124 642 OFFCURVE",
"31 538 OFFCURVE",
"31 315 CURVE SMOOTH",
"31 93 OFFCURVE",
"124 -11 OFFCURVE",
"282 -11 CURVE SMOOTH",
"416 -11 OFFCURVE",
"514 68 OFFCURVE",
"514 234 CURVE",
"399 234 LINE",
"399 136 OFFCURVE",
"354 90 OFFCURVE",
"286 90 CURVE SMOOTH",
"196 90 OFFCURVE",
"153 166 OFFCURVE",
"153 292 CURVE SMOOTH",
"153 338 LINE SMOOTH",
"153 464 OFFCURVE",
"194 541 OFFCURVE",
"282 541 CURVE SMOOTH",
"348 541 OFFCURVE",
"393 494 OFFCURVE",
"393 396 CURVE",
"514 396 LINE",
"514 567 OFFCURVE",
"414 642 OFFCURVE",
"282 642 CURVE SMOOTH"
);
},
{
closed = 1;
nodes = (
"408 812 LINE",
"297 812 LINE",
"218 691 LINE",
"310 691 LINE",
"409 809 LINE"
);
}
);
width = 544;
}
);
unicode = 0106;
},
{
glyphname = Ccaron;
lastChange = "2015-02-24 03:04:22 +0000";
layers = (
{
layerId = "F9754C76-BF5B-4405-B8AE-C91642E979E1";
name = Regular;
paths = (
{
closed = 1;
nodes = (
"123 642 OFFCURVE",
"38 535 OFFCURVE",
"38 315 CURVE SMOOTH",
"38 97 OFFCURVE",
"123 -11 OFFCURVE",
"287 -11 CURVE SMOOTH",
"416 -11 OFFCURVE",
"506 63 OFFCURVE",
"506 226 CURVE",
"426 226 LINE",
"426 116 OFFCURVE",
"371 63 OFFCURVE",
"287 63 CURVE SMOOTH",
"177 63 OFFCURVE",
"123 138 OFFCURVE",
"123 292 CURVE SMOOTH",
"123 338 LINE SMOOTH",
"123 492 OFFCURVE",
"177 567 OFFCURVE",
"287 567 CURVE SMOOTH",
"369 567 OFFCURVE",
"424 513 OFFCURVE",
"424 402 CURVE",
"506 402 LINE",
"506 564 OFFCURVE",
"416 642 OFFCURVE",
"287 642 CURVE SMOOTH"
);
},
{
closed = 1;
nodes = (
"307 687 LINE",
"387 812 LINE",
"313 812 LINE",
"272 739 LINE",
"231 812 LINE",
"157 812 LINE",
"235 687 LINE"
);
}
);
width = 544;
},
{
layerId = "6F612806-55AD-4202-9302-A343176768ED";
name = Bold;
paths = (
{
closed = 1;
nodes = (
"124 642 OFFCURVE",
"31 538 OFFCURVE",
"31 315 CURVE SMOOTH",
"31 93 OFFCURVE",
"124 -11 OFFCURVE",
"282 -11 CURVE SMOOTH",
"416 -11 OFFCURVE",
"514 68 OFFCURVE",
"514 234 CURVE",
"399 234 LINE",
"399 136 OFFCURVE",
"354 90 OFFCURVE",
"286 90 CURVE SMOOTH",
"196 90 OFFCURVE",
"153 166 OFFCURVE",
"153 292 CURVE SMOOTH",
"153 338 LINE SMOOTH",
"153 464 OFFCURVE",
"194 541 OFFCURVE",
"282 541 CURVE SMOOTH",
"348 541 OFFCURVE",
"393 494 OFFCURVE",
"393 396 CURVE",
"514 396 LINE",
"514 567 OFFCURVE",
"414 642 OFFCURVE",
"282 642 CURVE SMOOTH"
);
},
{
closed = 1;
nodes = (
"328 687 LINE",
"406 812 LINE",
"323 812 LINE",
"282 749 LINE",
"241 812 LINE",
"158 812 LINE",
"237 687 LINE"
);
}
);
width = 544;
}
);
unicode = 010C;
},
{
glyphname = Ccedilla;
lastChange = "2015-02-24 03:04:22 +0000";
layers = (
{
layerId = "F9754C76-BF5B-4405-B8AE-C91642E979E1";
name = Regular;
paths = (
{
closed = 1;
nodes = (
"123 642 OFFCURVE",
"38 535 OFFCURVE",
"38 315 CURVE SMOOTH",
"38 120 OFFCURVE",
"106 12 OFFCURVE",
"237 -7 CURVE",
"227 -71 LINE",
"258 -71 LINE SMOOTH",
"282 -71 OFFCURVE",
"289 -78 OFFCURVE",
"289 -93 CURVE SMOOTH",
"289 -110 OFFCURVE",
"276 -115 OFFCURVE",
"256 -115 CURVE SMOOTH",
"186 -115 LINE",
"186 -160 LINE",
"208 -164 OFFCURVE",
"237 -167 OFFCURVE",
"263 -167 CURVE SMOOTH",
"301 -167 OFFCURVE",
"359 -155 OFFCURVE",
"359 -93 CURVE SMOOTH",
"359 -51 OFFCURVE",
"323 -35 OFFCURVE",
"284 -33 CURVE",
"287 -11 LINE",
"416 -11 OFFCURVE",
"506 63 OFFCURVE",
"506 226 CURVE",
"426 226 LINE",
"426 116 OFFCURVE",
"371 63 OFFCURVE",
"287 63 CURVE SMOOTH",
"177 63 OFFCURVE",
"123 138 OFFCURVE",
"123 292 CURVE SMOOTH",
"123 338 LINE SMOOTH",
"123 492 OFFCURVE",
"177 567 OFFCURVE",
"287 567 CURVE SMOOTH",
"369 567 OFFCURVE",
"424 513 OFFCURVE",
"424 402 CURVE",
"506 402 LINE",
"506 564 OFFCURVE",
"416 642 OFFCURVE",
"287 642 CURVE SMOOTH"
);
}
);
width = 544;
},
{
layerId = "6F612806-55AD-4202-9302-A343176768ED";
name = Bold;
paths = (
{
closed = 1;
nodes = (
"124 642 OFFCURVE",
"31 538 OFFCURVE",
"31 315 CURVE SMOOTH",
"31 112 OFFCURVE",
"107 8 OFFCURVE",
"241 -8 CURVE",
"234 -71 LINE",
"264 -71 LINE SMOOTH",
"288 -71 OFFCURVE",
"295 -78 OFFCURVE",
"295 -93 CURVE SMOOTH",
"295 -110 OFFCURVE",
"282 -115 OFFCURVE",
"262 -115 CURVE SMOOTH",
"197 -115 LINE",
"197 -160 LINE",
"218 -164 OFFCURVE",
"249 -167 OFFCURVE",
"274 -167 CURVE SMOOTH",
"313 -167 OFFCURVE",
"374 -155 OFFCURVE",
"374 -93 CURVE SMOOTH",
"374 -51 OFFCURVE",
"341 -33 OFFCURVE",
"302 -30 CURVE",
"304 -10 LINE",
"425 -2 OFFCURVE",
"514 77 OFFCURVE",
"514 234 CURVE",
"399 234 LINE",
"399 136 OFFCURVE",
"354 90 OFFCURVE",
"286 90 CURVE SMOOTH",
"196 90 OFFCURVE",
"153 166 OFFCURVE",
"153 292 CURVE SMOOTH",
"153 338 LINE SMOOTH",
"153 464 OFFCURVE",
"194 541 OFFCURVE",
"282 541 CURVE SMOOTH",
"348 541 OFFCURVE",
"393 494 OFFCURVE",
"393 396 CURVE",
"514 396 LINE",
"514 567 OFFCURVE",
"414 642 OFFCURVE",
"282 642 CURVE SMOOTH"
);
}
);
width = 544;
}
);
unicode = 00C7;
},
{
glyphname = Ccircumflex;
lastChange = "2015-02-24 03:04:22 +0000";
layers = (
{
layerId = "F9754C76-BF5B-4405-B8AE-C91642E979E1";
name = Regular;
paths = (
{
closed = 1;
nodes = (
"123 642 OFFCURVE",
"38 535 OFFCURVE",
"38 315 CURVE SMOOTH",
"38 97 OFFCURVE",
"123 -11 OFFCURVE",
"287 -11 CURVE SMOOTH",
"416 -11 OFFCURVE",
"506 63 OFFCURVE",
"506 226 CURVE",
"426 226 LINE",
"426 116 OFFCURVE",
"371 63 OFFCURVE",
"287 63 CURVE SMOOTH",
"177 63 OFFCURVE",
"123 138 OFFCURVE",
"123 292 CURVE SMOOTH",
"123 338 LINE SMOOTH",
"123 492 OFFCURVE",
"177 567 OFFCURVE",
"287 567 CURVE SMOOTH",
"369 567 OFFCURVE",
"424 513 OFFCURVE",
"424 402 CURVE",
"506 402 LINE",
"506 564 OFFCURVE",
"416 642 OFFCURVE",
"287 642 CURVE SMOOTH"
);
},
{
closed = 1;
nodes = (
"387 686 LINE",
"308 811 LINE",
"236 811 LINE",
"157 686 LINE",
"231 686 LINE",
"274 759 LINE",
"313 686 LINE"
);
}
);
width = 544;
},
{
layerId = "6F612806-55AD-4202-9302-A343176768ED";
name = Bold;
paths = (
{
closed = 1;
nodes = (
"124 642 OFFCURVE",
"31 538 OFFCURVE",
"31 315 CURVE SMOOTH",
"31 93 OFFCURVE",
"124 -11 OFFCURVE",
"282 -11 CURVE SMOOTH",
"416 -11 OFFCURVE",
"514 68 OFFCURVE",
"514 234 CURVE",
"399 234 LINE",
"399 136 OFFCURVE",
"354 90 OFFCURVE",
"286 90 CURVE SMOOTH",
"196 90 OFFCURVE",
"153 166 OFFCURVE",
"153 292 CURVE SMOOTH",
"153 338 LINE SMOOTH",
"153 464 OFFCURVE",
"194 541 OFFCURVE",
"282 541 CURVE SMOOTH",
"348 541 OFFCURVE",
"393 494 OFFCURVE",
"393 396 CURVE",
"514 396 LINE",
"514 567 OFFCURVE",
"414 642 OFFCURVE",
"282 642 CURVE SMOOTH"
);
},
{
closed = 1;
nodes = (
"406 687 LINE",
"328 812 LINE",
"237 812 LINE",
"158 687 LINE",
"241 687 LINE",
"282 751 LINE",
"323 687 LINE"
);
}
);
width = 544;
}
);
unicode = 0108;
},
{
glyphname = Cdotaccent;
lastChange = "2015-02-24 03:04:22 +0000";
layers = (
{
layerId = "F9754C76-BF5B-4405-B8AE-C91642E979E1";
name = Regular;
paths = (
{
closed = 1;
nodes = (
"123 642 OFFCURVE",
"38 535 OFFCURVE",
"38 315 CURVE SMOOTH",
"38 97 OFFCURVE",
"123 -11 OFFCURVE",
"287 -11 CURVE SMOOTH",
"416 -11 OFFCURVE",
"506 63 OFFCURVE",
"506 226 CURVE",
"426 226 LINE",
"426 116 OFFCURVE",
"371 63 OFFCURVE",
"287 63 CURVE SMOOTH",
"177 63 OFFCURVE",
"123 138 OFFCURVE",
"123 292 CURVE SMOOTH",
"123 338 LINE SMOOTH",
"123 492 OFFCURVE",
"177 567 OFFCURVE",
"287 567 CURVE SMOOTH",
"369 567 OFFCURVE",
"424 513 OFFCURVE",
"424 402 CURVE",
"506 402 LINE",
"506 564 OFFCURVE",
"416 642 OFFCURVE",
"287 642 CURVE SMOOTH"
);
},
{
closed = 1;
nodes = (
"313 725 LINE",
"313 812 LINE",
"232 812 LINE",
"232 725 LINE"
);
}
);
width = 544;
},
{
layerId = "6F612806-55AD-4202-9302-A343176768ED";
name = Bold;
paths = (
{
closed = 1;
nodes = (
"124 642 OFFCURVE",
"31 538 OFFCURVE",
"31 315 CURVE SMOOTH",
"31 93 OFFCURVE",
"124 -11 OFFCURVE",
"282 -11 CURVE SMOOTH",
"416 -11 OFFCURVE",
"514 68 OFFCURVE",
"514 234 CURVE",
"399 234 LINE",
"399 136 OFFCURVE",
"354 90 OFFCURVE",
"286 90 CURVE SMOOTH",
"196 90 OFFCURVE",
"153 166 OFFCURVE",
"153 292 CURVE SMOOTH",
"153 338 LINE SMOOTH",
"153 464 OFFCURVE",
"194 541 OFFCURVE",
"282 541 CURVE SMOOTH",
"348 541 OFFCURVE",
"393 494 OFFCURVE",
"393 396 CURVE",
"514 396 LINE",
"514 567 OFFCURVE",
"414 642 OFFCURVE",
"282 642 CURVE SMOOTH"
);
},
{
closed = 1;
nodes = (
"331 706 LINE",
"331 812 LINE",
"233 812 LINE",
"233 706 LINE"
);
}
);
width = 544;
}
);
unicode = 010A;
},
{
glyphname = D;
lastChange = "2015-02-24 03:04:22 +0000";
layers = (
{
anchors = (
{
name = center;
position = "{272, 315}";
},
{
name = top;
position = "{272, 630}";
}
);
layerId = "F9754C76-BF5B-4405-B8AE-C91642E979E1";
name = Regular;
paths = (
{
closed = 1;
nodes = (
"64 0 LINE",
"260 0 LINE SMOOTH",
"409 0 OFFCURVE",
"499 108 OFFCURVE",
"499 324 CURVE SMOOTH",
"499 527 OFFCURVE",
"409 630 OFFCURVE",
"260 630 CURVE SMOOTH",
"64 630 LINE"
);
},
{
closed = 1;
nodes = (
"146 557 LINE",
"253 557 LINE SMOOTH",
"353 557 OFFCURVE",
"415 488 OFFCURVE",
"415 347 CURVE SMOOTH",
"415 302 LINE SMOOTH",
"415 148 OFFCURVE",
"353 74 OFFCURVE",
"253 74 CURVE SMOOTH",
"146 74 LINE"
);
}
);
width = 544;
},
{
anchors = (
{
name = center;
position = "{272, 315}";
},
{
name = top;
position = "{272, 630}";
}
);
layerId = "6F612806-55AD-4202-9302-A343176768ED";
name = Bold;
paths = (
{
closed = 1;
nodes = (
"55 0 LINE",
"260 0 LINE SMOOTH",
"417 0 OFFCURVE",
"513 108 OFFCURVE",
"513 324 CURVE SMOOTH",
"513 527 OFFCURVE",
"417 630 OFFCURVE",
"260 630 CURVE SMOOTH",
"55 630 LINE"
);
},
{
closed = 1;
nodes = (
"173 526 LINE",
"250 526 LINE SMOOTH",
"337 526 OFFCURVE",
"392 466 OFFCURVE",
"392 347 CURVE SMOOTH",
"392 302 LINE SMOOTH",
"392 171 OFFCURVE",
"337 105 OFFCURVE",
"250 105 CURVE SMOOTH",
"173 105 LINE"
);
}
);
width = 544;
}
);
unicode = 0044;
},
{
glyphname = Eth;
lastChange = "2015-02-24 03:04:22 +0000";
layers = (
{
layerId = "F9754C76-BF5B-4405-B8AE-C91642E979E1";
name = Regular;
paths = (
{
closed = 1;
nodes = (
"4 356 LINE",
"4 297 LINE",
"64 297 LINE",
"64 0 LINE",
"260 0 LINE SMOOTH",
"409 0 OFFCURVE",
"499 108 OFFCURVE",
"499 324 CURVE SMOOTH",
"499 527 OFFCURVE",
"409 630 OFFCURVE",
"260 630 CURVE SMOOTH",
"64 630 LINE",
"64 356 LINE"
);
},
{
closed = 1;
nodes = (
"146 557 LINE",
"253 557 LINE SMOOTH",
"353 557 OFFCURVE",
"415 488 OFFCURVE",
"415 347 CURVE SMOOTH",
"415 302 LINE SMOOTH",
"415 148 OFFCURVE",
"353 74 OFFCURVE",
"253 74 CURVE SMOOTH",
"146 74 LINE",
"146 297 LINE",
"289 297 LINE",
"289 356 LINE",
"146 356 LINE"
);
}
);
width = 544;
},
{
layerId = "6F612806-55AD-4202-9302-A343176768ED";
name = Bold;
paths = (
{
closed = 1;
nodes = (
"9 365 LINE",
"9 287 LINE",
"55 287 LINE",
"55 0 LINE",
"260 0 LINE SMOOTH",
"417 0 OFFCURVE",
"513 108 OFFCURVE",
"513 324 CURVE SMOOTH",
"513 527 OFFCURVE",
"417 630 OFFCURVE",
"260 630 CURVE SMOOTH",
"55 630 LINE",
"55 365 LINE"
);
},
{
closed = 1;
nodes = (
"173 526 LINE",
"250 526 LINE SMOOTH",
"337 526 OFFCURVE",
"392 466 OFFCURVE",
"392 347 CURVE SMOOTH",
"392 302 LINE SMOOTH",
"392 171 OFFCURVE",
"337 105 OFFCURVE",
"250 105 CURVE SMOOTH",
"173 105 LINE",
"173 287 LINE",
"288 287 LINE",
"288 365 LINE",
"173 365 LINE"
);
}
);
width = 544;
}
);
unicode = 00D0;
},
{
glyphname = Dcaron;
lastChange = "2015-02-24 03:04:22 +0000";
layers = (
{
layerId = "F9754C76-BF5B-4405-B8AE-C91642E979E1";
name = Regular;
paths = (
{
closed = 1;
nodes = (
"307 687 LINE",
"387 812 LINE",
"313 812 LINE",
"272 739 LINE",
"231 812 LINE",
"157 812 LINE",
"235 687 LINE"
);
},
{
closed = 1;
nodes = (
"64 0 LINE",
"260 0 LINE SMOOTH",
"409 0 OFFCURVE",
"499 108 OFFCURVE",
"499 324 CURVE SMOOTH",
"499 527 OFFCURVE",
"409 630 OFFCURVE",
"260 630 CURVE SMOOTH",
"64 630 LINE"
);
},
{
closed = 1;
nodes = (
"146 557 LINE",
"253 557 LINE SMOOTH",
"353 557 OFFCURVE",
"415 488 OFFCURVE",
"415 347 CURVE SMOOTH",
"415 302 LINE SMOOTH",
"415 148 OFFCURVE",
"353 74 OFFCURVE",
"253 74 CURVE SMOOTH",
"146 74 LINE"
);
}
);
width = 544;
},
{
layerId = "6F612806-55AD-4202-9302-A343176768ED";
name = Bold;
paths = (
{
closed = 1;
nodes = (
"279 687 LINE",
"357 812 LINE",
"274 812 LINE",
"234 749 LINE",
"192 812 LINE",
"109 812 LINE",
"188 687 LINE"
);
},
{
closed = 1;
nodes = (
"55 0 LINE",
"260 0 LINE SMOOTH",
"417 0 OFFCURVE",
"513 108 OFFCURVE",
"513 324 CURVE SMOOTH",
"513 527 OFFCURVE",
"417 630 OFFCURVE",
"260 630 CURVE SMOOTH",
"55 630 LINE"
);
},
{
closed = 1;
nodes = (
"173 526 LINE",
"250 526 LINE SMOOTH",
"337 526 OFFCURVE",
"392 466 OFFCURVE",
"392 347 CURVE SMOOTH",
"392 302 LINE SMOOTH",
"392 171 OFFCURVE",
"337 105 OFFCURVE",
"250 105 CURVE SMOOTH",
"173 105 LINE"
);
}
);
width = 544;
}
);
unicode = 010E;
},
{
glyphname = Dcroat;
lastChange = "2015-02-24 03:04:22 +0000";
layers = (
{
layerId = "F9754C76-BF5B-4405-B8AE-C91642E979E1";
name = Regular;
paths = (
{
closed = 1;
nodes = (
"4 356 LINE",
"4 297 LINE",
"64 297 LINE",
"64 0 LINE",
"260 0 LINE SMOOTH",
"409 0 OFFCURVE",
"499 108 OFFCURVE",
"499 324 CURVE SMOOTH",
"499 527 OFFCURVE",
"409 630 OFFCURVE",
"260 630 CURVE SMOOTH",
"64 630 LINE",
"64 356 LINE"
);
},
{
closed = 1;
nodes = (
"146 557 LINE",
"253 557 LINE SMOOTH",
"353 557 OFFCURVE",
"415 488 OFFCURVE",
"415 347 CURVE SMOOTH",
"415 302 LINE SMOOTH",
"415 148 OFFCURVE",
"353 74 OFFCURVE",
"253 74 CURVE SMOOTH",
"146 74 LINE",
"146 297 LINE",
"289 297 LINE",
"289 356 LINE",
"146 356 LINE"
);
}
);
width = 544;
},
{
layerId = "6F612806-55AD-4202-9302-A343176768ED";
name = Bold;
paths = (
{
closed = 1;
nodes = (
"9 365 LINE",
"9 287 LINE",
"55 287 LINE",
"55 0 LINE",
"260 0 LINE SMOOTH",
"417 0 OFFCURVE",
"513 108 OFFCURVE",
"513 324 CURVE SMOOTH",
"513 527 OFFCURVE",
"417 630 OFFCURVE",
"260 630 CURVE SMOOTH",
"55 630 LINE",
"55 365 LINE"
);
},
{
closed = 1;
nodes = (
"173 526 LINE",
"250 526 LINE SMOOTH",
"337 526 OFFCURVE",
"392 466 OFFCURVE",
"392 347 CURVE SMOOTH",
"392 302 LINE SMOOTH",
"392 171 OFFCURVE",
"337 105 OFFCURVE",
"250 105 CURVE SMOOTH",
"173 105 LINE",
"173 287 LINE",
"288 287 LINE",
"288 365 LINE",
"173 365 LINE"
);
}
);
width = 544;
}
);
unicode = 0110;
},
{
glyphname = E;
lastChange = "2015-02-24 03:04:22 +0000";
layers = (
{
anchors = (
{
name = bottom;
position = "{252, 0}";
},
{
name = ogonek;
position = "{452, 9}";
},
{
name = top;
position = "{252, 630}";
}
);
layerId = "F9754C76-BF5B-4405-B8AE-C91642E979E1";
name = Regular;
paths = (
{
closed = 1;
nodes = (
"64 0 LINE",
"459 0 LINE",
"459 74 LINE",
"146 74 LINE",
"146 286 LINE",
"413 286 LINE",
"413 360 LINE",
"146 360 LINE",
"146 557 LINE",
"453 557 LINE",
"453 630 LINE",
"64 630 LINE"
);
}
);
width = 503;
},
{
anchors = (
{
name = bottom;
position = "{252, 0}";
},
{
name = ogonek;
position = "{452, 9}";
},
{
name = top;
position = "{252, 630}";
}
);
layerId = "6F612806-55AD-4202-9302-A343176768ED";
name = Bold;
paths = (
{
closed = 1;
nodes = (
"55 0 LINE",
"463 0 LINE",
"463 105 LINE",
"173 105 LINE",
"173 270 LINE",
"416 270 LINE",
"416 375 LINE",
"173 375 LINE",
"173 526 LINE",
"457 526 LINE",
"457 630 LINE",
"55 630 LINE"
);
}
);
width = 503;
}
);
unicode = 0045;
},
{
glyphname = Eacute;
lastChange = "2015-02-24 03:04:22 +0000";
layers = (
{
layerId = "F9754C76-BF5B-4405-B8AE-C91642E979E1";
name = Regular;
paths = (
{
closed = 1;
nodes = (
"453 630 LINE",
"64 630 LINE",
"64 0 LINE",
"459 0 LINE",
"459 74 LINE",
"146 74 LINE",
"146 286 LINE",
"413 286 LINE",
"413 360 LINE",
"146 360 LINE",
"146 557 LINE",
"453 557 LINE"
);
},
{
closed = 1;
nodes = (
"359 812 LINE",
"276 812 LINE",
"197 691 LINE",
"260 691 LINE",
"360 809 LINE"
);
}
);
width = 503;
},
{
layerId = "6F612806-55AD-4202-9302-A343176768ED";
name = Bold;
paths = (
{
closed = 1;
nodes = (
"457 630 LINE",
"55 630 LINE",
"55 0 LINE",
"463 0 LINE",
"463 105 LINE",
"173 105 LINE",
"173 270 LINE",
"416 270 LINE",
"416 375 LINE",
"173 375 LINE",
"173 526 LINE",
"457 526 LINE"
);
},
{
closed = 1;
nodes = (
"378 812 LINE",
"267 812 LINE",
"188 691 LINE",
"280 691 LINE",
"379 809 LINE"
);
}
);
width = 503;
}
);
unicode = 00C9;
},
{
glyphname = Ebreve;
lastChange = "2015-02-24 03:04:22 +0000";
layers = (
{
layerId = "F9754C76-BF5B-4405-B8AE-C91642E979E1";
name = Regular;
paths = (
{
closed = 1;
nodes = (
"306 812 LINE",
"305 799 OFFCURVE",
"282 781 OFFCURVE",
"251 781 CURVE SMOOTH",
"220 781 OFFCURVE",
"200 799 OFFCURVE",
"197 812 CURVE",
"138 812 LINE",
"138 771 OFFCURVE",
"181 723 OFFCURVE",
"251 723 CURVE SMOOTH",
"321 723 OFFCURVE",
"365 771 OFFCURVE",
"365 812 CURVE"
);
},
{
closed = 1;
nodes = (
"64 0 LINE",
"459 0 LINE",
"459 74 LINE",
"146 74 LINE",
"146 286 LINE",
"413 286 LINE",
"413 360 LINE",
"146 360 LINE",
"146 557 LINE",
"453 557 LINE",
"453 630 LINE",
"64 630 LINE"
);
}
);
width = 503;
},
{
layerId = "6F612806-55AD-4202-9302-A343176768ED";
name = Bold;
paths = (
{
closed = 1;
nodes = (
"306 812 LINE",
"305 799 OFFCURVE",
"282 781 OFFCURVE",
"251 781 CURVE SMOOTH",
"220 781 OFFCURVE",
"200 799 OFFCURVE",
"197 812 CURVE",
"129 812 LINE",
"129 765 OFFCURVE",
"176 713 OFFCURVE",
"251 713 CURVE SMOOTH",
"328 713 OFFCURVE",
"374 765 OFFCURVE",
"374 812 CURVE"
);
},
{
closed = 1;
nodes = (
"55 0 LINE",
"463 0 LINE",
"463 105 LINE",
"173 105 LINE",
"173 270 LINE",
"416 270 LINE",
"416 375 LINE",
"173 375 LINE",
"173 526 LINE",
"457 526 LINE",
"457 630 LINE",
"55 630 LINE"
);
}
);
width = 503;
}
);
unicode = 0114;
},
{
glyphname = Ecaron;
lastChange = "2015-02-24 03:04:22 +0000";
layers = (
{
layerId = "F9754C76-BF5B-4405-B8AE-C91642E979E1";
name = Regular;
paths = (
{
closed = 1;
nodes = (
"287 687 LINE",
"366 812 LINE",
"292 812 LINE",
"251 739 LINE",
"210 812 LINE",
"137 812 LINE",
"215 687 LINE"
);
},
{
closed = 1;
nodes = (
"64 0 LINE",
"459 0 LINE",
"459 74 LINE",
"146 74 LINE",
"146 286 LINE",
"413 286 LINE",
"413 360 LINE",
"146 360 LINE",
"146 557 LINE",
"453 557 LINE",
"453 630 LINE",
"64 630 LINE"
);
}
);
width = 503;
},
{
layerId = "6F612806-55AD-4202-9302-A343176768ED";
name = Bold;
paths = (
{
closed = 1;
nodes = (
"297 687 LINE",
"375 812 LINE",
"292 812 LINE",
"252 749 LINE",
"210 812 LINE",
"128 812 LINE",
"207 687 LINE"
);
},
{
closed = 1;
nodes = (
"55 0 LINE",
"463 0 LINE",
"463 105 LINE",
"173 105 LINE",
"173 270 LINE",
"416 270 LINE",
"416 375 LINE",
"173 375 LINE",
"173 526 LINE",
"457 526 LINE",
"457 630 LINE",
"55 630 LINE"
);
}
);
width = 503;
}
);
unicode = 011A;
},
{
glyphname = Ecircumflex;
lastChange = "2015-02-24 03:04:22 +0000";
layers = (
{
layerId = "F9754C76-BF5B-4405-B8AE-C91642E979E1";
name = Regular;
paths = (
{
closed = 1;
nodes = (
"366 686 LINE",
"288 811 LINE",
"216 811 LINE",
"137 686 LINE",
"210 686 LINE",
"252 759 LINE",
"292 686 LINE"
);
},
{
closed = 1;
nodes = (
"64 0 LINE",
"459 0 LINE",
"459 74 LINE",
"146 74 LINE",
"146 286 LINE",
"413 286 LINE",
"413 360 LINE",
"146 360 LINE",
"146 557 LINE",
"453 557 LINE",
"453 630 LINE",
"64 630 LINE"
);
}
);
width = 503;
},
{
layerId = "6F612806-55AD-4202-9302-A343176768ED";
name = Bold;
paths = (
{
closed = 1;
nodes = (
"375 687 LINE",
"297 812 LINE",
"207 812 LINE",
"128 687 LINE",
"210 687 LINE",
"252 751 LINE",
"292 687 LINE"
);
},
{
closed = 1;
nodes = (
"55 0 LINE",
"463 0 LINE",
"463 105 LINE",
"173 105 LINE",
"173 270 LINE",
"416 270 LINE",
"416 375 LINE",
"173 375 LINE",
"173 526 LINE",
"457 526 LINE",
"457 630 LINE",
"55 630 LINE"
);
}
);
width = 503;
}
);
unicode = 00CA;
},
{
glyphname = Edieresis;
lastChange = "2015-02-24 03:04:22 +0000";
layers = (
{
layerId = "F9754C76-BF5B-4405-B8AE-C91642E979E1";
name = Regular;
paths = (
{
closed = 1;
nodes = (
"453 630 LINE",
"64 630 LINE",
"64 0 LINE",
"459 0 LINE",
"459 74 LINE",
"146 74 LINE",
"146 286 LINE",
"413 286 LINE",
"413 360 LINE",
"146 360 LINE",
"146 557 LINE",
"453 557 LINE"
);
},
{
closed = 1;
nodes = (
"223 812 LINE",
"142 812 LINE",
"142 725 LINE",
"223 725 LINE"
);
},
{
closed = 1;
nodes = (
"361 812 LINE",
"281 812 LINE",
"281 725 LINE",
"361 725 LINE"
);
}
);
width = 503;
},
{
layerId = "6F612806-55AD-4202-9302-A343176768ED";
name = Bold;
paths = (
{
closed = 1;
nodes = (
"457 630 LINE",
"55 630 LINE",
"55 0 LINE",
"463 0 LINE",
"463 105 LINE",
"173 105 LINE",
"173 270 LINE",
"416 270 LINE",
"416 375 LINE",
"173 375 LINE",
"173 526 LINE",
"457 526 LINE"
);
},
{
closed = 1;
nodes = (
"217 812 LINE",
"125 812 LINE",
"125 711 LINE",
"217 711 LINE"
);
},
{
closed = 1;
nodes = (
"378 812 LINE",
"286 812 LINE",
"286 711 LINE",
"378 711 LINE"
);
}
);
width = 503;
}
);
unicode = 00CB;
},
{
glyphname = Edotaccent;
lastChange = "2015-02-24 03:04:22 +0000";
layers = (
{
layerId = "F9754C76-BF5B-4405-B8AE-C91642E979E1";
name = Regular;
paths = (
{
closed = 1;
nodes = (
"291 725 LINE",
"291 812 LINE",
"211 812 LINE",
"211 725 LINE"
);
},
{
closed = 1;
nodes = (
"64 0 LINE",
"459 0 LINE",
"459 74 LINE",
"146 74 LINE",
"146 286 LINE",
"413 286 LINE",
"413 360 LINE",
"146 360 LINE",
"146 557 LINE",
"453 557 LINE",
"453 630 LINE",
"64 630 LINE"
);
}
);
width = 503;
},
{
layerId = "6F612806-55AD-4202-9302-A343176768ED";
name = Bold;
paths = (
{
closed = 1;
nodes = (
"301 706 LINE",
"301 812 LINE",
"202 812 LINE",
"202 706 LINE"
);
},
{
closed = 1;
nodes = (
"55 0 LINE",
"463 0 LINE",
"463 105 LINE",
"173 105 LINE",
"173 270 LINE",
"416 270 LINE",
"416 375 LINE",
"173 375 LINE",
"173 526 LINE",
"457 526 LINE",
"457 630 LINE",
"55 630 LINE"
);
}
);
width = 503;
}
);
unicode = 0116;
},
{
glyphname = Egrave;
lastChange = "2015-02-24 03:04:22 +0000";
layers = (
{
layerId = "F9754C76-BF5B-4405-B8AE-C91642E979E1";
name = Regular;
paths = (
{
closed = 1;
nodes = (
"453 630 LINE",
"64 630 LINE",
"64 0 LINE",
"459 0 LINE",
"459 74 LINE",
"146 74 LINE",
"146 286 LINE",
"413 286 LINE",
"413 360 LINE",
"146 360 LINE",
"146 557 LINE",
"453 557 LINE"
);
},
{
closed = 1;
nodes = (
"227 812 LINE",
"145 812 LINE",
"144 809 LINE",
"242 691 LINE",
"306 691 LINE"
);
}
);
width = 503;
},
{
layerId = "6F612806-55AD-4202-9302-A343176768ED";
name = Bold;
paths = (
{
closed = 1;
nodes = (
"457 630 LINE",
"55 630 LINE",
"55 0 LINE",
"463 0 LINE",
"463 105 LINE",
"173 105 LINE",
"173 270 LINE",
"416 270 LINE",
"416 375 LINE",
"173 375 LINE",
"173 526 LINE",
"457 526 LINE"
);
},
{
closed = 1;
nodes = (
"235 812 LINE",
"125 812 LINE",
"124 809 LINE",
"224 691 LINE",
"314 691 LINE"
);
}
);
width = 503;
}
);
unicode = 00C8;
},
{
glyphname = Emacron;
lastChange = "2015-02-24 03:04:22 +0000";
layers = (
{
layerId = "F9754C76-BF5B-4405-B8AE-C91642E979E1";
name = Regular;
paths = (
{
closed = 1;
nodes = (
"367 698 LINE",
"367 764 LINE",
"136 764 LINE",
"136 698 LINE"
);
},
{
closed = 1;
nodes = (
"64 0 LINE",
"459 0 LINE",
"459 74 LINE",
"146 74 LINE",
"146 286 LINE",
"413 286 LINE",
"413 360 LINE",
"146 360 LINE",
"146 557 LINE",
"453 557 LINE",
"453 630 LINE",
"64 630 LINE"
);
}
);
width = 503;
},
{
layerId = "6F612806-55AD-4202-9302-A343176768ED";
name = Bold;
paths = (
{
closed = 1;
nodes = (
"368 698 LINE",
"368 778 LINE",
"134 778 LINE",
"134 698 LINE"
);
},
{
closed = 1;
nodes = (
"55 0 LINE",
"463 0 LINE",
"463 105 LINE",
"173 105 LINE",
"173 270 LINE",
"416 270 LINE",
"416 375 LINE",
"173 375 LINE",
"173 526 LINE",
"457 526 LINE",
"457 630 LINE",
"55 630 LINE"
);
}
);
width = 503;
}
);
unicode = 0112;
},
{
glyphname = Eogonek;
lastChange = "2015-02-24 03:04:22 +0000";
layers = (
{
layerId = "F9754C76-BF5B-4405-B8AE-C91642E979E1";
name = Regular;
paths = (
{
closed = 1;
nodes = (
"453 557 LINE",
"453 630 LINE",
"64 630 LINE",
"64 0 LINE",
"399 0 LINE",
"380 -21 OFFCURVE",
"365 -46 OFFCURVE",
"365 -84 CURVE SMOOTH",
"365 -148 OFFCURVE",
"412 -167 OFFCURVE",
"451 -167 CURVE SMOOTH",
"470 -167 OFFCURVE",
"488 -162 OFFCURVE",
"508 -155 CURVE",
"508 -107 LINE",
"479 -107 LINE SMOOTH",
"448 -107 OFFCURVE",
"437 -83 OFFCURVE",
"437 -57 CURVE SMOOTH",
"437 -35 OFFCURVE",
"448 -14 OFFCURVE",
"459 0 CURVE",
"459 74 LINE",
"146 74 LINE",
"146 286 LINE",
"413 286 LINE",
"413 360 LINE",
"146 360 LINE",
"146 557 LINE"
);
}
);
width = 503;
},
{
layerId = "6F612806-55AD-4202-9302-A343176768ED";
name = Bold;
paths = (
{
closed = 1;
nodes = (
"457 526 LINE",
"457 630 LINE",
"55 630 LINE",
"55 0 LINE",
"385 0 LINE",
"363 -23 OFFCURVE",
"344 -49 OFFCURVE",
"344 -92 CURVE SMOOTH",
"344 -155 OFFCURVE",
"393 -175 OFFCURVE",
"436 -175 CURVE SMOOTH",
"456 -175 OFFCURVE",
"475 -171 OFFCURVE",
"496 -162 CURVE",
"496 -111 LINE",
"476 -111 LINE SMOOTH",
"446 -111 OFFCURVE",
"435 -88 OFFCURVE",
"435 -64 CURVE SMOOTH",
"435 -38 OFFCURVE",
"451 -12 OFFCURVE",
"463 0 CURVE",
"463 105 LINE",
"173 105 LINE",
"173 270 LINE",
"416 270 LINE",
"416 375 LINE",
"173 375 LINE",
"173 526 LINE"
);
}
);
width = 503;
}
);
unicode = 0118;
},
{
glyphname = F;
lastChange = "2015-02-24 03:04:22 +0000";
layers = (
{
layerId = "F9754C76-BF5B-4405-B8AE-C91642E979E1";
name = Regular;
paths = (
{
closed = 1;
nodes = (
"64 0 LINE",
"146 0 LINE",
"146 280 LINE",
"395 280 LINE",
"395 353 LINE",
"146 353 LINE",
"146 557 LINE",
"428 557 LINE",
"428 630 LINE",
"64 630 LINE"
);
}
);
width = 461;
},
{
layerId = "6F612806-55AD-4202-9302-A343176768ED";
name = Bold;
paths = (
{
closed = 1;
nodes = (
"55 0 LINE",
"173 0 LINE",
"173 262 LINE",
"389 262 LINE",
"389 367 LINE",
"173 367 LINE",
"173 526 LINE",
"425 526 LINE",
"425 630 LINE",
"55 630 LINE"
);
}
);
width = 461;
}
);
unicode = 0046;
},
{
glyphname = G;
lastChange = "2015-02-24 03:04:22 +0000";
layers = (
{
anchors = (
{
name = bottom;
position = "{293, 0}";
},
{
name = top;
position = "{293, 630}";
}
);
layerId = "F9754C76-BF5B-4405-B8AE-C91642E979E1";
name = Regular;
paths = (
{
closed = 1;
nodes = (
"140 642 OFFCURVE",
"45 535 OFFCURVE",
"45 315 CURVE SMOOTH",
"45 97 OFFCURVE",
"134 -11 OFFCURVE",
"293 -11 CURVE SMOOTH",
"361 -11 OFFCURVE",
"417 12 OFFCURVE",
"456 70 CURVE",
"473 0 LINE",
"527 0 LINE",
"527 329 LINE",
"281 329 LINE",
"281 258 LINE",
"478 258 LINE",
"444 291 LINE",
"444 242 LINE SMOOTH",
"444 123 OFFCURVE",
"398 63 OFFCURVE",
"293 63 CURVE SMOOTH",
"187 63 OFFCURVE",
"130 138 OFFCURVE",
"130 292 CURVE SMOOTH",
"130 338 LINE SMOOTH",
"130 492 OFFCURVE",
"194 567 OFFCURVE",
"297 567 CURVE SMOOTH",
"385 567 OFFCURVE",
"444 520 OFFCURVE",
"444 416 CURVE",
"527 416 LINE",
"527 568 OFFCURVE",
"430 642 OFFCURVE",
"297 642 CURVE SMOOTH"
);
}
);
width = 587;
},
{
anchors = (
{
name = bottom;
position = "{293, 0}";
},
{
name = top;
position = "{293, 630}";
}
);
layerId = "6F612806-55AD-4202-9302-A343176768ED";
name = Bold;
paths = (
{
closed = 1;
nodes = (
"129 642 OFFCURVE",
"31 538 OFFCURVE",
"31 315 CURVE SMOOTH",
"31 92 OFFCURVE",
"121 -11 OFFCURVE",
"275 -11 CURVE SMOOTH",
"341 -11 OFFCURVE",
"402 17 OFFCURVE",
"443 70 CURVE",
"464 0 LINE",
"540 0 LINE",
"540 343 LINE",
"278 343 LINE",
"278 241 LINE",
"469 241 LINE",
"419 286 LINE",
"419 241 LINE SMOOTH",
"419 149 OFFCURVE",
"368 90 OFFCURVE",
"296 90 CURVE SMOOTH",
"198 90 OFFCURVE",
"153 163 OFFCURVE",
"153 292 CURVE SMOOTH",
"153 338 LINE SMOOTH",
"153 464 OFFCURVE",
"197 541 OFFCURVE",
"295 541 CURVE SMOOTH",
"363 541 OFFCURVE",
"419 495 OFFCURVE",
"419 410 CURVE",
"540 410 LINE",
"540 561 OFFCURVE",
"425 642 OFFCURVE",
"298 642 CURVE SMOOTH"
);
}
);
width = 587;
}
);
unicode = 0047;
},
{
glyphname = Gbreve;
lastChange = "2015-02-24 03:04:22 +0000";
layers = (
{
layerId = "F9754C76-BF5B-4405-B8AE-C91642E979E1";
name = Regular;
paths = (
{
closed = 1;
nodes = (
"348 812 LINE",
"346 799 OFFCURVE",
"324 781 OFFCURVE",
"293 781 CURVE SMOOTH",
"263 781 OFFCURVE",
"241 799 OFFCURVE",
"239 812 CURVE",
"180 812 LINE",
"180 771 OFFCURVE",
"224 723 OFFCURVE",
"293 723 CURVE SMOOTH",
"364 723 OFFCURVE",
"408 771 OFFCURVE",
"408 812 CURVE"
);
},
{
closed = 1;
nodes = (
"140 642 OFFCURVE",
"45 535 OFFCURVE",
"45 315 CURVE SMOOTH",
"45 97 OFFCURVE",
"134 -11 OFFCURVE",
"293 -11 CURVE SMOOTH",
"361 -11 OFFCURVE",
"417 12 OFFCURVE",
"456 70 CURVE",
"473 0 LINE",
"527 0 LINE",
"527 329 LINE",
"281 329 LINE",
"281 258 LINE",
"478 258 LINE",
"444 291 LINE",
"444 242 LINE SMOOTH",
"444 123 OFFCURVE",
"398 63 OFFCURVE",
"293 63 CURVE SMOOTH",
"187 63 OFFCURVE",
"130 138 OFFCURVE",
"130 292 CURVE SMOOTH",
"130 338 LINE SMOOTH",
"130 492 OFFCURVE",
"194 567 OFFCURVE",
"297 567 CURVE SMOOTH",
"385 567 OFFCURVE",
"444 520 OFFCURVE",
"444 416 CURVE",
"527 416 LINE",
"527 568 OFFCURVE",
"430 642 OFFCURVE",
"297 642 CURVE SMOOTH"
);
}
);
width = 587;
},
{
layerId = "6F612806-55AD-4202-9302-A343176768ED";
name = Bold;
paths = (
{
closed = 1;
nodes = (
"348 812 LINE",
"346 799 OFFCURVE",
"324 781 OFFCURVE",
"293 781 CURVE SMOOTH",
"263 781 OFFCURVE",
"241 799 OFFCURVE",
"239 812 CURVE",
"171 812 LINE",
"171 765 OFFCURVE",
"218 713 OFFCURVE",
"293 713 CURVE SMOOTH",
"369 713 OFFCURVE",
"416 765 OFFCURVE",
"416 812 CURVE"
);
},
{
closed = 1;
nodes = (
"129 642 OFFCURVE",
"31 538 OFFCURVE",
"31 315 CURVE SMOOTH",
"31 92 OFFCURVE",
"121 -11 OFFCURVE",
"275 -11 CURVE SMOOTH",
"341 -11 OFFCURVE",
"402 17 OFFCURVE",
"443 70 CURVE",
"464 0 LINE",
"540 0 LINE",
"540 343 LINE",
"278 343 LINE",
"278 241 LINE",
"469 241 LINE",
"419 286 LINE",
"419 241 LINE SMOOTH",
"419 149 OFFCURVE",
"368 90 OFFCURVE",
"296 90 CURVE SMOOTH",
"198 90 OFFCURVE",
"153 163 OFFCURVE",
"153 292 CURVE SMOOTH",
"153 338 LINE SMOOTH",
"153 464 OFFCURVE",
"197 541 OFFCURVE",
"295 541 CURVE SMOOTH",
"363 541 OFFCURVE",
"419 495 OFFCURVE",
"419 410 CURVE",
"540 410 LINE",
"540 561 OFFCURVE",
"425 642 OFFCURVE",
"298 642 CURVE SMOOTH"
);
}
);
width = 587;
}
);
unicode = 011E;
},
{
glyphname = Gcircumflex;
lastChange = "2015-02-24 03:04:22 +0000";
layers = (
{
layerId = "F9754C76-BF5B-4405-B8AE-C91642E979E1";
name = Regular;
paths = (
{
closed = 1;
nodes = (
"408 686 LINE",
"330 811 LINE",
"258 811 LINE",
"179 686 LINE",
"253 686 LINE",
"294 759 LINE",
"335 686 LINE"
);
},
{
closed = 1;
nodes = (
"140 642 OFFCURVE",
"45 535 OFFCURVE",
"45 315 CURVE SMOOTH",
"45 97 OFFCURVE",
"134 -11 OFFCURVE",
"293 -11 CURVE SMOOTH",
"361 -11 OFFCURVE",
"417 12 OFFCURVE",
"456 70 CURVE",
"473 0 LINE",
"527 0 LINE",
"527 329 LINE",
"281 329 LINE",
"281 258 LINE",
"478 258 LINE",
"444 291 LINE",
"444 242 LINE SMOOTH",
"444 123 OFFCURVE",
"398 63 OFFCURVE",
"293 63 CURVE SMOOTH",
"187 63 OFFCURVE",
"130 138 OFFCURVE",
"130 292 CURVE SMOOTH",
"130 338 LINE SMOOTH",
"130 492 OFFCURVE",
"194 567 OFFCURVE",
"297 567 CURVE SMOOTH",
"385 567 OFFCURVE",
"444 520 OFFCURVE",
"444 416 CURVE",
"527 416 LINE",
"527 568 OFFCURVE",
"430 642 OFFCURVE",
"297 642 CURVE SMOOTH"
);
}
);
width = 587;
},
{
layerId = "6F612806-55AD-4202-9302-A343176768ED";
name = Bold;
paths = (
{
closed = 1;
nodes = (
"417 687 LINE",
"339 812 LINE",
"250 812 LINE",
"171 687 LINE",
"253 687 LINE",
"294 751 LINE",
"335 687 LINE"
);
},
{
closed = 1;
nodes = (
"129 642 OFFCURVE",
"31 538 OFFCURVE",
"31 315 CURVE SMOOTH",
"31 92 OFFCURVE",
"121 -11 OFFCURVE",
"275 -11 CURVE SMOOTH",
"341 -11 OFFCURVE",
"402 17 OFFCURVE",
"443 70 CURVE",
"464 0 LINE",
"540 0 LINE",
"540 343 LINE",
"278 343 LINE",
"278 241 LINE",
"469 241 LINE",
"419 286 LINE",
"419 241 LINE SMOOTH",
"419 149 OFFCURVE",
"368 90 OFFCURVE",
"296 90 CURVE SMOOTH",
"198 90 OFFCURVE",
"153 163 OFFCURVE",
"153 292 CURVE SMOOTH",
"153 338 LINE SMOOTH",
"153 464 OFFCURVE",
"197 541 OFFCURVE",
"295 541 CURVE SMOOTH",
"363 541 OFFCURVE",
"419 495 OFFCURVE",
"419 410 CURVE",
"540 410 LINE",
"540 561 OFFCURVE",
"425 642 OFFCURVE",
"298 642 CURVE SMOOTH"
);
}
);
width = 587;
}
);
unicode = 011C;
},
{
glyphname = Gcommaaccent;
lastChange = "2015-02-24 03:04:22 +0000";
layers = (
{
layerId = "F9754C76-BF5B-4405-B8AE-C91642E979E1";
name = Regular;
paths = (
{
closed = 1;
nodes = (
"333 -132 LINE",
"333 -55 LINE",
"255 -55 LINE",
"255 -138 LINE",
"286 -138 LINE",
"265 -204 LINE",
"306 -204 LINE"
);
},
{
closed = 1;
nodes = (
"140 642 OFFCURVE",
"45 535 OFFCURVE",
"45 315 CURVE SMOOTH",
"45 97 OFFCURVE",
"134 -11 OFFCURVE",
"293 -11 CURVE SMOOTH",
"361 -11 OFFCURVE",
"417 12 OFFCURVE",
"456 70 CURVE",
"473 0 LINE",
"527 0 LINE",
"527 329 LINE",
"281 329 LINE",
"281 258 LINE",
"478 258 LINE",
"444 291 LINE",
"444 242 LINE SMOOTH",
"444 123 OFFCURVE",
"398 63 OFFCURVE",
"293 63 CURVE SMOOTH",
"187 63 OFFCURVE",
"130 138 OFFCURVE",
"130 292 CURVE SMOOTH",
"130 338 LINE SMOOTH",
"130 492 OFFCURVE",
"194 567 OFFCURVE",
"297 567 CURVE SMOOTH",
"385 567 OFFCURVE",
"444 520 OFFCURVE",
"444 416 CURVE",
"527 416 LINE",
"527 568 OFFCURVE",
"430 642 OFFCURVE",
"297 642 CURVE SMOOTH"
);
}
);
width = 587;
},
{
layerId = "6F612806-55AD-4202-9302-A343176768ED";
name = Bold;
paths = (
{
closed = 1;
nodes = (
"336 -154 LINE",
"336 -51 LINE",
"223 -51 LINE",
"223 -163 LINE",
"267 -163 LINE",
"234 -241 LINE",
"294 -241 LINE"
);
},
{
closed = 1;
nodes = (
"129 642 OFFCURVE",
"31 538 OFFCURVE",
"31 315 CURVE SMOOTH",
"31 92 OFFCURVE",
"121 -11 OFFCURVE",
"275 -11 CURVE SMOOTH",
"341 -11 OFFCURVE",
"402 17 OFFCURVE",
"443 70 CURVE",
"464 0 LINE",
"540 0 LINE",
"540 343 LINE",
"278 343 LINE",
"278 241 LINE",
"469 241 LINE",
"419 286 LINE",
"419 241 LINE SMOOTH",
"419 149 OFFCURVE",
"368 90 OFFCURVE",
"296 90 CURVE SMOOTH",
"198 90 OFFCURVE",
"153 163 OFFCURVE",
"153 292 CURVE SMOOTH",
"153 338 LINE SMOOTH",
"153 464 OFFCURVE",
"197 541 OFFCURVE",
"295 541 CURVE SMOOTH",
"363 541 OFFCURVE",
"419 495 OFFCURVE",
"419 410 CURVE",
"540 410 LINE",
"540 561 OFFCURVE",
"425 642 OFFCURVE",
"298 642 CURVE SMOOTH"
);
}
);
width = 587;
}
);
unicode = 0122;
},
{
glyphname = Gdotaccent;
lastChange = "2015-02-24 03:04:22 +0000";
layers = (
{
layerId = "F9754C76-BF5B-4405-B8AE-C91642E979E1";
name = Regular;
paths = (
{
closed = 1;
nodes = (
"334 725 LINE",
"334 812 LINE",
"254 812 LINE",
"254 725 LINE"
);
},
{
closed = 1;
nodes = (
"140 642 OFFCURVE",
"45 535 OFFCURVE",
"45 315 CURVE SMOOTH",
"45 97 OFFCURVE",
"134 -11 OFFCURVE",
"293 -11 CURVE SMOOTH",
"361 -11 OFFCURVE",
"417 12 OFFCURVE",
"456 70 CURVE",
"473 0 LINE",
"527 0 LINE",
"527 329 LINE",
"281 329 LINE",
"281 258 LINE",
"478 258 LINE",
"444 291 LINE",
"444 242 LINE SMOOTH",
"444 123 OFFCURVE",
"398 63 OFFCURVE",
"293 63 CURVE SMOOTH",
"187 63 OFFCURVE",
"130 138 OFFCURVE",
"130 292 CURVE SMOOTH",
"130 338 LINE SMOOTH",
"130 492 OFFCURVE",
"194 567 OFFCURVE",
"297 567 CURVE SMOOTH",
"385 567 OFFCURVE",
"444 520 OFFCURVE",
"444 416 CURVE",
"527 416 LINE",
"527 568 OFFCURVE",
"430 642 OFFCURVE",
"297 642 CURVE SMOOTH"
);
}
);
width = 587;
},
{
layerId = "6F612806-55AD-4202-9302-A343176768ED";
name = Bold;
paths = (
{
closed = 1;
nodes = (
"343 706 LINE",
"343 812 LINE",
"244 812 LINE",
"244 706 LINE"
);
},
{
closed = 1;
nodes = (
"129 642 OFFCURVE",
"31 538 OFFCURVE",
"31 315 CURVE SMOOTH",
"31 92 OFFCURVE",
"121 -11 OFFCURVE",
"275 -11 CURVE SMOOTH",
"341 -11 OFFCURVE",
"402 17 OFFCURVE",
"443 70 CURVE",
"464 0 LINE",
"540 0 LINE",
"540 343 LINE",
"278 343 LINE",
"278 241 LINE",
"469 241 LINE",
"419 286 LINE",
"419 241 LINE SMOOTH",
"419 149 OFFCURVE",
"368 90 OFFCURVE",
"296 90 CURVE SMOOTH",
"198 90 OFFCURVE",
"153 163 OFFCURVE",
"153 292 CURVE SMOOTH",
"153 338 LINE SMOOTH",
"153 464 OFFCURVE",
"197 541 OFFCURVE",
"295 541 CURVE SMOOTH",
"363 541 OFFCURVE",
"419 495 OFFCURVE",
"419 410 CURVE",
"540 410 LINE",
"540 561 OFFCURVE",
"425 642 OFFCURVE",
"298 642 CURVE SMOOTH"
);
}
);
width = 587;
}
);
unicode = 0120;
},
{
glyphname = H;
lastChange = "2015-02-24 03:04:22 +0000";
layers = (
{
anchors = (
{
name = center;
position = "{272, 315}";
},
{
name = top;
position = "{272, 630}";
}
);
layerId = "F9754C76-BF5B-4405-B8AE-C91642E979E1";
name = Regular;
paths = (
{
closed = 1;
nodes = (
"479 630 LINE",
"399 630 LINE",
"399 360 LINE",
"146 360 LINE",
"146 630 LINE",
"64 630 LINE",
"64 0 LINE",
"146 0 LINE",
"146 286 LINE",
"399 286 LINE",
"399 0 LINE",
"479 0 LINE"
);
}
);
width = 544;
},
{
anchors = (
{
name = center;
position = "{272, 315}";
},
{
name = top;
position = "{272, 630}";
}
);
layerId = "6F612806-55AD-4202-9302-A343176768ED";
name = Bold;
paths = (
{
closed = 1;
nodes = (
"489 630 LINE",
"371 630 LINE",
"371 375 LINE",
"173 375 LINE",
"173 630 LINE",
"55 630 LINE",
"55 0 LINE",
"173 0 LINE",
"173 270 LINE",
"371 270 LINE",
"371 0 LINE",
"489 0 LINE"
);
}
);
width = 544;
}
);
unicode = 0048;
},
{
glyphname = Hbar;
lastChange = "2015-02-24 03:04:22 +0000";
layers = (
{
layerId = "F9754C76-BF5B-4405-B8AE-C91642E979E1";
name = Regular;
paths = (
{
closed = 1;
nodes = (
"526 450 LINE",
"526 517 LINE",
"479 517 LINE",
"479 630 LINE",
"399 630 LINE",
"399 517 LINE",
"146 517 LINE",
"146 630 LINE",
"64 630 LINE",
"64 517 LINE",
"19 517 LINE",
"19 450 LINE",
"64 450 LINE",
"64 0 LINE",
"146 0 LINE",
"146 282 LINE",
"399 282 LINE",
"399 0 LINE",
"479 0 LINE",
"479 450 LINE"
);
},
{
closed = 1;
nodes = (
"399 355 LINE",
"146 355 LINE",
"146 450 LINE",
"399 450 LINE"
);
}
);
width = 544;
},
{
layerId = "6F612806-55AD-4202-9302-A343176768ED";
name = Bold;
paths = (
{
closed = 1;
nodes = (
"535 450 LINE",
"535 530 LINE",
"489 530 LINE",
"489 630 LINE",
"371 630 LINE",
"371 530 LINE",
"173 530 LINE",
"173 630 LINE",
"55 630 LINE",
"55 530 LINE",
"9 530 LINE",
"9 450 LINE",
"55 450 LINE",
"55 0 LINE",
"173 0 LINE",
"173 264 LINE",
"371 264 LINE",
"371 0 LINE",
"489 0 LINE",
"489 450 LINE"
);
},
{
closed = 1;
nodes = (
"371 368 LINE",
"173 368 LINE",
"173 450 LINE",
"371 450 LINE"
);
}
);
width = 544;
}
);
unicode = 0126;
},
{
glyphname = Hcircumflex;
lastChange = "2015-02-24 03:04:22 +0000";
layers = (
{
layerId = "F9754C76-BF5B-4405-B8AE-C91642E979E1";
name = Regular;
paths = (
{
closed = 1;
nodes = (
"479 630 LINE",
"399 630 LINE",
"399 360 LINE",
"146 360 LINE",
"146 630 LINE",
"64 630 LINE",
"64 0 LINE",
"146 0 LINE",
"146 286 LINE",
"399 286 LINE",
"399 0 LINE",
"479 0 LINE"
);
},
{
closed = 1;
nodes = (
"308 811 LINE",
"236 811 LINE",
"157 686 LINE",
"231 686 LINE",
"274 759 LINE",
"313 686 LINE",
"387 686 LINE"
);
}
);
width = 544;
},
{
layerId = "6F612806-55AD-4202-9302-A343176768ED";
name = Bold;
paths = (
{
closed = 1;
nodes = (
"489 630 LINE",
"371 630 LINE",
"371 375 LINE",
"173 375 LINE",
"173 630 LINE",
"55 630 LINE",
"55 0 LINE",
"173 0 LINE",
"173 270 LINE",
"371 270 LINE",
"371 0 LINE",
"489 0 LINE"
);
},
{
closed = 1;
nodes = (
"318 812 LINE",
"228 812 LINE",
"149 687 LINE",
"231 687 LINE",
"272 751 LINE",
"313 687 LINE",
"396 687 LINE"
);
}
);
width = 544;
}
);
unicode = 0124;
},
{
glyphname = I;
lastChange = "2015-02-24 03:04:22 +0000";
layers = (
{
anchors = (
{
name = ogonek;
position = "{188, 9}";
},
{
name = top;
position = "{105, 630}";
}
);
layerId = "F9754C76-BF5B-4405-B8AE-C91642E979E1";
name = Regular;
paths = (
{
closed = 1;
nodes = (
"146 0 LINE",
"146 630 LINE",
"64 630 LINE",
"64 0 LINE"
);
}
);
width = 210;
},
{
anchors = (
{
name = ogonek;
position = "{188, 9}";
},
{
name = top;
position = "{105, 630}";
}
);
layerId = "6F612806-55AD-4202-9302-A343176768ED";
name = Bold;
paths = (
{
closed = 1;
nodes = (
"163 0 LINE",
"163 630 LINE",
"46 630 LINE",
"46 0 LINE"
);
}
);
width = 210;
}
);
unicode = 0049;
},
{
glyphname = IJ;
lastChange = "2015-02-24 03:04:22 +0000";
layers = (
{
layerId = "F9754C76-BF5B-4405-B8AE-C91642E979E1";
name = Regular;
paths = (
{
closed = 1;
nodes = (
"527 630 LINE",
"446 630 LINE",
"446 146 LINE SMOOTH",
"446 92 OFFCURVE",
"420 63 OFFCURVE",
"374 63 CURVE SMOOTH",
"329 63 OFFCURVE",
"303 92 OFFCURVE",
"303 146 CURVE SMOOTH",
"303 191 LINE",
"222 191 LINE",
"222 150 LINE SMOOTH",
"222 45 OFFCURVE",
"278 -11 OFFCURVE",
"374 -11 CURVE SMOOTH",
"471 -11 OFFCURVE",
"527 45 OFFCURVE",
"527 150 CURVE SMOOTH"
);
},
{
closed = 1;
nodes = (
"146 630 LINE",
"64 630 LINE",
"64 0 LINE",
"146 0 LINE"
);
}
);
width = 587;
},
{
layerId = "6F612806-55AD-4202-9302-A343176768ED";
name = Bold;
paths = (
{
closed = 1;
nodes = (
"574 630 LINE",
"456 630 LINE",
"456 159 LINE SMOOTH",
"456 114 OFFCURVE",
"436 90 OFFCURVE",
"396 90 CURVE SMOOTH",
"356 90 OFFCURVE",
"335 114 OFFCURVE",
"335 159 CURVE SMOOTH",
"335 199 LINE",
"218 199 LINE",
"218 150 LINE SMOOTH",
"218 45 OFFCURVE",
"282 -11 OFFCURVE",
"396 -11 CURVE SMOOTH",
"511 -11 OFFCURVE",
"574 45 OFFCURVE",
"574 150 CURVE SMOOTH"
);
},
{
closed = 1;
nodes = (
"163 630 LINE",
"46 630 LINE",
"46 0 LINE",
"163 0 LINE"
);
}
);
width = 629;
}
);
unicode = 0132;
},
{
glyphname = Iacute;
lastChange = "2015-02-24 03:04:22 +0000";
layers = (
{
layerId = "F9754C76-BF5B-4405-B8AE-C91642E979E1";
name = Regular;
paths = (
{
closed = 1;
nodes = (
"146 630 LINE",
"64 630 LINE",
"64 0 LINE",
"146 0 LINE"
);
},
{
closed = 1;
nodes = (
"211 812 LINE",
"130 812 LINE",
"51 691 LINE",
"114 691 LINE",
"212 809 LINE"
);
}
);
width = 210;
},
{
layerId = "6F612806-55AD-4202-9302-A343176768ED";
name = Bold;
paths = (
{
closed = 1;
nodes = (
"163 630 LINE",
"46 630 LINE",
"46 0 LINE",
"163 0 LINE"
);
},
{
closed = 1;
nodes = (
"231 812 LINE",
"121 812 LINE",
"42 691 LINE",
"133 691 LINE",
"232 809 LINE"
);
}
);
width = 210;
}
);
unicode = 00CD;
},
{
glyphname = Ibreve;
lastChange = "2015-02-24 03:04:22 +0000";
layers = (
{
layerId = "F9754C76-BF5B-4405-B8AE-C91642E979E1";
name = Regular;
paths = (
{
closed = 1;
nodes = (
"146 0 LINE",
"146 630 LINE",
"64 630 LINE",
"64 0 LINE"
);
},
{
closed = 1;
nodes = (
"160 812 LINE",
"158 799 OFFCURVE",
"136 781 OFFCURVE",
"105 781 CURVE SMOOTH",
"75 781 OFFCURVE",
"53 799 OFFCURVE",
"51 812 CURVE",
"-9 812 LINE",
"-9 771 OFFCURVE",
"35 723 OFFCURVE",
"105 723 CURVE SMOOTH",
"176 723 OFFCURVE",
"218 771 OFFCURVE",
"218 812 CURVE"
);
}
);
width = 210;
},
{
layerId = "6F612806-55AD-4202-9302-A343176768ED";
name = Bold;
paths = (
{
closed = 1;
nodes = (
"163 0 LINE",
"163 630 LINE",
"46 630 LINE",
"46 0 LINE"
);
},
{
closed = 1;
nodes = (
"160 812 LINE",
"158 799 OFFCURVE",
"136 781 OFFCURVE",
"105 781 CURVE SMOOTH",
"75 781 OFFCURVE",
"53 799 OFFCURVE",
"51 812 CURVE",
"-19 812 LINE",
"-19 765 OFFCURVE",
"29 713 OFFCURVE",
"105 713 CURVE SMOOTH",
"181 713 OFFCURVE",
"228 765 OFFCURVE",
"228 812 CURVE"
);
}
);
width = 210;
}
);
unicode = 012C;
},
{
glyphname = Icircumflex;
lastChange = "2015-02-24 03:04:22 +0000";
layers = (
{
layerId = "F9754C76-BF5B-4405-B8AE-C91642E979E1";
name = Regular;
paths = (
{
closed = 1;
nodes = (
"146 0 LINE",
"146 630 LINE",
"64 630 LINE",
"64 0 LINE"
);
},
{
closed = 1;
nodes = (
"219 686 LINE",
"141 811 LINE",
"70 811 LINE",
"-10 686 LINE",
"64 686 LINE",
"106 759 LINE",
"147 686 LINE"
);
}
);
width = 210;
},
{
layerId = "6F612806-55AD-4202-9302-A343176768ED";
name = Bold;
paths = (
{
closed = 1;
nodes = (
"163 0 LINE",
"163 630 LINE",
"46 630 LINE",
"46 0 LINE"
);
},
{
closed = 1;
nodes = (
"229 687 LINE",
"151 812 LINE",
"60 812 LINE",
"-20 687 LINE",
"64 687 LINE",
"106 751 LINE",
"147 687 LINE"
);
}
);
width = 210;
}
);
unicode = 00CE;
},
{
glyphname = Idieresis;
lastChange = "2015-02-24 03:04:22 +0000";
layers = (
{
layerId = "F9754C76-BF5B-4405-B8AE-C91642E979E1";
name = Regular;
paths = (
{
closed = 1;
nodes = (
"146 630 LINE",
"64 630 LINE",
"64 0 LINE",
"146 0 LINE"
);
},
{
closed = 1;
nodes = (
"76 812 LINE",
"-4 812 LINE",
"-4 725 LINE",
"76 725 LINE"
);
},
{
closed = 1;
nodes = (
"214 812 LINE",
"134 812 LINE",
"134 725 LINE",
"214 725 LINE"
);
}
);
width = 210;
},
{
layerId = "6F612806-55AD-4202-9302-A343176768ED";
name = Bold;
paths = (
{
closed = 1;
nodes = (
"163 630 LINE",
"46 630 LINE",
"46 0 LINE",
"163 0 LINE"
);
},
{
closed = 1;
nodes = (
"71 812 LINE",
"-21 812 LINE",
"-21 711 LINE",
"71 711 LINE"
);
},
{
closed = 1;
nodes = (
"232 812 LINE",
"139 812 LINE",
"139 711 LINE",
"232 711 LINE"
);
}
);
width = 210;
}
);
unicode = 00CF;
},
{
glyphname = Idotaccent;
lastChange = "2015-02-24 03:04:22 +0000";
layers = (
{
layerId = "F9754C76-BF5B-4405-B8AE-C91642E979E1";
name = Regular;
paths = (
{
closed = 1;
nodes = (
"146 0 LINE",
"146 630 LINE",
"64 630 LINE",
"64 0 LINE"
);
},
{
closed = 1;
nodes = (
"146 725 LINE",
"146 812 LINE",
"66 812 LINE",
"66 725 LINE"
);
}
);
width = 210;
},
{
layerId = "6F612806-55AD-4202-9302-A343176768ED";
name = Bold;
paths = (
{
closed = 1;
nodes = (
"163 0 LINE",
"163 630 LINE",
"46 630 LINE",
"46 0 LINE"
);
},
{
closed = 1;
nodes = (
"155 706 LINE",
"155 812 LINE",
"56 812 LINE",
"56 706 LINE"
);
}
);
width = 210;
}
);
unicode = 0130;
},
{
glyphname = Igrave;
lastChange = "2015-02-24 03:04:22 +0000";
layers = (
{
layerId = "F9754C76-BF5B-4405-B8AE-C91642E979E1";
name = Regular;
paths = (
{
closed = 1;
nodes = (
"146 630 LINE",
"64 630 LINE",
"64 0 LINE",
"146 0 LINE"
);
},
{
closed = 1;
nodes = (
"81 812 LINE",
"-2 812 LINE",
"-3 809 LINE",
"97 691 LINE",
"160 691 LINE"
);
}
);
width = 210;
},
{
layerId = "6F612806-55AD-4202-9302-A343176768ED";
name = Bold;
paths = (
{
closed = 1;
nodes = (
"163 630 LINE",
"46 630 LINE",
"46 0 LINE",
"163 0 LINE"
);
},
{
closed = 1;
nodes = (
"89 812 LINE",
"-21 812 LINE",
"-22 809 LINE",
"77 691 LINE",
"168 691 LINE"
);
}
);
width = 210;
}
);
unicode = 00CC;
},
{
glyphname = Imacron;
lastChange = "2015-02-24 03:04:22 +0000";
layers = (
{
layerId = "F9754C76-BF5B-4405-B8AE-C91642E979E1";
name = Regular;
paths = (
{
closed = 1;
nodes = (
"146 0 LINE",
"146 630 LINE",
"64 630 LINE",
"64 0 LINE"
);
},
{
closed = 1;
nodes = (
"220 698 LINE",
"220 764 LINE",
"-10 764 LINE",
"-10 698 LINE"
);
}
);
width = 210;
},
{
layerId = "6F612806-55AD-4202-9302-A343176768ED";
name = Bold;
paths = (
{
closed = 1;
nodes = (
"163 0 LINE",
"163 630 LINE",
"46 630 LINE",
"46 0 LINE"
);
},
{
closed = 1;
nodes = (
"223 698 LINE",
"223 778 LINE",
"-12 778 LINE",
"-12 698 LINE"
);
}
);
width = 210;
}
);
unicode = 012A;
},
{
glyphname = Iogonek;
lastChange = "2015-02-24 03:04:22 +0000";
layers = (
{
layerId = "F9754C76-BF5B-4405-B8AE-C91642E979E1";
name = Regular;
paths = (
{
closed = 1;
nodes = (
"146 630 LINE",
"64 630 LINE",
"64 0 LINE",
"85 0 LINE",
"67 -21 OFFCURVE",
"52 -45 OFFCURVE",
"52 -84 CURVE SMOOTH",
"52 -148 OFFCURVE",
"99 -167 OFFCURVE",
"138 -167 CURVE SMOOTH",
"157 -167 OFFCURVE",
"176 -162 OFFCURVE",
"194 -155 CURVE",
"194 -107 LINE",
"165 -107 LINE SMOOTH",
"135 -107 OFFCURVE",
"123 -83 OFFCURVE",
"123 -57 CURVE SMOOTH",
"123 -31 OFFCURVE",
"136 -14 OFFCURVE",
"146 0 CURVE"
);
}
);
width = 210;
},
{
layerId = "6F612806-55AD-4202-9302-A343176768ED";
name = Bold;
paths = (
{
closed = 1;
nodes = (
"163 630 LINE",
"46 630 LINE",
"46 0 LINE",
"86 0 LINE",
"64 -23 OFFCURVE",
"46 -49 OFFCURVE",
"46 -92 CURVE SMOOTH",
"46 -155 OFFCURVE",
"96 -175 OFFCURVE",
"137 -175 CURVE SMOOTH",
"157 -175 OFFCURVE",
"177 -171 OFFCURVE",
"198 -162 CURVE",
"198 -111 LINE",
"178 -111 LINE SMOOTH",
"147 -111 OFFCURVE",
"136 -88 OFFCURVE",
"136 -64 CURVE SMOOTH",
"136 -38 OFFCURVE",
"154 -12 OFFCURVE",
"163 0 CURVE"
);
}
);
width = 210;
}
);
unicode = 012E;
},
{
glyphname = Itilde;
lastChange = "2015-02-24 03:04:22 +0000";
layers = (
{
layerId = "F9754C76-BF5B-4405-B8AE-C91642E979E1";
name = Regular;
paths = (
{
closed = 1;
nodes = (
"146 0 LINE",
"146 630 LINE",
"64 630 LINE",
"64 0 LINE"
);
},
{
closed = 1;
nodes = (
"186 812 LINE",
"183 790 OFFCURVE",
"171 784 OFFCURVE",
"155 784 CURVE SMOOTH",
"119 784 OFFCURVE",
"88 812 OFFCURVE",
"49 812 CURVE SMOOTH",
"-6 812 OFFCURVE",
"-29 758 OFFCURVE",
"-29 717 CURVE",
"24 717 LINE",
"27 737 OFFCURVE",
"38 745 OFFCURVE",
"55 745 CURVE SMOOTH",
"92 745 OFFCURVE",
"122 717 OFFCURVE",
"161 717 CURVE SMOOTH",
"216 717 OFFCURVE",
"239 770 OFFCURVE",
"239 812 CURVE"
);
}
);
width = 210;
},
{
layerId = "6F612806-55AD-4202-9302-A343176768ED";
name = Bold;
paths = (
{
closed = 1;
nodes = (
"163 0 LINE",
"163 630 LINE",
"46 630 LINE",
"46 0 LINE"
);
},
{
closed = 1;
nodes = (
"199 812 LINE",
"194 786 OFFCURVE",
"183 778 OFFCURVE",
"163 778 CURVE SMOOTH",
"122 778 OFFCURVE",
"86 812 OFFCURVE",
"41 812 CURVE SMOOTH",
"-24 812 OFFCURVE",
"-50 750 OFFCURVE",
"-50 700 CURVE",
"11 700 LINE",
"16 725 OFFCURVE",
"28 733 OFFCURVE",
"48 733 CURVE SMOOTH",
"89 733 OFFCURVE",
"125 700 OFFCURVE",
"170 700 CURVE SMOOTH",
"234 700 OFFCURVE",
"260 761 OFFCURVE",
"260 812 CURVE"
);
}
);
width = 210;
}
);
unicode = 0128;
},
{
glyphname = J;
lastChange = "2015-02-24 03:04:22 +0000";
layers = (
{
anchors = (
{
name = top;
position = "{188, 630}";
}
);
layerId = "F9754C76-BF5B-4405-B8AE-C91642E979E1";
name = Regular;
paths = (
{
closed = 1;
nodes = (
"317 630 LINE",
"236 630 LINE",
"236 146 LINE SMOOTH",
"236 92 OFFCURVE",
"210 63 OFFCURVE",
"164 63 CURVE SMOOTH",
"119 63 OFFCURVE",
"93 92 OFFCURVE",
"93 146 CURVE SMOOTH",
"93 191 LINE",
"11 191 LINE",
"11 150 LINE SMOOTH",
"11 45 OFFCURVE",
"68 -11 OFFCURVE",
"164 -11 CURVE SMOOTH",
"261 -11 OFFCURVE",
"317 45 OFFCURVE",
"317 150 CURVE SMOOTH"
);
}
);
width = 376;
},
{
anchors = (
{
name = top;
position = "{210, 630}";
}
);
layerId = "6F612806-55AD-4202-9302-A343176768ED";
name = Bold;
paths = (
{
closed = 1;
nodes = (
"364 630 LINE",
"246 630 LINE",
"246 159 LINE SMOOTH",
"246 114 OFFCURVE",
"226 90 OFFCURVE",
"186 90 CURVE SMOOTH",
"147 90 OFFCURVE",
"125 114 OFFCURVE",
"125 159 CURVE SMOOTH",
"125 199 LINE",
"8 199 LINE",
"8 150 LINE SMOOTH",
"8 45 OFFCURVE",
"73 -11 OFFCURVE",
"186 -11 CURVE SMOOTH",
"301 -11 OFFCURVE",
"364 45 OFFCURVE",
"364 150 CURVE SMOOTH"
);
}
);
width = 419;
}
);
unicode = 004A;
},
{
glyphname = Jcircumflex;
lastChange = "2015-02-24 03:04:22 +0000";
layers = (
{
layerId = "F9754C76-BF5B-4405-B8AE-C91642E979E1";
name = Regular;
paths = (
{
closed = 1;
nodes = (
"317 630 LINE",
"236 630 LINE",
"236 146 LINE SMOOTH",
"236 92 OFFCURVE",
"210 63 OFFCURVE",
"164 63 CURVE SMOOTH",
"119 63 OFFCURVE",
"93 92 OFFCURVE",
"93 146 CURVE SMOOTH",
"93 191 LINE",
"11 191 LINE",
"11 150 LINE SMOOTH",
"11 45 OFFCURVE",
"68 -11 OFFCURVE",
"164 -11 CURVE SMOOTH",
"261 -11 OFFCURVE",
"317 45 OFFCURVE",
"317 150 CURVE SMOOTH"
);
},
{
closed = 1;
nodes = (
"313 811 LINE",
"241 811 LINE",
"162 686 LINE",
"236 686 LINE",
"279 759 LINE",
"319 686 LINE",
"392 686 LINE"
);
}
);
width = 376;
},
{
layerId = "6F612806-55AD-4202-9302-A343176768ED";
name = Bold;
paths = (
{
closed = 1;
nodes = (
"364 630 LINE",
"246 630 LINE",
"246 159 LINE SMOOTH",
"246 114 OFFCURVE",
"226 90 OFFCURVE",
"186 90 CURVE SMOOTH",
"147 90 OFFCURVE",
"125 114 OFFCURVE",
"125 159 CURVE SMOOTH",
"125 199 LINE",
"8 199 LINE",
"8 150 LINE SMOOTH",
"8 45 OFFCURVE",
"73 -11 OFFCURVE",
"186 -11 CURVE SMOOTH",
"301 -11 OFFCURVE",
"364 45 OFFCURVE",
"364 150 CURVE SMOOTH"
);
},
{
closed = 1;
nodes = (
"363 812 LINE",
"272 812 LINE",
"193 687 LINE",
"276 687 LINE",
"317 751 LINE",
"359 687 LINE",
"440 687 LINE"
);
}
);
width = 419;
}
);
unicode = 0134;
},
{
glyphname = K;
lastChange = "2015-02-24 03:04:22 +0000";
layers = (
{
anchors = (
{
name = bottom;
position = "{252, 0}";
},
{
name = top;
position = "{252, 630}";
}
);
layerId = "F9754C76-BF5B-4405-B8AE-C91642E979E1";
name = Regular;
paths = (
{
closed = 1;
nodes = (
"146 297 LINE",
"146 630 LINE",
"64 630 LINE",
"64 0 LINE",
"146 0 LINE",
"146 196 LINE",
"246 308 LINE",
"400 0 LINE",
"492 0 LINE",
"296 376 LINE",
"486 630 LINE",
"395 630 LINE"
);
}
);
width = 503;
},
{
anchors = (
{
name = bottom;
position = "{272, 0}";
},
{
name = top;
position = "{272, 630}";
}
);
layerId = "6F612806-55AD-4202-9302-A343176768ED";
name = Bold;
paths = (
{
closed = 1;
nodes = (
"174 308 LINE",
"174 630 LINE",
"55 630 LINE",
"55 0 LINE",
"174 0 LINE",
"174 161 LINE",
"272 282 LINE",
"409 0 LINE",
"542 0 LINE",
"349 374 LINE",
"536 630 LINE",
"405 630 LINE"
);
}
);
width = 544;
}
);
unicode = 004B;
},
{
glyphname = Kcommaaccent;
lastChange = "2015-02-24 03:04:22 +0000";
layers = (
{
layerId = "F9754C76-BF5B-4405-B8AE-C91642E979E1";
name = Regular;
paths = (
{
closed = 1;
nodes = (
"290 -132 LINE",
"290 -55 LINE",
"212 -55 LINE",
"212 -138 LINE",
"243 -138 LINE",
"224 -204 LINE",
"264 -204 LINE"
);
},
{
closed = 1;
nodes = (
"146 297 LINE",
"146 630 LINE",
"64 630 LINE",
"64 0 LINE",
"146 0 LINE",
"146 196 LINE",
"246 308 LINE",
"400 0 LINE",
"492 0 LINE",
"296 376 LINE",
"486 630 LINE",
"395 630 LINE"
);
}
);
width = 503;
},
{
layerId = "6F612806-55AD-4202-9302-A343176768ED";
name = Bold;
paths = (
{
closed = 1;
nodes = (
"329 -154 LINE",
"329 -51 LINE",
"215 -51 LINE",
"215 -163 LINE",
"260 -163 LINE",
"228 -241 LINE",
"287 -241 LINE"
);
},
{
closed = 1;
nodes = (
"174 308 LINE",
"174 630 LINE",
"55 630 LINE",
"55 0 LINE",
"174 0 LINE",
"174 161 LINE",
"272 282 LINE",
"409 0 LINE",
"542 0 LINE",
"349 374 LINE",
"536 630 LINE",
"405 630 LINE"
);
}
);
width = 544;
}
);
unicode = 0136;
},
{
glyphname = L;
lastChange = "2015-02-24 03:04:22 +0000";
layers = (
{
anchors = (
{
name = bottom;
position = "{210, 0}";
},
{
name = top;
position = "{210, 630}";
}
);
layerId = "F9754C76-BF5B-4405-B8AE-C91642E979E1";
name = Regular;
paths = (
{
closed = 1;
nodes = (
"146 630 LINE",
"64 630 LINE",
"64 0 LINE",
"402 0 LINE",
"402 74 LINE",
"146 74 LINE"
);
}
);
width = 419;
},
{
anchors = (
{
name = bottom;
position = "{231, 0}";
},
{
name = top;
position = "{231, 630}";
}
);
layerId = "6F612806-55AD-4202-9302-A343176768ED";
name = Bold;
paths = (
{
closed = 1;
nodes = (
"173 630 LINE",
"55 630 LINE",
"55 0 LINE",
"440 0 LINE",
"440 110 LINE",
"173 110 LINE"
);
}
);
width = 461;
}
);
unicode = 004C;
},
{
glyphname = Lacute;
lastChange = "2015-02-24 03:04:22 +0000";
layers = (
{
layerId = "F9754C76-BF5B-4405-B8AE-C91642E979E1";
name = Regular;
paths = (
{
closed = 1;
nodes = (
"146 630 LINE",
"64 630 LINE",
"64 0 LINE",
"402 0 LINE",
"402 74 LINE",
"146 74 LINE"
);
},
{
closed = 1;
nodes = (
"209 812 LINE",
"126 812 LINE",
"47 691 LINE",
"111 691 LINE",
"210 809 LINE"
);
}
);
width = 419;
},
{
layerId = "6F612806-55AD-4202-9302-A343176768ED";
name = Bold;
paths = (
{
closed = 1;
nodes = (
"173 630 LINE",
"55 630 LINE",
"55 0 LINE",
"440 0 LINE",
"440 110 LINE",
"173 110 LINE"
);
},
{
closed = 1;
nodes = (
"242 812 LINE",
"132 812 LINE",
"53 691 LINE",
"145 691 LINE",
"243 809 LINE"
);
}
);
width = 461;
}
);
unicode = 0139;
},
{
glyphname = Lcaron;
lastChange = "2015-02-24 03:04:22 +0000";
layers = (
{
layerId = "F9754C76-BF5B-4405-B8AE-C91642E979E1";
name = Regular;
paths = (
{
closed = 1;
nodes = (
"146 630 LINE",
"64 630 LINE",
"64 0 LINE",
"402 0 LINE",
"402 74 LINE",
"146 74 LINE"
);
},
{
closed = 1;
nodes = (
"385 630 LINE",
"293 630 LINE",
"293 531 LINE",
"330 531 LINE",
"293 417 LINE",
"341 417 LINE",
"385 540 LINE"
);
}
);
width = 419;
},
{
layerId = "6F612806-55AD-4202-9302-A343176768ED";
name = Bold;
paths = (
{
closed = 1;
nodes = (
"173 630 LINE",
"55 630 LINE",
"55 0 LINE",
"440 0 LINE",
"440 110 LINE",
"173 110 LINE"
);
},
{
closed = 1;
nodes = (
"440 630 LINE",
"313 630 LINE",
"313 504 LINE",
"363 504 LINE",
"313 361 LINE",
"379 361 LINE",
"440 516 LINE"
);
}
);
width = 461;
}
);
unicode = 013D;
},
{
glyphname = Lcommaaccent;
lastChange = "2015-02-24 03:04:22 +0000";
layers = (
{
layerId = "F9754C76-BF5B-4405-B8AE-C91642E979E1";
name = Regular;
paths = (
{
closed = 1;
nodes = (
"146 630 LINE",
"64 630 LINE",
"64 0 LINE",
"402 0 LINE",
"402 74 LINE",
"146 74 LINE"
);
},
{
closed = 1;
nodes = (
"250 -55 LINE",
"171 -55 LINE",
"171 -138 LINE",
"202 -138 LINE",
"181 -204 LINE",
"223 -204 LINE",
"250 -132 LINE"
);
}
);
width = 419;
},
{
layerId = "6F612806-55AD-4202-9302-A343176768ED";
name = Bold;
paths = (
{
closed = 1;
nodes = (
"173 630 LINE",
"55 630 LINE",
"55 0 LINE",
"440 0 LINE",
"440 110 LINE",
"173 110 LINE"
);
},
{
closed = 1;
nodes = (
"287 -51 LINE",
"174 -51 LINE",
"174 -163 LINE",
"218 -163 LINE",
"186 -241 LINE",
"245 -241 LINE",
"287 -154 LINE"
);
}
);
width = 461;
}
);
unicode = 013B;
},
{
glyphname = Ldot;
lastChange = "2015-02-24 03:04:22 +0000";
layers = (
{
layerId = "F9754C76-BF5B-4405-B8AE-C91642E979E1";
name = Regular;
paths = (
{
closed = 1;
nodes = (
"146 630 LINE",
"64 630 LINE",
"64 0 LINE",
"402 0 LINE",
"402 74 LINE",
"146 74 LINE"
);
},
{
closed = 1;
nodes = (
"364 483 LINE",
"271 483 LINE",
"271 381 LINE",
"364 381 LINE"
);
}
);
width = 419;
},
{
layerId = "6F612806-55AD-4202-9302-A343176768ED";
name = Bold;
paths = (
{
closed = 1;
nodes = (
"173 630 LINE",
"55 630 LINE",
"55 0 LINE",
"440 0 LINE",
"440 110 LINE",
"173 110 LINE"
);
},
{
closed = 1;
nodes = (
"386 482 LINE",
"288 482 LINE",
"288 376 LINE",
"386 376 LINE"
);
}
);
width = 461;
}
);
unicode = 013F;
},
{
glyphname = Lslash;
lastChange = "2015-02-24 03:04:22 +0000";
layers = (
{
layerId = "F9754C76-BF5B-4405-B8AE-C91642E979E1";
name = Regular;
paths = (
{
closed = 1;
nodes = (
"146 630 LINE",
"64 630 LINE",
"64 291 LINE",
"0 234 LINE",
"0 170 LINE",
"64 226 LINE",
"64 0 LINE",
"402 0 LINE",
"402 74 LINE",
"146 74 LINE",
"146 297 LINE",
"271 408 LINE",
"271 475 LINE",
"146 363 LINE"
);
}
);
width = 419;
},
{
layerId = "6F612806-55AD-4202-9302-A343176768ED";
name = Bold;
paths = (
{
closed = 1;
nodes = (
"173 630 LINE",
"55 630 LINE",
"55 305 LINE",
"0 257 LINE",
"0 170 LINE",
"55 218 LINE",
"55 0 LINE",
"440 0 LINE",
"440 110 LINE",
"173 110 LINE",
"173 321 LINE",
"280 416 LINE",
"280 505 LINE",
"173 410 LINE"
);
}
);
width = 461;
}
);
unicode = 0141;
},
{
glyphname = M;
lastChange = "2015-02-24 03:04:22 +0000";
layers = (
{
layerId = "F9754C76-BF5B-4405-B8AE-C91642E979E1";
name = Regular;
paths = (
{
closed = 1;
nodes = (
"571 630 LINE",
"448 630 LINE",
"337 217 LINE SMOOTH",
"324 173 OFFCURVE",
"316 75 OFFCURVE",
"316 75 CURVE SMOOTH",
"313 75 LINE SMOOTH",
"313 75 OFFCURVE",
"304 171 OFFCURVE",
"291 217 CURVE SMOOTH",
"180 630 LINE",
"57 630 LINE",
"57 0 LINE",
"130 0 LINE",
"130 458 LINE SMOOTH",
"130 476 OFFCURVE",
"124 555 OFFCURVE",
"124 555 CURVE",
"128 555 LINE",
"134 523 OFFCURVE",
"138 489 OFFCURVE",
"147 458 CURVE SMOOTH",
"274 0 LINE",
"345 0 LINE",
"471 458 LINE SMOOTH",
"480 490 OFFCURVE",
"486 523 OFFCURVE",
"493 555 CURVE",
"496 555 LINE",
"496 555 OFFCURVE",
"490 479 OFFCURVE",
"490 458 CURVE SMOOTH",
"490 0 LINE",
"571 0 LINE"
);
}
);
width = 628;
},
{
layerId = "6F612806-55AD-4202-9302-A343176768ED";
name = Bold;
paths = (
{
closed = 1;
nodes = (
"579 630 LINE",
"419 630 LINE",
"342 283 LINE SMOOTH",
"334 246 OFFCURVE",
"321 140 OFFCURVE",
"321 140 CURVE SMOOTH",
"317 140 LINE SMOOTH",
"317 140 OFFCURVE",
"302 241 OFFCURVE",
"292 283 CURVE SMOOTH",
"214 630 LINE",
"49 630 LINE",
"49 0 LINE",
"149 0 LINE",
"149 401 LINE SMOOTH",
"149 426 OFFCURVE",
"145 503 OFFCURVE",
"145 503 CURVE",
"148 503 LINE",
"155 470 OFFCURVE",
"162 438 OFFCURVE",
"171 405 CURVE SMOOTH",
"259 0 LINE",
"361 0 LINE",
"456 432 LINE SMOOTH",
"462 456 OFFCURVE",
"466 479 OFFCURVE",
"471 503 CURVE",
"475 503 LINE",
"475 503 OFFCURVE",
"471 431 OFFCURVE",
"471 401 CURVE SMOOTH",
"471 0 LINE",
"579 0 LINE"
);
}
);
width = 628;
}
);
unicode = 004D;
},
{
glyphname = N;
lastChange = "2015-02-24 03:04:22 +0000";
layers = (
{
anchors = (
{
name = bottom;
position = "{272, 0}";
},
{
name = top;
position = "{272, 630}";
}
);
layerId = "F9754C76-BF5B-4405-B8AE-C91642E979E1";
name = Regular;
paths = (
{
closed = 1;
nodes = (
"479 630 LINE",
"408 630 LINE",
"408 234 LINE SMOOTH",
"408 214 OFFCURVE",
"410 151 OFFCURVE",
"410 151 CURVE",
"408 150 LINE",
"408 150 OFFCURVE",
"383 210 OFFCURVE",
"368 234 CURVE SMOOTH",
"134 630 LINE",
"64 630 LINE",
"64 0 LINE",
"137 0 LINE",
"137 401 LINE SMOOTH",
"137 427 OFFCURVE",
"133 486 OFFCURVE",
"133 486 CURVE",
"136 487 LINE",
"136 487 OFFCURVE",
"161 428 OFFCURVE",
"177 401 CURVE SMOOTH",
"413 0 LINE",
"479 0 LINE"
);
}
);
width = 544;
},
{
anchors = (
{
name = bottom;
position = "{272, 0}";
},
{
name = top;
position = "{272, 630}";
}
);
layerId = "6F612806-55AD-4202-9302-A343176768ED";
name = Bold;
paths = (
{
closed = 1;
nodes = (
"489 630 LINE",
"385 630 LINE",
"385 280 LINE SMOOTH",
"385 269 OFFCURVE",
"385 227 OFFCURVE",
"385 227 CURVE",
"383 225 LINE",
"383 225 OFFCURVE",
"364 267 OFFCURVE",
"354 283 CURVE SMOOTH",
"159 630 LINE",
"55 630 LINE",
"55 0 LINE",
"159 0 LINE",
"159 352 LINE SMOOTH",
"159 368 OFFCURVE",
"157 404 OFFCURVE",
"157 404 CURVE",
"161 407 LINE",
"161 407 OFFCURVE",
"182 361 OFFCURVE",
"189 347 CURVE SMOOTH",
"385 0 LINE",
"489 0 LINE"
);
}
);
width = 544;
}
);
unicode = 004E;
},
{
glyphname = Nacute;
lastChange = "2015-02-24 03:04:22 +0000";
layers = (
{
layerId = "F9754C76-BF5B-4405-B8AE-C91642E979E1";
name = Regular;
paths = (
{
closed = 1;
nodes = (
"479 630 LINE",
"408 630 LINE",
"408 234 LINE SMOOTH",
"408 214 OFFCURVE",
"410 151 OFFCURVE",
"410 151 CURVE",
"408 150 LINE",
"408 150 OFFCURVE",
"383 210 OFFCURVE",
"368 234 CURVE SMOOTH",
"134 630 LINE",
"64 630 LINE",
"64 0 LINE",
"137 0 LINE",
"137 401 LINE SMOOTH",
"137 427 OFFCURVE",
"133 486 OFFCURVE",
"133 486 CURVE",
"136 487 LINE",
"136 487 OFFCURVE",
"161 428 OFFCURVE",
"177 401 CURVE SMOOTH",
"413 0 LINE",
"479 0 LINE"
);
},
{
closed = 1;
nodes = (
"379 812 LINE",
"296 812 LINE",
"217 691 LINE",
"282 691 LINE",
"380 809 LINE"
);
}
);
width = 544;
},
{
layerId = "6F612806-55AD-4202-9302-A343176768ED";
name = Bold;
paths = (
{
closed = 1;
nodes = (
"489 630 LINE",
"385 630 LINE",
"385 280 LINE SMOOTH",
"385 269 OFFCURVE",
"385 227 OFFCURVE",
"385 227 CURVE",
"383 225 LINE",
"383 225 OFFCURVE",
"364 267 OFFCURVE",
"354 283 CURVE SMOOTH",
"159 630 LINE",
"55 630 LINE",
"55 0 LINE",
"159 0 LINE",
"159 352 LINE SMOOTH",
"159 368 OFFCURVE",
"157 404 OFFCURVE",
"157 404 CURVE",
"161 407 LINE",
"161 407 OFFCURVE",
"182 361 OFFCURVE",
"189 347 CURVE SMOOTH",
"385 0 LINE",
"489 0 LINE"
);
},
{
closed = 1;
nodes = (
"398 812 LINE",
"288 812 LINE",
"209 691 LINE",
"300 691 LINE",
"399 809 LINE"
);
}
);
width = 544;
}
);
unicode = 0143;
},
{
glyphname = Ncaron;
lastChange = "2015-02-24 03:04:22 +0000";
layers = (
{
layerId = "F9754C76-BF5B-4405-B8AE-C91642E979E1";
name = Regular;
paths = (
{
closed = 1;
nodes = (
"479 630 LINE",
"408 630 LINE",
"408 234 LINE SMOOTH",
"408 214 OFFCURVE",
"410 151 OFFCURVE",
"410 151 CURVE",
"408 150 LINE",
"408 150 OFFCURVE",
"383 210 OFFCURVE",
"368 234 CURVE SMOOTH",
"134 630 LINE",
"64 630 LINE",
"64 0 LINE",
"137 0 LINE",
"137 401 LINE SMOOTH",
"137 427 OFFCURVE",
"133 486 OFFCURVE",
"133 486 CURVE",
"136 487 LINE",
"136 487 OFFCURVE",
"161 428 OFFCURVE",
"177 401 CURVE SMOOTH",
"413 0 LINE",
"479 0 LINE"
);
},
{
closed = 1;
nodes = (
"387 812 LINE",
"313 812 LINE",
"272 739 LINE",
"231 812 LINE",
"157 812 LINE",
"235 687 LINE",
"307 687 LINE"
);
}
);
width = 544;
},
{
layerId = "6F612806-55AD-4202-9302-A343176768ED";
name = Bold;
paths = (
{
closed = 1;
nodes = (
"489 630 LINE",
"385 630 LINE",
"385 280 LINE SMOOTH",
"385 269 OFFCURVE",
"385 227 OFFCURVE",
"385 227 CURVE",
"383 225 LINE",
"383 225 OFFCURVE",
"364 267 OFFCURVE",
"354 283 CURVE SMOOTH",
"159 630 LINE",
"55 630 LINE",
"55 0 LINE",
"159 0 LINE",
"159 352 LINE SMOOTH",
"159 368 OFFCURVE",
"157 404 OFFCURVE",
"157 404 CURVE",
"161 407 LINE",
"161 407 OFFCURVE",
"182 361 OFFCURVE",
"189 347 CURVE SMOOTH",
"385 0 LINE",
"489 0 LINE"
);
},
{
closed = 1;
nodes = (
"396 812 LINE",
"313 812 LINE",
"272 749 LINE",
"231 812 LINE",
"149 812 LINE",
"228 687 LINE",
"318 687 LINE"
);
}
);
width = 544;
}
);
unicode = 0147;
},
{
glyphname = Ncommaaccent;
lastChange = "2015-02-24 03:04:22 +0000";
layers = (
{
layerId = "F9754C76-BF5B-4405-B8AE-C91642E979E1";
name = Regular;
paths = (
{
closed = 1;
nodes = (
"479 630 LINE",
"408 630 LINE",
"408 234 LINE SMOOTH",
"408 214 OFFCURVE",
"410 151 OFFCURVE",
"410 151 CURVE",
"408 150 LINE",
"408 150 OFFCURVE",
"383 210 OFFCURVE",
"368 234 CURVE SMOOTH",
"134 630 LINE",
"64 630 LINE",
"64 0 LINE",
"137 0 LINE",
"137 401 LINE SMOOTH",
"137 427 OFFCURVE",
"133 486 OFFCURVE",
"133 486 CURVE",
"136 487 LINE",
"136 487 OFFCURVE",
"161 428 OFFCURVE",
"177 401 CURVE SMOOTH",
"413 0 LINE",
"479 0 LINE"
);
},
{
closed = 1;
nodes = (
"312 -55 LINE",
"233 -55 LINE",
"233 -138 LINE",
"265 -138 LINE",
"243 -204 LINE",
"285 -204 LINE",
"312 -132 LINE"
);
}
);
width = 544;
},
{
layerId = "6F612806-55AD-4202-9302-A343176768ED";
name = Bold;
paths = (
{
closed = 1;
nodes = (
"489 630 LINE",
"385 630 LINE",
"385 280 LINE SMOOTH",
"385 269 OFFCURVE",
"385 227 OFFCURVE",
"385 227 CURVE",
"383 225 LINE",
"383 225 OFFCURVE",
"364 267 OFFCURVE",
"354 283 CURVE SMOOTH",
"159 630 LINE",
"55 630 LINE",
"55 0 LINE",
"159 0 LINE",
"159 352 LINE SMOOTH",
"159 368 OFFCURVE",
"157 404 OFFCURVE",
"157 404 CURVE",
"161 407 LINE",
"161 407 OFFCURVE",
"182 361 OFFCURVE",
"189 347 CURVE SMOOTH",
"385 0 LINE",
"489 0 LINE"
);
},
{
closed = 1;
nodes = (
"329 -51 LINE",
"215 -51 LINE",
"215 -163 LINE",
"260 -163 LINE",
"228 -241 LINE",
"287 -241 LINE",
"329 -154 LINE"
);
}
);
width = 544;
}
);
unicode = 0145;
},
{
glyphname = Eng;
lastChange = "2015-02-24 03:04:22 +0000";
layers = (
{
layerId = "F9754C76-BF5B-4405-B8AE-C91642E979E1";
name = Regular;
paths = (
{
closed = 1;
nodes = (
"479 630 LINE",
"405 630 LINE",
"408 234 LINE SMOOTH",
"408 214 OFFCURVE",
"410 151 OFFCURVE",
"410 151 CURVE",
"408 150 LINE",
"408 150 OFFCURVE",
"383 210 OFFCURVE",
"368 234 CURVE SMOOTH",
"134 630 LINE",
"64 630 LINE",
"64 0 LINE",
"137 0 LINE",
"137 401 LINE SMOOTH",
"137 427 OFFCURVE",
"133 486 OFFCURVE",
"133 486 CURVE",
"136 487 LINE",
"136 487 OFFCURVE",
"161 428 OFFCURVE",
"177 401 CURVE SMOOTH",
"405 14 LINE",
"405 -59 LINE SMOOTH",
"405 -88 OFFCURVE",
"390 -104 OFFCURVE",
"361 -104 CURVE SMOOTH",
"321 -104 LINE",
"321 -156 LINE",
"337 -162 OFFCURVE",
"362 -167 OFFCURVE",
"385 -167 CURVE SMOOTH",
"458 -167 OFFCURVE",
"479 -111 OFFCURVE",
"479 -56 CURVE SMOOTH"
);
}
);
width = 544;
},
{
layerId = "6F612806-55AD-4202-9302-A343176768ED";
name = Bold;
paths = (
{
closed = 1;
nodes = (
"489 630 LINE",
"385 630 LINE",
"385 280 LINE SMOOTH",
"385 269 OFFCURVE",
"385 227 OFFCURVE",
"385 227 CURVE",
"383 225 LINE",
"383 225 OFFCURVE",
"364 267 OFFCURVE",
"354 283 CURVE SMOOTH",
"159 630 LINE",
"55 630 LINE",
"55 0 LINE",
"159 0 LINE",
"159 352 LINE SMOOTH",
"159 368 OFFCURVE",
"157 404 OFFCURVE",
"157 404 CURVE",
"161 407 LINE",
"161 407 OFFCURVE",
"182 361 OFFCURVE",
"189 347 CURVE SMOOTH",
"382 0 LINE",
"382 -30 LINE SMOOTH",
"382 -59 OFFCURVE",
"367 -75 OFFCURVE",
"338 -75 CURVE SMOOTH",
"297 -75 LINE",
"297 -156 LINE",
"316 -162 OFFCURVE",
"349 -167 OFFCURVE",
"376 -167 CURVE SMOOTH",
"465 -167 OFFCURVE",
"489 -102 OFFCURVE",
"489 -37 CURVE SMOOTH"
);
}
);
width = 545;
}
);
unicode = 014A;
},
{
glyphname = Ntilde;
lastChange = "2015-02-24 03:04:22 +0000";
layers = (
{
layerId = "F9754C76-BF5B-4405-B8AE-C91642E979E1";
name = Regular;
paths = (
{
closed = 1;
nodes = (
"479 630 LINE",
"408 630 LINE",
"408 234 LINE SMOOTH",
"408 214 OFFCURVE",
"410 151 OFFCURVE",
"410 151 CURVE",
"408 150 LINE",
"408 150 OFFCURVE",
"383 210 OFFCURVE",
"368 234 CURVE SMOOTH",
"134 630 LINE",
"64 630 LINE",
"64 0 LINE",
"137 0 LINE",
"137 401 LINE SMOOTH",
"137 427 OFFCURVE",
"133 486 OFFCURVE",
"133 486 CURVE",
"136 487 LINE",
"136 487 OFFCURVE",
"161 428 OFFCURVE",
"177 401 CURVE SMOOTH",
"413 0 LINE",
"479 0 LINE"
);
},
{
closed = 1;
nodes = (
"353 812 LINE",
"350 790 OFFCURVE",
"338 784 OFFCURVE",
"321 784 CURVE SMOOTH",
"286 784 OFFCURVE",
"256 812 OFFCURVE",
"216 812 CURVE SMOOTH",
"161 812 OFFCURVE",
"138 758 OFFCURVE",
"138 717 CURVE",
"191 717 LINE",
"194 737 OFFCURVE",
"206 745 OFFCURVE",
"223 745 CURVE SMOOTH",
"258 745 OFFCURVE",
"288 717 OFFCURVE",
"329 717 CURVE SMOOTH",
"384 717 OFFCURVE",
"407 770 OFFCURVE",
"407 812 CURVE"
);
}
);
width = 544;
},
{
layerId = "6F612806-55AD-4202-9302-A343176768ED";
name = Bold;
paths = (
{
closed = 1;
nodes = (
"489 630 LINE",
"385 630 LINE",
"385 280 LINE SMOOTH",
"385 269 OFFCURVE",
"385 227 OFFCURVE",
"385 227 CURVE",
"383 225 LINE",
"383 225 OFFCURVE",
"364 267 OFFCURVE",
"354 283 CURVE SMOOTH",
"159 630 LINE",
"55 630 LINE",
"55 0 LINE",
"159 0 LINE",
"159 352 LINE SMOOTH",
"159 368 OFFCURVE",
"157 404 OFFCURVE",
"157 404 CURVE",
"161 407 LINE",
"161 407 OFFCURVE",
"182 361 OFFCURVE",
"189 347 CURVE SMOOTH",
"385 0 LINE",
"489 0 LINE"
);
},
{
closed = 1;
nodes = (
"366 812 LINE",
"362 786 OFFCURVE",
"349 778 OFFCURVE",
"330 778 CURVE SMOOTH",
"289 778 OFFCURVE",
"253 812 OFFCURVE",
"208 812 CURVE SMOOTH",
"144 812 OFFCURVE",
"118 750 OFFCURVE",
"118 700 CURVE",
"178 700 LINE",
"182 725 OFFCURVE",
"194 733 OFFCURVE",
"214 733 CURVE SMOOTH",
"256 733 OFFCURVE",
"291 700 OFFCURVE",
"336 700 CURVE SMOOTH",
"400 700 OFFCURVE",
"426 761 OFFCURVE",
"426 812 CURVE"
);
}
);
width = 544;
}
);
unicode = 00D1;
},
{
glyphname = O;
lastChange = "2015-02-24 03:04:22 +0000";
layers = (
{
anchors = (
{
name = top;
position = "{293, 630}";
}
);
layerId = "F9754C76-BF5B-4405-B8AE-C91642E979E1";
name = Regular;
paths = (
{
closed = 1;
nodes = (
"138 642 OFFCURVE",
"45 535 OFFCURVE",
"45 315 CURVE SMOOTH",
"45 97 OFFCURVE",
"138 -11 OFFCURVE",
"293 -11 CURVE SMOOTH",
"448 -11 OFFCURVE",
"542 97 OFFCURVE",
"542 315 CURVE SMOOTH",
"542 535 OFFCURVE",
"448 642 OFFCURVE",
"293 642 CURVE SMOOTH"
);
},
{
closed = 1;
nodes = (
"394 567 OFFCURVE",
"457 492 OFFCURVE",
"457 338 CURVE SMOOTH",
"457 292 LINE SMOOTH",
"457 138 OFFCURVE",
"394 63 OFFCURVE",
"293 63 CURVE SMOOTH",
"192 63 OFFCURVE",
"130 138 OFFCURVE",
"130 292 CURVE SMOOTH",
"130 338 LINE SMOOTH",
"130 492 OFFCURVE",
"192 567 OFFCURVE",
"293 567 CURVE SMOOTH"
);
}
);
width = 587;
},
{
anchors = (
{
name = top;
position = "{293, 630}";
}
);
layerId = "6F612806-55AD-4202-9302-A343176768ED";
name = Bold;
paths = (
{
closed = 1;
nodes = (
"131 642 OFFCURVE",
"31 538 OFFCURVE",
"31 315 CURVE SMOOTH",
"31 93 OFFCURVE",
"131 -11 OFFCURVE",
"293 -11 CURVE SMOOTH",
"456 -11 OFFCURVE",
"555 93 OFFCURVE",
"555 315 CURVE SMOOTH",
"555 538 OFFCURVE",
"456 642 OFFCURVE",
"293 642 CURVE SMOOTH"
);
},
{
closed = 1;
nodes = (
"387 541 OFFCURVE",
"434 464 OFFCURVE",
"434 338 CURVE SMOOTH",
"434 292 LINE SMOOTH",
"434 166 OFFCURVE",
"387 90 OFFCURVE",
"293 90 CURVE SMOOTH",
"200 90 OFFCURVE",
"153 166 OFFCURVE",
"153 292 CURVE SMOOTH",
"153 338 LINE SMOOTH",
"153 464 OFFCURVE",
"200 541 OFFCURVE",
"293 541 CURVE SMOOTH"
);
}
);
width = 587;
}
);
unicode = 004F;
},
{
glyphname = Oacute;
lastChange = "2015-02-24 03:04:22 +0000";
layers = (
{
layerId = "F9754C76-BF5B-4405-B8AE-C91642E979E1";
name = Regular;
paths = (
{
closed = 1;
nodes = (
"138 642 OFFCURVE",
"45 535 OFFCURVE",
"45 315 CURVE SMOOTH",
"45 97 OFFCURVE",
"138 -11 OFFCURVE",
"293 -11 CURVE SMOOTH",
"448 -11 OFFCURVE",
"542 97 OFFCURVE",
"542 315 CURVE SMOOTH",
"542 535 OFFCURVE",
"448 642 OFFCURVE",
"293 642 CURVE SMOOTH"
);
},
{
closed = 1;
nodes = (
"394 567 OFFCURVE",
"457 492 OFFCURVE",
"457 338 CURVE SMOOTH",
"457 292 LINE SMOOTH",
"457 138 OFFCURVE",
"394 63 OFFCURVE",
"293 63 CURVE SMOOTH",
"192 63 OFFCURVE",
"130 138 OFFCURVE",
"130 292 CURVE SMOOTH",
"130 338 LINE SMOOTH",
"130 492 OFFCURVE",
"192 567 OFFCURVE",
"293 567 CURVE SMOOTH"
);
},
{
closed = 1;
nodes = (
"400 812 LINE",
"318 812 LINE",
"239 691 LINE",
"303 691 LINE",
"401 809 LINE"
);
}
);
width = 587;
},
{
layerId = "6F612806-55AD-4202-9302-A343176768ED";
name = Bold;
paths = (
{
closed = 1;
nodes = (
"131 642 OFFCURVE",
"31 538 OFFCURVE",
"31 315 CURVE SMOOTH",
"31 93 OFFCURVE",
"131 -11 OFFCURVE",
"293 -11 CURVE SMOOTH",
"456 -11 OFFCURVE",
"555 93 OFFCURVE",
"555 315 CURVE SMOOTH",
"555 538 OFFCURVE",
"456 642 OFFCURVE",
"293 642 CURVE SMOOTH"
);
},
{
closed = 1;
nodes = (
"387 541 OFFCURVE",
"434 464 OFFCURVE",
"434 338 CURVE SMOOTH",
"434 292 LINE SMOOTH",
"434 166 OFFCURVE",
"387 90 OFFCURVE",
"293 90 CURVE SMOOTH",
"200 90 OFFCURVE",
"153 166 OFFCURVE",
"153 292 CURVE SMOOTH",
"153 338 LINE SMOOTH",
"153 464 OFFCURVE",
"200 541 OFFCURVE",
"293 541 CURVE SMOOTH"
);
},
{
closed = 1;
nodes = (
"420 812 LINE",
"309 812 LINE",
"230 691 LINE",
"321 691 LINE",
"421 809 LINE"
);
}
);
width = 587;
}
);
unicode = 00D3;
},
{
glyphname = Obreve;
lastChange = "2015-02-24 03:04:22 +0000";
layers = (
{
layerId = "F9754C76-BF5B-4405-B8AE-C91642E979E1";
name = Regular;
paths = (
{
closed = 1;
nodes = (
"138 642 OFFCURVE",
"45 535 OFFCURVE",
"45 315 CURVE SMOOTH",
"45 97 OFFCURVE",
"138 -11 OFFCURVE",
"293 -11 CURVE SMOOTH",
"448 -11 OFFCURVE",
"542 97 OFFCURVE",
"542 315 CURVE SMOOTH",
"542 535 OFFCURVE",
"448 642 OFFCURVE",
"293 642 CURVE SMOOTH"
);
},
{
closed = 1;
nodes = (
"394 567 OFFCURVE",
"457 492 OFFCURVE",
"457 338 CURVE SMOOTH",
"457 292 LINE SMOOTH",
"457 138 OFFCURVE",
"394 63 OFFCURVE",
"293 63 CURVE SMOOTH",
"192 63 OFFCURVE",
"130 138 OFFCURVE",
"130 292 CURVE SMOOTH",
"130 338 LINE SMOOTH",
"130 492 OFFCURVE",
"192 567 OFFCURVE",
"293 567 CURVE SMOOTH"
);
},
{
closed = 1;
nodes = (
"348 812 LINE",
"346 799 OFFCURVE",
"324 781 OFFCURVE",
"293 781 CURVE SMOOTH",
"263 781 OFFCURVE",
"241 799 OFFCURVE",
"239 812 CURVE",
"180 812 LINE",
"180 771 OFFCURVE",
"224 723 OFFCURVE",
"293 723 CURVE SMOOTH",
"364 723 OFFCURVE",
"408 771 OFFCURVE",
"408 812 CURVE"
);
}
);
width = 587;
},
{
layerId = "6F612806-55AD-4202-9302-A343176768ED";
name = Bold;
paths = (
{
closed = 1;
nodes = (
"131 642 OFFCURVE",
"31 538 OFFCURVE",
"31 315 CURVE SMOOTH",
"31 93 OFFCURVE",
"131 -11 OFFCURVE",
"293 -11 CURVE SMOOTH",
"456 -11 OFFCURVE",
"555 93 OFFCURVE",
"555 315 CURVE SMOOTH",
"555 538 OFFCURVE",
"456 642 OFFCURVE",
"293 642 CURVE SMOOTH"
);
},
{
closed = 1;
nodes = (
"387 541 OFFCURVE",
"434 464 OFFCURVE",
"434 338 CURVE SMOOTH",
"434 292 LINE SMOOTH",
"434 166 OFFCURVE",
"387 90 OFFCURVE",
"293 90 CURVE SMOOTH",
"200 90 OFFCURVE",
"153 166 OFFCURVE",
"153 292 CURVE SMOOTH",
"153 338 LINE SMOOTH",
"153 464 OFFCURVE",
"200 541 OFFCURVE",
"293 541 CURVE SMOOTH"
);
},
{
closed = 1;
nodes = (
"348 812 LINE",
"346 799 OFFCURVE",
"324 781 OFFCURVE",
"293 781 CURVE SMOOTH",
"263 781 OFFCURVE",
"241 799 OFFCURVE",
"239 812 CURVE",
"171 812 LINE",
"171 765 OFFCURVE",
"218 713 OFFCURVE",
"293 713 CURVE SMOOTH",
"369 713 OFFCURVE",
"416 765 OFFCURVE",
"416 812 CURVE"
);
}
);
width = 587;
}
);
unicode = 014E;
},
{
glyphname = Ocircumflex;
lastChange = "2015-02-24 03:04:22 +0000";
layers = (
{
layerId = "F9754C76-BF5B-4405-B8AE-C91642E979E1";
name = Regular;
paths = (
{
closed = 1;
nodes = (
"138 642 OFFCURVE",
"45 535 OFFCURVE",
"45 315 CURVE SMOOTH",
"45 97 OFFCURVE",
"138 -11 OFFCURVE",
"293 -11 CURVE SMOOTH",
"448 -11 OFFCURVE",
"542 97 OFFCURVE",
"542 315 CURVE SMOOTH",
"542 535 OFFCURVE",
"448 642 OFFCURVE",
"293 642 CURVE SMOOTH"
);
},
{
closed = 1;
nodes = (
"394 567 OFFCURVE",
"457 492 OFFCURVE",
"457 338 CURVE SMOOTH",
"457 292 LINE SMOOTH",
"457 138 OFFCURVE",
"394 63 OFFCURVE",
"293 63 CURVE SMOOTH",
"192 63 OFFCURVE",
"130 138 OFFCURVE",
"130 292 CURVE SMOOTH",
"130 338 LINE SMOOTH",
"130 492 OFFCURVE",
"192 567 OFFCURVE",
"293 567 CURVE SMOOTH"
);
},
{
closed = 1;
nodes = (
"408 686 LINE",
"330 811 LINE",
"258 811 LINE",
"179 686 LINE",
"253 686 LINE",
"294 759 LINE",
"335 686 LINE"
);
}
);
width = 587;
},
{
layerId = "6F612806-55AD-4202-9302-A343176768ED";
name = Bold;
paths = (
{
closed = 1;
nodes = (
"131 642 OFFCURVE",
"31 538 OFFCURVE",
"31 315 CURVE SMOOTH",
"31 93 OFFCURVE",
"131 -11 OFFCURVE",
"293 -11 CURVE SMOOTH",
"456 -11 OFFCURVE",
"555 93 OFFCURVE",
"555 315 CURVE SMOOTH",
"555 538 OFFCURVE",
"456 642 OFFCURVE",
"293 642 CURVE SMOOTH"
);
},
{
closed = 1;
nodes = (
"387 541 OFFCURVE",
"434 464 OFFCURVE",
"434 338 CURVE SMOOTH",
"434 292 LINE SMOOTH",
"434 166 OFFCURVE",
"387 90 OFFCURVE",
"293 90 CURVE SMOOTH",
"200 90 OFFCURVE",
"153 166 OFFCURVE",
"153 292 CURVE SMOOTH",
"153 338 LINE SMOOTH",
"153 464 OFFCURVE",
"200 541 OFFCURVE",
"293 541 CURVE SMOOTH"
);
},
{
closed = 1;
nodes = (
"417 687 LINE",
"339 812 LINE",
"250 812 LINE",
"171 687 LINE",
"253 687 LINE",
"294 751 LINE",
"335 687 LINE"
);
}
);
width = 587;
}
);
unicode = 00D4;
},
{
glyphname = Odieresis;
lastChange = "2015-02-24 03:04:22 +0000";
layers = (
{
layerId = "F9754C76-BF5B-4405-B8AE-C91642E979E1";
name = Regular;
paths = (
{
closed = 1;
nodes = (
"138 642 OFFCURVE",
"45 535 OFFCURVE",
"45 315 CURVE SMOOTH",
"45 97 OFFCURVE",
"138 -11 OFFCURVE",
"293 -11 CURVE SMOOTH",
"448 -11 OFFCURVE",
"542 97 OFFCURVE",
"542 315 CURVE SMOOTH",
"542 535 OFFCURVE",
"448 642 OFFCURVE",
"293 642 CURVE SMOOTH"
);
},
{
closed = 1;
nodes = (
"394 567 OFFCURVE",
"457 492 OFFCURVE",
"457 338 CURVE SMOOTH",
"457 292 LINE SMOOTH",
"457 138 OFFCURVE",
"394 63 OFFCURVE",
"293 63 CURVE SMOOTH",
"192 63 OFFCURVE",
"130 138 OFFCURVE",
"130 292 CURVE SMOOTH",
"130 338 LINE SMOOTH",
"130 492 OFFCURVE",
"192 567 OFFCURVE",
"293 567 CURVE SMOOTH"
);
},
{
closed = 1;
nodes = (
"265 812 LINE",
"185 812 LINE",
"185 725 LINE",
"265 725 LINE"
);
},
{
closed = 1;
nodes = (
"402 812 LINE",
"322 812 LINE",
"322 725 LINE",
"402 725 LINE"
);
}
);
width = 587;
},
{
layerId = "6F612806-55AD-4202-9302-A343176768ED";
name = Bold;
paths = (
{
closed = 1;
nodes = (
"131 642 OFFCURVE",
"31 538 OFFCURVE",
"31 315 CURVE SMOOTH",
"31 93 OFFCURVE",
"131 -11 OFFCURVE",
"293 -11 CURVE SMOOTH",
"456 -11 OFFCURVE",
"555 93 OFFCURVE",
"555 315 CURVE SMOOTH",
"555 538 OFFCURVE",
"456 642 OFFCURVE",
"293 642 CURVE SMOOTH"
);
},
{
closed = 1;
nodes = (
"387 541 OFFCURVE",
"434 464 OFFCURVE",
"434 338 CURVE SMOOTH",
"434 292 LINE SMOOTH",
"434 166 OFFCURVE",
"387 90 OFFCURVE",
"293 90 CURVE SMOOTH",
"200 90 OFFCURVE",
"153 166 OFFCURVE",
"153 292 CURVE SMOOTH",
"153 338 LINE SMOOTH",
"153 464 OFFCURVE",
"200 541 OFFCURVE",
"293 541 CURVE SMOOTH"
);
},
{
closed = 1;
nodes = (
"259 812 LINE",
"167 812 LINE",
"167 711 LINE",
"259 711 LINE"
);
},
{
closed = 1;
nodes = (
"420 812 LINE",
"329 812 LINE",
"329 711 LINE",
"420 711 LINE"
);
}
);
width = 587;
}
);
unicode = 00D6;
},
{
glyphname = Ograve;
lastChange = "2015-02-24 03:04:22 +0000";
layers = (
{
layerId = "F9754C76-BF5B-4405-B8AE-C91642E979E1";
name = Regular;
paths = (
{
closed = 1;
nodes = (
"138 642 OFFCURVE",
"45 535 OFFCURVE",
"45 315 CURVE SMOOTH",
"45 97 OFFCURVE",
"138 -11 OFFCURVE",
"293 -11 CURVE SMOOTH",
"448 -11 OFFCURVE",
"542 97 OFFCURVE",
"542 315 CURVE SMOOTH",
"542 535 OFFCURVE",
"448 642 OFFCURVE",
"293 642 CURVE SMOOTH"
);
},
{
closed = 1;
nodes = (
"394 567 OFFCURVE",
"457 492 OFFCURVE",
"457 338 CURVE SMOOTH",
"457 292 LINE SMOOTH",
"457 138 OFFCURVE",
"394 63 OFFCURVE",
"293 63 CURVE SMOOTH",
"192 63 OFFCURVE",
"130 138 OFFCURVE",
"130 292 CURVE SMOOTH",
"130 338 LINE SMOOTH",
"130 492 OFFCURVE",
"192 567 OFFCURVE",
"293 567 CURVE SMOOTH"
);
},
{
closed = 1;
nodes = (
"269 812 LINE",
"186 812 LINE",
"186 809 LINE",
"285 691 LINE",
"348 691 LINE"
);
}
);
width = 587;
},
{
layerId = "6F612806-55AD-4202-9302-A343176768ED";
name = Bold;
paths = (
{
closed = 1;
nodes = (
"131 642 OFFCURVE",
"31 538 OFFCURVE",
"31 315 CURVE SMOOTH",
"31 93 OFFCURVE",
"131 -11 OFFCURVE",
"293 -11 CURVE SMOOTH",
"456 -11 OFFCURVE",
"555 93 OFFCURVE",
"555 315 CURVE SMOOTH",
"555 538 OFFCURVE",
"456 642 OFFCURVE",
"293 642 CURVE SMOOTH"
);
},
{
closed = 1;
nodes = (
"387 541 OFFCURVE",
"434 464 OFFCURVE",
"434 338 CURVE SMOOTH",
"434 292 LINE SMOOTH",
"434 166 OFFCURVE",
"387 90 OFFCURVE",
"293 90 CURVE SMOOTH",
"200 90 OFFCURVE",
"153 166 OFFCURVE",
"153 292 CURVE SMOOTH",
"153 338 LINE SMOOTH",
"153 464 OFFCURVE",
"200 541 OFFCURVE",
"293 541 CURVE SMOOTH"
);
},
{
closed = 1;
nodes = (
"278 812 LINE",
"167 812 LINE",
"166 809 LINE",
"265 691 LINE",
"357 691 LINE"
);
}
);
width = 587;
}
);
unicode = 00D2;
},
{
glyphname = Ohungarumlaut;
lastChange = "2015-02-24 03:04:22 +0000";
layers = (
{
layerId = "F9754C76-BF5B-4405-B8AE-C91642E979E1";
name = Regular;
paths = (
{
closed = 1;
nodes = (
"138 642 OFFCURVE",
"45 535 OFFCURVE",
"45 315 CURVE SMOOTH",
"45 97 OFFCURVE",
"138 -11 OFFCURVE",
"293 -11 CURVE SMOOTH",
"448 -11 OFFCURVE",
"542 97 OFFCURVE",
"542 315 CURVE SMOOTH",
"542 535 OFFCURVE",
"448 642 OFFCURVE",
"293 642 CURVE SMOOTH"
);
},
{
closed = 1;
nodes = (
"394 567 OFFCURVE",
"457 492 OFFCURVE",
"457 338 CURVE SMOOTH",
"457 292 LINE SMOOTH",
"457 138 OFFCURVE",
"394 63 OFFCURVE",
"293 63 CURVE SMOOTH",
"192 63 OFFCURVE",
"130 138 OFFCURVE",
"130 292 CURVE SMOOTH",
"130 338 LINE SMOOTH",
"130 492 OFFCURVE",
"192 567 OFFCURVE",
"293 567 CURVE SMOOTH"
);
},
{
closed = 1;
nodes = (
"344 812 LINE",
"263 812 LINE",
"206 691 LINE",
"268 691 LINE",
"345 809 LINE"
);
},
{
closed = 1;
nodes = (
"465 812 LINE",
"383 812 LINE",
"326 691 LINE",
"389 691 LINE",
"466 809 LINE"
);
}
);
width = 587;
},
{
layerId = "6F612806-55AD-4202-9302-A343176768ED";
name = Bold;
paths = (
{
closed = 1;
nodes = (
"131 642 OFFCURVE",
"31 538 OFFCURVE",
"31 315 CURVE SMOOTH",
"31 93 OFFCURVE",
"131 -11 OFFCURVE",
"293 -11 CURVE SMOOTH",
"456 -11 OFFCURVE",
"555 93 OFFCURVE",
"555 315 CURVE SMOOTH",
"555 538 OFFCURVE",
"456 642 OFFCURVE",
"293 642 CURVE SMOOTH"
);
},
{
closed = 1;
nodes = (
"387 541 OFFCURVE",
"434 464 OFFCURVE",
"434 338 CURVE SMOOTH",
"434 292 LINE SMOOTH",
"434 166 OFFCURVE",
"387 90 OFFCURVE",
"293 90 CURVE SMOOTH",
"200 90 OFFCURVE",
"153 166 OFFCURVE",
"153 292 CURVE SMOOTH",
"153 338 LINE SMOOTH",
"153 464 OFFCURVE",
"200 541 OFFCURVE",
"293 541 CURVE SMOOTH"
);
},
{
closed = 1;
nodes = (
"339 812 LINE",
"248 812 LINE",
"190 691 LINE",
"263 691 LINE",
"340 809 LINE"
);
},
{
closed = 1;
nodes = (
"468 812 LINE",
"376 812 LINE",
"319 691 LINE",
"392 691 LINE",
"469 809 LINE"
);
}
);
width = 587;
}
);
unicode = 0150;
},
{
glyphname = Omacron;
lastChange = "2015-02-24 03:04:22 +0000";
layers = (
{
layerId = "F9754C76-BF5B-4405-B8AE-C91642E979E1";
name = Regular;
paths = (
{
closed = 1;
nodes = (
"138 642 OFFCURVE",
"45 535 OFFCURVE",
"45 315 CURVE SMOOTH",
"45 97 OFFCURVE",
"138 -11 OFFCURVE",
"293 -11 CURVE SMOOTH",
"448 -11 OFFCURVE",
"542 97 OFFCURVE",
"542 315 CURVE SMOOTH",
"542 535 OFFCURVE",
"448 642 OFFCURVE",
"293 642 CURVE SMOOTH"
);
},
{
closed = 1;
nodes = (
"394 567 OFFCURVE",
"457 492 OFFCURVE",
"457 338 CURVE SMOOTH",
"457 292 LINE SMOOTH",
"457 138 OFFCURVE",
"394 63 OFFCURVE",
"293 63 CURVE SMOOTH",
"192 63 OFFCURVE",
"130 138 OFFCURVE",
"130 292 CURVE SMOOTH",
"130 338 LINE SMOOTH",
"130 492 OFFCURVE",
"192 567 OFFCURVE",
"293 567 CURVE SMOOTH"
);
},
{
closed = 1;
nodes = (
"409 698 LINE",
"409 764 LINE",
"178 764 LINE",
"178 698 LINE"
);
}
);
width = 587;
},
{
layerId = "6F612806-55AD-4202-9302-A343176768ED";
name = Bold;
paths = (
{
closed = 1;
nodes = (
"131 642 OFFCURVE",
"31 538 OFFCURVE",
"31 315 CURVE SMOOTH",
"31 93 OFFCURVE",
"131 -11 OFFCURVE",
"293 -11 CURVE SMOOTH",
"456 -11 OFFCURVE",
"555 93 OFFCURVE",
"555 315 CURVE SMOOTH",
"555 538 OFFCURVE",
"456 642 OFFCURVE",
"293 642 CURVE SMOOTH"
);
},
{
closed = 1;
nodes = (
"387 541 OFFCURVE",
"434 464 OFFCURVE",
"434 338 CURVE SMOOTH",
"434 292 LINE SMOOTH",
"434 166 OFFCURVE",
"387 90 OFFCURVE",
"293 90 CURVE SMOOTH",
"200 90 OFFCURVE",
"153 166 OFFCURVE",
"153 292 CURVE SMOOTH",
"153 338 LINE SMOOTH",
"153 464 OFFCURVE",
"200 541 OFFCURVE",
"293 541 CURVE SMOOTH"
);
},
{
closed = 1;
nodes = (
"411 698 LINE",
"411 778 LINE",
"177 778 LINE",
"177 698 LINE"
);
}
);
width = 587;
}
);
unicode = 014C;
},
{
glyphname = Oslash;
lastChange = "2015-02-24 03:04:22 +0000";
layers = (
{
anchors = (
{
name = top;
position = "{293, 630}";
}
);
layerId = "F9754C76-BF5B-4405-B8AE-C91642E979E1";
name = Regular;
paths = (
{
closed = 1;
nodes = (
"542 665 LINE",
"483 665 LINE",
"440 596 LINE",
"400 626 OFFCURVE",
"352 642 OFFCURVE",
"293 642 CURVE SMOOTH",
"138 642 OFFCURVE",
"45 535 OFFCURVE",
"45 315 CURVE SMOOTH",
"45 206 OFFCURVE",
"68 124 OFFCURVE",
"111 70 CURVE",
"46 -34 LINE",
"105 -34 LINE",
"147 34 LINE",
"186 4 OFFCURVE",
"235 -11 OFFCURVE",
"293 -11 CURVE SMOOTH",
"448 -11 OFFCURVE",
"542 97 OFFCURVE",
"542 315 CURVE SMOOTH",
"542 424 OFFCURVE",
"518 505 OFFCURVE",
"475 560 CURVE"
);
},
{
closed = 1;
nodes = (
"428 485 LINE",
"447 448 OFFCURVE",
"457 399 OFFCURVE",
"457 338 CURVE SMOOTH",
"457 292 LINE SMOOTH",
"457 138 OFFCURVE",
"394 63 OFFCURVE",
"293 63 CURVE SMOOTH",
"251 63 OFFCURVE",
"216 76 OFFCURVE",
"189 102 CURVE"
);
},
{
closed = 1;
nodes = (
"335 567 OFFCURVE",
"369 554 OFFCURVE",
"397 527 CURVE",
"158 146 LINE",
"139 182 OFFCURVE",
"130 231 OFFCURVE",
"130 292 CURVE SMOOTH",
"130 338 LINE SMOOTH",
"130 492 OFFCURVE",
"192 567 OFFCURVE",
"293 567 CURVE SMOOTH"
);
}
);
width = 587;
},
{
anchors = (
{
name = top;
position = "{293, 630}";
}
);
layerId = "6F612806-55AD-4202-9302-A343176768ED";
name = Bold;
paths = (
{
closed = 1;
nodes = (
"551 665 LINE",
"473 665 LINE",
"436 605 LINE",
"396 630 OFFCURVE",
"348 642 OFFCURVE",
"293 642 CURVE SMOOTH",
"131 642 OFFCURVE",
"31 538 OFFCURVE",
"31 315 CURVE SMOOTH",
"31 204 OFFCURVE",
"56 123 OFFCURVE",
"101 69 CURVE",
"36 -34 LINE",
"114 -34 LINE",
"151 25 LINE",
"190 1 OFFCURVE",
"238 -11 OFFCURVE",
"293 -11 CURVE SMOOTH",
"456 -11 OFFCURVE",
"555 93 OFFCURVE",
"555 315 CURVE SMOOTH",
"555 425 OFFCURVE",
"530 508 OFFCURVE",
"486 561 CURVE"
);
},
{
closed = 1;
nodes = (
"416 450 LINE",
"428 420 OFFCURVE",
"434 382 OFFCURVE",
"434 338 CURVE SMOOTH",
"434 292 LINE SMOOTH",
"434 166 OFFCURVE",
"387 90 OFFCURVE",
"293 90 CURVE SMOOTH",
"259 90 OFFCURVE",
"231 100 OFFCURVE",
"210 119 CURVE"
);
},
{
closed = 1;
nodes = (
"328 541 OFFCURVE",
"356 530 OFFCURVE",
"376 512 CURVE",
"170 178 LINE",
"158 210 OFFCURVE",
"153 249 OFFCURVE",
"153 292 CURVE SMOOTH",
"153 338 LINE SMOOTH",
"153 464 OFFCURVE",
"200 541 OFFCURVE",
"293 541 CURVE SMOOTH"
);
}
);
width = 587;
}
);
unicode = 00D8;
},
{
glyphname = Oslashacute;
lastChange = "2015-02-24 03:04:22 +0000";
layers = (
{
layerId = "F9754C76-BF5B-4405-B8AE-C91642E979E1";
name = Regular;
paths = (
{
closed = 1;
nodes = (
"542 665 LINE",
"483 665 LINE",
"440 596 LINE",
"400 626 OFFCURVE",
"352 642 OFFCURVE",
"293 642 CURVE SMOOTH",
"138 642 OFFCURVE",
"45 535 OFFCURVE",
"45 315 CURVE SMOOTH",
"45 206 OFFCURVE",
"68 124 OFFCURVE",
"111 70 CURVE",
"46 -34 LINE",
"105 -34 LINE",
"147 34 LINE",
"186 4 OFFCURVE",
"235 -11 OFFCURVE",
"293 -11 CURVE SMOOTH",
"448 -11 OFFCURVE",
"542 97 OFFCURVE",
"542 315 CURVE SMOOTH",
"542 424 OFFCURVE",
"518 505 OFFCURVE",
"475 560 CURVE"
);
},
{
closed = 1;
nodes = (
"428 485 LINE",
"447 448 OFFCURVE",
"457 399 OFFCURVE",
"457 338 CURVE SMOOTH",
"457 292 LINE SMOOTH",
"457 138 OFFCURVE",
"394 63 OFFCURVE",
"293 63 CURVE SMOOTH",
"251 63 OFFCURVE",
"216 76 OFFCURVE",
"189 102 CURVE"
);
},
{
closed = 1;
nodes = (
"335 567 OFFCURVE",
"369 554 OFFCURVE",
"397 527 CURVE",
"158 146 LINE",
"139 182 OFFCURVE",
"130 231 OFFCURVE",
"130 292 CURVE SMOOTH",
"130 338 LINE SMOOTH",
"130 492 OFFCURVE",
"192 567 OFFCURVE",
"293 567 CURVE SMOOTH"
);
},
{
closed = 1;
nodes = (
"400 812 LINE",
"318 812 LINE",
"239 691 LINE",
"303 691 LINE",
"401 809 LINE"
);
}
);
width = 587;
},
{
layerId = "6F612806-55AD-4202-9302-A343176768ED";
name = Bold;
paths = (
{
closed = 1;
nodes = (
"551 665 LINE",
"473 665 LINE",
"436 605 LINE",
"396 630 OFFCURVE",
"348 642 OFFCURVE",
"293 642 CURVE SMOOTH",
"131 642 OFFCURVE",
"31 538 OFFCURVE",
"31 315 CURVE SMOOTH",
"31 204 OFFCURVE",
"56 123 OFFCURVE",
"101 69 CURVE",
"36 -34 LINE",
"114 -34 LINE",
"151 25 LINE",
"190 1 OFFCURVE",
"238 -11 OFFCURVE",
"293 -11 CURVE SMOOTH",
"456 -11 OFFCURVE",
"555 93 OFFCURVE",
"555 315 CURVE SMOOTH",
"555 425 OFFCURVE",
"530 508 OFFCURVE",
"486 561 CURVE"
);
},
{
closed = 1;
nodes = (
"416 450 LINE",
"428 420 OFFCURVE",
"434 382 OFFCURVE",
"434 338 CURVE SMOOTH",
"434 292 LINE SMOOTH",
"434 166 OFFCURVE",
"387 90 OFFCURVE",
"293 90 CURVE SMOOTH",
"259 90 OFFCURVE",
"231 100 OFFCURVE",
"210 119 CURVE"
);
},
{
closed = 1;
nodes = (
"328 541 OFFCURVE",
"356 530 OFFCURVE",
"376 512 CURVE",
"170 178 LINE",
"158 210 OFFCURVE",
"153 249 OFFCURVE",
"153 292 CURVE SMOOTH",
"153 338 LINE SMOOTH",
"153 464 OFFCURVE",
"200 541 OFFCURVE",
"293 541 CURVE SMOOTH"
);
},
{
closed = 1;
nodes = (
"420 812 LINE",
"309 812 LINE",
"230 691 LINE",
"321 691 LINE",
"421 809 LINE"
);
}
);
width = 587;
}
);
unicode = 01FE;
},
{
glyphname = Otilde;
lastChange = "2015-02-24 03:04:22 +0000";
layers = (
{
layerId = "F9754C76-BF5B-4405-B8AE-C91642E979E1";
name = Regular;
paths = (
{
closed = 1;
nodes = (
"138 642 OFFCURVE",
"45 535 OFFCURVE",
"45 315 CURVE SMOOTH",
"45 97 OFFCURVE",
"138 -11 OFFCURVE",
"293 -11 CURVE SMOOTH",
"448 -11 OFFCURVE",
"542 97 OFFCURVE",
"542 315 CURVE SMOOTH",
"542 535 OFFCURVE",
"448 642 OFFCURVE",
"293 642 CURVE SMOOTH"
);
},
{
closed = 1;
nodes = (
"394 567 OFFCURVE",
"457 492 OFFCURVE",
"457 338 CURVE SMOOTH",
"457 292 LINE SMOOTH",
"457 138 OFFCURVE",
"394 63 OFFCURVE",
"293 63 CURVE SMOOTH",
"192 63 OFFCURVE",
"130 138 OFFCURVE",
"130 292 CURVE SMOOTH",
"130 338 LINE SMOOTH",
"130 492 OFFCURVE",
"192 567 OFFCURVE",
"293 567 CURVE SMOOTH"
);
},
{
closed = 1;
nodes = (
"374 812 LINE",
"371 790 OFFCURVE",
"360 784 OFFCURVE",
"343 784 CURVE SMOOTH",
"307 784 OFFCURVE",
"277 812 OFFCURVE",
"237 812 CURVE SMOOTH",
"182 812 OFFCURVE",
"159 758 OFFCURVE",
"159 717 CURVE",
"212 717 LINE",
"215 737 OFFCURVE",
"227 745 OFFCURVE",
"243 745 CURVE SMOOTH",
"280 745 OFFCURVE",
"310 717 OFFCURVE",
"349 717 CURVE SMOOTH",
"405 717 OFFCURVE",
"427 770 OFFCURVE",
"427 812 CURVE"
);
}
);
width = 587;
},
{
layerId = "6F612806-55AD-4202-9302-A343176768ED";
name = Bold;
paths = (
{
closed = 1;
nodes = (
"131 642 OFFCURVE",
"31 538 OFFCURVE",
"31 315 CURVE SMOOTH",
"31 93 OFFCURVE",
"131 -11 OFFCURVE",
"293 -11 CURVE SMOOTH",
"456 -11 OFFCURVE",
"555 93 OFFCURVE",
"555 315 CURVE SMOOTH",
"555 538 OFFCURVE",
"456 642 OFFCURVE",
"293 642 CURVE SMOOTH"
);
},
{
closed = 1;
nodes = (
"387 541 OFFCURVE",
"434 464 OFFCURVE",
"434 338 CURVE SMOOTH",
"434 292 LINE SMOOTH",
"434 166 OFFCURVE",
"387 90 OFFCURVE",
"293 90 CURVE SMOOTH",
"200 90 OFFCURVE",
"153 166 OFFCURVE",
"153 292 CURVE SMOOTH",
"153 338 LINE SMOOTH",
"153 464 OFFCURVE",
"200 541 OFFCURVE",
"293 541 CURVE SMOOTH"
);
},
{
closed = 1;
nodes = (
"387 812 LINE",
"384 786 OFFCURVE",
"371 778 OFFCURVE",
"353 778 CURVE SMOOTH",
"310 778 OFFCURVE",
"275 812 OFFCURVE",
"230 812 CURVE SMOOTH",
"165 812 OFFCURVE",
"138 750 OFFCURVE",
"138 700 CURVE",
"201 700 LINE",
"204 725 OFFCURVE",
"216 733 OFFCURVE",
"236 733 CURVE SMOOTH",
"278 733 OFFCURVE",
"313 700 OFFCURVE",
"358 700 CURVE SMOOTH",
"422 700 OFFCURVE",
"448 761 OFFCURVE",
"448 812 CURVE"
);
}
);
width = 587;
}
);
unicode = 00D5;
},
{
glyphname = OE;
lastChange = "2015-02-24 03:04:22 +0000";
layers = (
{
anchors = (
{
name = top;
position = "{376, 630}";
}
);
layerId = "F9754C76-BF5B-4405-B8AE-C91642E979E1";
name = Regular;
paths = (
{
closed = 1;
nodes = (
"122 642 OFFCURVE",
"45 535 OFFCURVE",
"45 315 CURVE SMOOTH",
"45 97 OFFCURVE",
"122 -11 OFFCURVE",
"251 -11 CURVE SMOOTH",
"310 -11 OFFCURVE",
"357 12 OFFCURVE",
"391 62 CURVE",
"391 0 LINE",
"721 0 LINE",
"721 74 LINE",
"471 74 LINE",
"471 286 LINE",
"674 286 LINE",
"674 360 LINE",
"471 360 LINE",
"471 557 LINE",
"716 557 LINE",
"716 630 LINE",
"391 630 LINE",
"391 568 LINE",
"357 617 OFFCURVE",
"310 642 OFFCURVE",
"251 642 CURVE SMOOTH"
);
},
{
closed = 1;
nodes = (
"341 567 OFFCURVE",
"391 492 OFFCURVE",
"391 338 CURVE SMOOTH",
"391 292 LINE SMOOTH",
"391 138 OFFCURVE",
"341 63 OFFCURVE",
"260 63 CURVE SMOOTH",
"179 63 OFFCURVE",
"130 138 OFFCURVE",
"130 292 CURVE SMOOTH",
"130 338 LINE SMOOTH",
"130 492 OFFCURVE",
"179 567 OFFCURVE",
"260 567 CURVE SMOOTH"
);
}
);
width = 754;
},
{
anchors = (
{
name = top;
position = "{376, 630}";
}
);
layerId = "6F612806-55AD-4202-9302-A343176768ED";
name = Bold;
paths = (
{
closed = 1;
nodes = (
"107 642 OFFCURVE",
"28 538 OFFCURVE",
"28 315 CURVE SMOOTH",
"28 93 OFFCURVE",
"107 -11 OFFCURVE",
"237 -11 CURVE SMOOTH",
"293 -11 OFFCURVE",
"340 10 OFFCURVE",
"375 56 CURVE",
"375 0 LINE",
"728 0 LINE",
"728 105 LINE",
"493 105 LINE",
"493 270 LINE",
"682 270 LINE",
"682 375 LINE",
"493 375 LINE",
"493 526 LINE",
"722 526 LINE",
"722 630 LINE",
"375 630 LINE",
"375 574 LINE",
"340 620 OFFCURVE",
"293 642 OFFCURVE",
"237 642 CURVE SMOOTH"
);
},
{
closed = 1;
nodes = (
"337 541 OFFCURVE",
"374 483 OFFCURVE",
"374 338 CURVE SMOOTH",
"374 292 LINE SMOOTH",
"374 148 OFFCURVE",
"337 90 OFFCURVE",
"261 90 CURVE SMOOTH",
"186 90 OFFCURVE",
"149 148 OFFCURVE",
"149 292 CURVE SMOOTH",
"149 338 LINE SMOOTH",
"149 483 OFFCURVE",
"186 541 OFFCURVE",
"261 541 CURVE SMOOTH"
);
}
);
width = 754;
}
);
unicode = 0152;
},
{
glyphname = P;
lastChange = "2015-02-24 03:04:22 +0000";
layers = (
{
layerId = "F9754C76-BF5B-4405-B8AE-C91642E979E1";
name = Regular;
paths = (
{
closed = 1;
nodes = (
"146 260 LINE",
"289 260 LINE SMOOTH",
"407 260 OFFCURVE",
"478 336 OFFCURVE",
"478 447 CURVE SMOOTH",
"478 556 OFFCURVE",
"414 630 OFFCURVE",
"289 630 CURVE SMOOTH",
"64 630 LINE",
"64 0 LINE",
"146 0 LINE"
);
},
{
closed = 1;
nodes = (
"146 557 LINE",
"287 557 LINE SMOOTH",
"356 557 OFFCURVE",
"393 515 OFFCURVE",
"393 447 CURVE SMOOTH",
"393 379 OFFCURVE",
"352 334 OFFCURVE",
"287 334 CURVE SMOOTH",
"146 334 LINE"
);
}
);
width = 503;
},
{
layerId = "6F612806-55AD-4202-9302-A343176768ED";
name = Bold;
paths = (
{
closed = 1;
nodes = (
"173 244 LINE",
"281 244 LINE SMOOTH",
"399 244 OFFCURVE",
"478 322 OFFCURVE",
"478 441 CURVE SMOOTH",
"478 551 OFFCURVE",
"411 630 OFFCURVE",
"281 630 CURVE SMOOTH",
"55 630 LINE",
"55 0 LINE",
"173 0 LINE"
);
},
{
closed = 1;
nodes = (
"173 526 LINE",
"268 526 LINE SMOOTH",
"324 526 OFFCURVE",
"357 493 OFFCURVE",
"357 441 CURVE SMOOTH",
"357 384 OFFCURVE",
"326 348 OFFCURVE",
"268 348 CURVE SMOOTH",
"173 348 LINE"
);
}
);
width = 503;
}
);
unicode = 0050;
},
{
glyphname = Thorn;
lastChange = "2015-02-24 03:04:22 +0000";
layers = (
{
layerId = "F9754C76-BF5B-4405-B8AE-C91642E979E1";
name = Regular;
paths = (
{
closed = 1;
nodes = (
"146 630 LINE",
"64 630 LINE",
"64 0 LINE",
"146 0 LINE",
"146 135 LINE",
"289 135 LINE SMOOTH",
"407 135 OFFCURVE",
"478 210 OFFCURVE",
"478 321 CURVE SMOOTH",
"478 432 OFFCURVE",
"414 505 OFFCURVE",
"289 505 CURVE SMOOTH",
"146 505 LINE"
);
},
{
closed = 1;
nodes = (
"287 432 LINE",
"356 432 OFFCURVE",
"393 390 OFFCURVE",
"393 321 CURVE SMOOTH",
"393 254 OFFCURVE",
"352 209 OFFCURVE",
"287 209 CURVE SMOOTH",
"146 209 LINE",
"146 432 LINE"
);
}
);
width = 503;
},
{
layerId = "6F612806-55AD-4202-9302-A343176768ED";
name = Bold;
paths = (
{
closed = 1;
nodes = (
"173 630 LINE",
"55 630 LINE",
"55 0 LINE",
"173 0 LINE",
"173 132 LINE",
"281 132 LINE SMOOTH",
"399 132 OFFCURVE",
"478 210 OFFCURVE",
"478 329 CURVE SMOOTH",
"478 439 OFFCURVE",
"411 519 OFFCURVE",
"281 519 CURVE SMOOTH",
"173 519 LINE"
);
},
{
closed = 1;
nodes = (
"268 414 LINE",
"324 414 OFFCURVE",
"357 381 OFFCURVE",
"357 329 CURVE SMOOTH",
"357 271 OFFCURVE",
"326 236 OFFCURVE",
"268 236 CURVE SMOOTH",
"173 236 LINE",
"173 414 LINE"
);
}
);
width = 503;
}
);
unicode = 00DE;
},
{
glyphname = Q;
lastChange = "2015-02-24 03:04:22 +0000";
layers = (
{
layerId = "F9754C76-BF5B-4405-B8AE-C91642E979E1";
name = Regular;
paths = (
{
closed = 1;
nodes = (
"45 97 OFFCURVE",
"138 -11 OFFCURVE",
"293 -11 CURVE SMOOTH",
"305 -11 LINE",
"414 -114 LINE",
"522 -114 LINE",
"392 6 LINE",
"487 45 OFFCURVE",
"542 148 OFFCURVE",
"542 315 CURVE SMOOTH",
"542 535 OFFCURVE",
"448 642 OFFCURVE",
"293 642 CURVE SMOOTH",
"138 642 OFFCURVE",
"45 535 OFFCURVE",
"45 315 CURVE SMOOTH"
);
},
{
closed = 1;
nodes = (
"130 338 LINE",
"130 492 OFFCURVE",
"192 567 OFFCURVE",
"293 567 CURVE SMOOTH",
"394 567 OFFCURVE",
"457 492 OFFCURVE",
"457 338 CURVE SMOOTH",
"457 292 LINE SMOOTH",
"457 138 OFFCURVE",
"394 63 OFFCURVE",
"293 63 CURVE SMOOTH",
"192 63 OFFCURVE",
"130 138 OFFCURVE",
"130 292 CURVE SMOOTH"
);
}
);
width = 587;
},
{
layerId = "6F612806-55AD-4202-9302-A343176768ED";
name = Bold;
paths = (
{
closed = 1;
nodes = (
"31 93 OFFCURVE",
"131 -11 OFFCURVE",
"293 -11 CURVE SMOOTH",
"305 -11 LINE",
"395 -114 LINE",
"540 -114 LINE",
"418 16 LINE",
"504 59 OFFCURVE",
"555 157 OFFCURVE",
"555 315 CURVE SMOOTH",
"555 538 OFFCURVE",
"456 642 OFFCURVE",
"293 642 CURVE SMOOTH",
"131 642 OFFCURVE",
"31 538 OFFCURVE",
"31 315 CURVE SMOOTH"
);
},
{
closed = 1;
nodes = (
"153 338 LINE",
"153 464 OFFCURVE",
"200 541 OFFCURVE",
"293 541 CURVE SMOOTH",
"387 541 OFFCURVE",
"434 464 OFFCURVE",
"434 338 CURVE SMOOTH",
"434 292 LINE SMOOTH",
"434 166 OFFCURVE",
"387 90 OFFCURVE",
"293 90 CURVE SMOOTH",
"200 90 OFFCURVE",
"153 166 OFFCURVE",
"153 292 CURVE SMOOTH"
);
}
);
width = 587;
}
);
unicode = 0051;
},
{
glyphname = R;
lastChange = "2015-02-24 03:04:22 +0000";
layers = (
{
anchors = (
{
name = bottom;
position = "{272, 0}";
},
{
name = top;
position = "{272, 630}";
}
);
layerId = "F9754C76-BF5B-4405-B8AE-C91642E979E1";
name = Regular;
paths = (
{
closed = 1;
nodes = (
"64 630 LINE",
"64 0 LINE",
"146 0 LINE",
"146 279 LINE",
"314 279 LINE",
"432 0 LINE",
"521 0 LINE",
"394 293 LINE",
"465 317 OFFCURVE",
"506 378 OFFCURVE",
"506 456 CURVE SMOOTH",
"506 560 OFFCURVE",
"442 630 OFFCURVE",
"318 630 CURVE SMOOTH"
);
},
{
closed = 1;
nodes = (
"315 557 LINE",
"385 557 OFFCURVE",
"422 519 OFFCURVE",
"422 456 CURVE SMOOTH",
"422 393 OFFCURVE",
"380 353 OFFCURVE",
"315 353 CURVE SMOOTH",
"146 353 LINE",
"146 557 LINE"
);
}
);
width = 544;
},
{
anchors = (
{
name = bottom;
position = "{272, 0}";
},
{
name = top;
position = "{272, 630}";
}
);
layerId = "6F612806-55AD-4202-9302-A343176768ED";
name = Bold;
paths = (
{
closed = 1;
nodes = (
"55 630 LINE",
"55 0 LINE",
"173 0 LINE",
"173 263 LINE",
"295 263 LINE",
"400 0 LINE",
"527 0 LINE",
"407 289 LINE",
"471 315 OFFCURVE",
"512 374 OFFCURVE",
"512 450 CURVE SMOOTH",
"512 554 OFFCURVE",
"447 630 OFFCURVE",
"319 630 CURVE SMOOTH"
);
},
{
closed = 1;
nodes = (
"307 526 LINE",
"361 526 OFFCURVE",
"385 496 OFFCURVE",
"385 450 CURVE SMOOTH",
"385 398 OFFCURVE",
"360 367 OFFCURVE",
"303 367 CURVE SMOOTH",
"173 367 LINE",
"173 526 LINE"
);
}
);
width = 544;
}
);
unicode = 0052;
},
{
glyphname = Racute;
lastChange = "2015-02-24 03:04:22 +0000";
layers = (
{
layerId = "F9754C76-BF5B-4405-B8AE-C91642E979E1";
name = Regular;
paths = (
{
closed = 1;
nodes = (
"64 630 LINE",
"64 0 LINE",
"146 0 LINE",
"146 279 LINE",
"314 279 LINE",
"432 0 LINE",
"521 0 LINE",
"394 293 LINE",
"465 317 OFFCURVE",
"506 378 OFFCURVE",
"506 456 CURVE SMOOTH",
"506 560 OFFCURVE",
"442 630 OFFCURVE",
"318 630 CURVE SMOOTH"
);
},
{
closed = 1;
nodes = (
"315 557 LINE",
"385 557 OFFCURVE",
"422 519 OFFCURVE",
"422 456 CURVE SMOOTH",
"422 393 OFFCURVE",
"380 353 OFFCURVE",
"315 353 CURVE SMOOTH",
"146 353 LINE",
"146 557 LINE"
);
},
{
closed = 1;
nodes = (
"359 812 LINE",
"276 812 LINE",
"197 691 LINE",
"261 691 LINE",
"360 809 LINE"
);
}
);
width = 544;
},
{
layerId = "6F612806-55AD-4202-9302-A343176768ED";
name = Bold;
paths = (
{
closed = 1;
nodes = (
"55 630 LINE",
"55 0 LINE",
"173 0 LINE",
"173 263 LINE",
"295 263 LINE",
"400 0 LINE",
"527 0 LINE",
"407 289 LINE",
"471 315 OFFCURVE",
"512 374 OFFCURVE",
"512 450 CURVE SMOOTH",
"512 554 OFFCURVE",
"447 630 OFFCURVE",
"319 630 CURVE SMOOTH"
);
},
{
closed = 1;
nodes = (
"307 526 LINE",
"361 526 OFFCURVE",
"385 496 OFFCURVE",
"385 450 CURVE SMOOTH",
"385 398 OFFCURVE",
"360 367 OFFCURVE",
"303 367 CURVE SMOOTH",
"173 367 LINE",
"173 526 LINE"
);
},
{
closed = 1;
nodes = (
"398 812 LINE",
"288 812 LINE",
"209 691 LINE",
"300 691 LINE",
"399 809 LINE"
);
}
);
width = 544;
}
);
unicode = 0154;
},
{
glyphname = Rcaron;
lastChange = "2015-02-24 03:04:22 +0000";
layers = (
{
layerId = "F9754C76-BF5B-4405-B8AE-C91642E979E1";
name = Regular;
paths = (
{
closed = 1;
nodes = (
"64 630 LINE",
"64 0 LINE",
"146 0 LINE",
"146 279 LINE",
"314 279 LINE",
"432 0 LINE",
"521 0 LINE",
"394 293 LINE",
"465 317 OFFCURVE",
"506 378 OFFCURVE",
"506 456 CURVE SMOOTH",
"506 560 OFFCURVE",
"442 630 OFFCURVE",
"318 630 CURVE SMOOTH"
);
},
{
closed = 1;
nodes = (
"315 557 LINE",
"385 557 OFFCURVE",
"422 519 OFFCURVE",
"422 456 CURVE SMOOTH",
"422 393 OFFCURVE",
"380 353 OFFCURVE",
"315 353 CURVE SMOOTH",
"146 353 LINE",
"146 557 LINE"
);
},
{
closed = 1;
nodes = (
"387 812 LINE",
"313 812 LINE",
"272 739 LINE",
"231 812 LINE",
"157 812 LINE",
"235 687 LINE",
"307 687 LINE"
);
}
);
width = 544;
},
{
layerId = "6F612806-55AD-4202-9302-A343176768ED";
name = Bold;
paths = (
{
closed = 1;
nodes = (
"55 630 LINE",
"55 0 LINE",
"173 0 LINE",
"173 263 LINE",
"295 263 LINE",
"400 0 LINE",
"527 0 LINE",
"407 289 LINE",
"471 315 OFFCURVE",
"512 374 OFFCURVE",
"512 450 CURVE SMOOTH",
"512 554 OFFCURVE",
"447 630 OFFCURVE",
"319 630 CURVE SMOOTH"
);
},
{
closed = 1;
nodes = (
"307 526 LINE",
"361 526 OFFCURVE",
"385 496 OFFCURVE",
"385 450 CURVE SMOOTH",
"385 398 OFFCURVE",
"360 367 OFFCURVE",
"303 367 CURVE SMOOTH",
"173 367 LINE",
"173 526 LINE"
);
},
{
closed = 1;
nodes = (
"396 812 LINE",
"313 812 LINE",
"272 749 LINE",
"231 812 LINE",
"149 812 LINE",
"228 687 LINE",
"318 687 LINE"
);
}
);
width = 544;
}
);
unicode = 0158;
},
{
glyphname = Rcommaaccent;
lastChange = "2015-02-24 03:04:22 +0000";
layers = (
{
layerId = "F9754C76-BF5B-4405-B8AE-C91642E979E1";
name = Regular;
paths = (
{
closed = 1;
nodes = (
"64 630 LINE",
"64 0 LINE",
"146 0 LINE",
"146 279 LINE",
"314 279 LINE",
"432 0 LINE",
"521 0 LINE",
"394 293 LINE",
"465 317 OFFCURVE",
"506 378 OFFCURVE",
"506 456 CURVE SMOOTH",
"506 560 OFFCURVE",
"442 630 OFFCURVE",
"318 630 CURVE SMOOTH"
);
},
{
closed = 1;
nodes = (
"312 -55 LINE",
"233 -55 LINE",
"233 -138 LINE",
"265 -138 LINE",
"243 -204 LINE",
"285 -204 LINE",
"312 -132 LINE"
);
},
{
closed = 1;
nodes = (
"315 557 LINE",
"385 557 OFFCURVE",
"422 519 OFFCURVE",
"422 456 CURVE SMOOTH",
"422 393 OFFCURVE",
"380 353 OFFCURVE",
"315 353 CURVE SMOOTH",
"146 353 LINE",
"146 557 LINE"
);
}
);
width = 544;
},
{
layerId = "6F612806-55AD-4202-9302-A343176768ED";
name = Bold;
paths = (
{
closed = 1;
nodes = (
"55 630 LINE",
"55 0 LINE",
"173 0 LINE",
"173 263 LINE",
"295 263 LINE",
"400 0 LINE",
"527 0 LINE",
"407 289 LINE",
"471 315 OFFCURVE",
"512 374 OFFCURVE",
"512 450 CURVE SMOOTH",
"512 554 OFFCURVE",
"447 630 OFFCURVE",
"319 630 CURVE SMOOTH"
);
},
{
closed = 1;
nodes = (
"329 -51 LINE",
"215 -51 LINE",
"215 -163 LINE",
"260 -163 LINE",
"228 -241 LINE",
"287 -241 LINE",
"329 -154 LINE"
);
},
{
closed = 1;
nodes = (
"307 526 LINE",
"361 526 OFFCURVE",
"385 496 OFFCURVE",
"385 450 CURVE SMOOTH",
"385 398 OFFCURVE",
"360 367 OFFCURVE",
"303 367 CURVE SMOOTH",
"173 367 LINE",
"173 526 LINE"
);
}
);
width = 544;
}
);
unicode = 0156;
},
{
glyphname = S;
lastChange = "2015-02-24 03:04:22 +0000";
layers = (
{
anchors = (
{
name = bottom;
position = "{252, 0}";
},
{
name = top;
position = "{252, 630}";
}
);
layerId = "F9754C76-BF5B-4405-B8AE-C91642E979E1";
name = Regular;
paths = (
{
closed = 1;
nodes = (
"140 642 OFFCURVE",
"51 589 OFFCURVE",
"51 472 CURVE SMOOTH",
"51 244 OFFCURVE",
"379 328 OFFCURVE",
"379 168 CURVE SMOOTH",
"379 100 OFFCURVE",
"331 63 OFFCURVE",
"246 63 CURVE SMOOTH",
"175 63 OFFCURVE",
"122 100 OFFCURVE",
"122 178 CURVE SMOOTH",
"122 183 OFFCURVE",
"123 196 OFFCURVE",
"123 197 CURVE",
"38 197 LINE",
"38 194 OFFCURVE",
"37 185 OFFCURVE",
"37 178 CURVE SMOOTH",
"37 40 OFFCURVE",
"135 -11 OFFCURVE",
"250 -11 CURVE SMOOTH",
"372 -11 OFFCURVE",
"464 41 OFFCURVE",
"464 182 CURVE SMOOTH",
"464 404 OFFCURVE",
"136 329 OFFCURVE",
"136 479 CURVE SMOOTH",
"136 540 OFFCURVE",
"186 567 OFFCURVE",
"253 567 CURVE SMOOTH",
"316 567 OFFCURVE",
"365 531 OFFCURVE",
"365 467 CURVE SMOOTH",
"365 453 LINE",
"448 453 LINE",
"448 464 LINE SMOOTH",
"448 591 OFFCURVE",
"361 642 OFFCURVE",
"251 642 CURVE SMOOTH"
);
}
);
width = 503;
},
{
anchors = (
{
name = bottom;
position = "{252, 0}";
},
{
name = top;
position = "{252, 630}";
}
);
layerId = "6F612806-55AD-4202-9302-A343176768ED";
name = Bold;
paths = (
{
closed = 1;
nodes = (
"139 642 OFFCURVE",
"41 584 OFFCURVE",
"41 465 CURVE SMOOTH",
"41 226 OFFCURVE",
"346 314 OFFCURVE",
"346 164 CURVE SMOOTH",
"346 128 OFFCURVE",
"321 90 OFFCURVE",
"251 90 CURVE SMOOTH",
"186 90 OFFCURVE",
"150 131 OFFCURVE",
"150 190 CURVE SMOOTH",
"150 194 OFFCURVE",
"151 203 OFFCURVE",
"151 205 CURVE",
"28 205 LINE",
"28 201 OFFCURVE",
"28 192 OFFCURVE",
"28 185 CURVE SMOOTH",
"28 55 OFFCURVE",
"130 -11 OFFCURVE",
"245 -11 CURVE SMOOTH",
"376 -11 OFFCURVE",
"468 45 OFFCURVE",
"468 189 CURVE SMOOTH",
"468 421 OFFCURVE",
"162 345 OFFCURVE",
"162 473 CURVE SMOOTH",
"162 512 OFFCURVE",
"193 541 OFFCURVE",
"250 541 CURVE SMOOTH",
"304 541 OFFCURVE",
"336 506 OFFCURVE",
"336 453 CURVE SMOOTH",
"336 445 LINE",
"456 445 LINE",
"456 456 LINE SMOOTH",
"456 586 OFFCURVE",
"363 642 OFFCURVE",
"251 642 CURVE SMOOTH"
);
}
);
width = 503;
}
);
unicode = 0053;
},
{
glyphname = Sacute;
lastChange = "2015-02-24 03:04:22 +0000";
layers = (
{
layerId = "F9754C76-BF5B-4405-B8AE-C91642E979E1";
name = Regular;
paths = (
{
closed = 1;
nodes = (
"140 642 OFFCURVE",
"51 589 OFFCURVE",
"51 472 CURVE SMOOTH",
"51 244 OFFCURVE",
"379 328 OFFCURVE",
"379 168 CURVE SMOOTH",
"379 100 OFFCURVE",
"331 63 OFFCURVE",
"246 63 CURVE SMOOTH",
"175 63 OFFCURVE",
"122 100 OFFCURVE",
"122 178 CURVE SMOOTH",
"122 183 OFFCURVE",
"123 196 OFFCURVE",
"123 197 CURVE",
"38 197 LINE",
"38 194 OFFCURVE",
"37 185 OFFCURVE",
"37 178 CURVE SMOOTH",
"37 40 OFFCURVE",
"135 -11 OFFCURVE",
"250 -11 CURVE SMOOTH",
"372 -11 OFFCURVE",
"464 41 OFFCURVE",
"464 182 CURVE SMOOTH",
"464 404 OFFCURVE",
"136 329 OFFCURVE",
"136 479 CURVE SMOOTH",
"136 540 OFFCURVE",
"186 567 OFFCURVE",
"253 567 CURVE SMOOTH",
"316 567 OFFCURVE",
"365 531 OFFCURVE",
"365 467 CURVE SMOOTH",
"365 453 LINE",
"448 453 LINE",
"448 464 LINE SMOOTH",
"448 591 OFFCURVE",
"361 642 OFFCURVE",
"251 642 CURVE SMOOTH"
);
},
{
closed = 1;
nodes = (
"359 812 LINE",
"276 812 LINE",
"197 691 LINE",
"260 691 LINE",
"360 809 LINE"
);
}
);
width = 503;
},
{
layerId = "6F612806-55AD-4202-9302-A343176768ED";
name = Bold;
paths = (
{
closed = 1;
nodes = (
"139 642 OFFCURVE",
"41 584 OFFCURVE",
"41 465 CURVE SMOOTH",
"41 226 OFFCURVE",
"346 314 OFFCURVE",
"346 164 CURVE SMOOTH",
"346 128 OFFCURVE",
"321 90 OFFCURVE",
"251 90 CURVE SMOOTH",
"186 90 OFFCURVE",
"150 131 OFFCURVE",
"150 190 CURVE SMOOTH",
"150 194 OFFCURVE",
"151 203 OFFCURVE",
"151 205 CURVE",
"28 205 LINE",
"28 201 OFFCURVE",
"28 192 OFFCURVE",
"28 185 CURVE SMOOTH",
"28 55 OFFCURVE",
"130 -11 OFFCURVE",
"245 -11 CURVE SMOOTH",
"376 -11 OFFCURVE",
"468 45 OFFCURVE",
"468 189 CURVE SMOOTH",
"468 421 OFFCURVE",
"162 345 OFFCURVE",
"162 473 CURVE SMOOTH",
"162 512 OFFCURVE",
"193 541 OFFCURVE",
"250 541 CURVE SMOOTH",
"304 541 OFFCURVE",
"336 506 OFFCURVE",
"336 453 CURVE SMOOTH",
"336 445 LINE",
"456 445 LINE",
"456 456 LINE SMOOTH",
"456 586 OFFCURVE",
"363 642 OFFCURVE",
"251 642 CURVE SMOOTH"
);
},
{
closed = 1;
nodes = (
"378 812 LINE",
"267 812 LINE",
"188 691 LINE",
"280 691 LINE",
"379 809 LINE"
);
}
);
width = 503;
}
);
unicode = 015A;
},
{
glyphname = Scaron;
lastChange = "2015-02-24 03:04:22 +0000";
layers = (
{
layerId = "F9754C76-BF5B-4405-B8AE-C91642E979E1";
name = Regular;
paths = (
{
closed = 1;
nodes = (
"140 642 OFFCURVE",
"51 589 OFFCURVE",
"51 472 CURVE SMOOTH",
"51 244 OFFCURVE",
"379 328 OFFCURVE",
"379 168 CURVE SMOOTH",
"379 100 OFFCURVE",
"331 63 OFFCURVE",
"246 63 CURVE SMOOTH",
"175 63 OFFCURVE",
"122 100 OFFCURVE",
"122 178 CURVE SMOOTH",
"122 183 OFFCURVE",
"123 196 OFFCURVE",
"123 197 CURVE",
"38 197 LINE",
"38 194 OFFCURVE",
"37 185 OFFCURVE",
"37 178 CURVE SMOOTH",
"37 40 OFFCURVE",
"135 -11 OFFCURVE",
"250 -11 CURVE SMOOTH",
"372 -11 OFFCURVE",
"464 41 OFFCURVE",
"464 182 CURVE SMOOTH",
"464 404 OFFCURVE",
"136 329 OFFCURVE",
"136 479 CURVE SMOOTH",
"136 540 OFFCURVE",
"186 567 OFFCURVE",
"253 567 CURVE SMOOTH",
"316 567 OFFCURVE",
"365 531 OFFCURVE",
"365 467 CURVE SMOOTH",
"365 453 LINE",
"448 453 LINE",
"448 464 LINE SMOOTH",
"448 591 OFFCURVE",
"361 642 OFFCURVE",
"251 642 CURVE SMOOTH"
);
},
{
closed = 1;
nodes = (
"287 687 LINE",
"366 812 LINE",
"292 812 LINE",
"251 739 LINE",
"210 812 LINE",
"137 812 LINE",
"215 687 LINE"
);
}
);
width = 503;
},
{
layerId = "6F612806-55AD-4202-9302-A343176768ED";
name = Bold;
paths = (
{
closed = 1;
nodes = (
"139 642 OFFCURVE",
"41 584 OFFCURVE",
"41 465 CURVE SMOOTH",
"41 226 OFFCURVE",
"346 314 OFFCURVE",
"346 164 CURVE SMOOTH",
"346 128 OFFCURVE",
"321 90 OFFCURVE",
"251 90 CURVE SMOOTH",
"186 90 OFFCURVE",
"150 131 OFFCURVE",
"150 190 CURVE SMOOTH",
"150 194 OFFCURVE",
"151 203 OFFCURVE",
"151 205 CURVE",
"28 205 LINE",
"28 201 OFFCURVE",
"28 192 OFFCURVE",
"28 185 CURVE SMOOTH",
"28 55 OFFCURVE",
"130 -11 OFFCURVE",
"245 -11 CURVE SMOOTH",
"376 -11 OFFCURVE",
"468 45 OFFCURVE",
"468 189 CURVE SMOOTH",
"468 421 OFFCURVE",
"162 345 OFFCURVE",
"162 473 CURVE SMOOTH",
"162 512 OFFCURVE",
"193 541 OFFCURVE",
"250 541 CURVE SMOOTH",
"304 541 OFFCURVE",
"336 506 OFFCURVE",
"336 453 CURVE SMOOTH",
"336 445 LINE",
"456 445 LINE",
"456 456 LINE SMOOTH",
"456 586 OFFCURVE",
"363 642 OFFCURVE",
"251 642 CURVE SMOOTH"
);
},
{
closed = 1;
nodes = (
"297 687 LINE",
"375 812 LINE",
"292 812 LINE",
"252 749 LINE",
"210 812 LINE",
"128 812 LINE",
"207 687 LINE"
);
}
);
width = 503;
}
);
unicode = 0160;
},
{
glyphname = Scedilla;
lastChange = "2015-02-24 03:04:22 +0000";
layers = (
{
layerId = "F9754C76-BF5B-4405-B8AE-C91642E979E1";
name = Regular;
paths = (
{
closed = 1;
nodes = (
"140 642 OFFCURVE",
"51 589 OFFCURVE",
"51 472 CURVE SMOOTH",
"51 244 OFFCURVE",
"379 328 OFFCURVE",
"379 168 CURVE SMOOTH",
"379 100 OFFCURVE",
"331 63 OFFCURVE",
"246 63 CURVE SMOOTH",
"175 63 OFFCURVE",
"122 100 OFFCURVE",
"122 178 CURVE SMOOTH",
"122 183 OFFCURVE",
"123 196 OFFCURVE",
"123 197 CURVE",
"38 197 LINE",
"38 194 OFFCURVE",
"37 185 OFFCURVE",
"37 178 CURVE SMOOTH",
"37 53 OFFCURVE",
"115 0 OFFCURVE",
"216 -9 CURVE",
"207 -71 LINE",
"237 -71 LINE SMOOTH",
"261 -71 OFFCURVE",
"268 -78 OFFCURVE",
"268 -93 CURVE SMOOTH",
"268 -110 OFFCURVE",
"256 -115 OFFCURVE",
"235 -115 CURVE SMOOTH",
"165 -115 LINE",
"165 -160 LINE",
"187 -164 OFFCURVE",
"216 -167 OFFCURVE",
"242 -167 CURVE SMOOTH",
"280 -167 OFFCURVE",
"338 -155 OFFCURVE",
"338 -93 CURVE SMOOTH",
"338 -51 OFFCURVE",
"304 -35 OFFCURVE",
"264 -33 CURVE",
"266 -10 LINE",
"381 -5 OFFCURVE",
"464 47 OFFCURVE",
"464 182 CURVE SMOOTH",
"464 404 OFFCURVE",
"136 329 OFFCURVE",
"136 479 CURVE SMOOTH",
"136 540 OFFCURVE",
"186 567 OFFCURVE",
"253 567 CURVE SMOOTH",
"316 567 OFFCURVE",
"365 531 OFFCURVE",
"365 467 CURVE SMOOTH",
"365 453 LINE",
"448 453 LINE",
"448 464 LINE SMOOTH",
"448 591 OFFCURVE",
"361 642 OFFCURVE",
"251 642 CURVE SMOOTH"
);
}
);
width = 503;
},
{
layerId = "6F612806-55AD-4202-9302-A343176768ED";
name = Bold;
paths = (
{
closed = 1;
nodes = (
"139 642 OFFCURVE",
"41 584 OFFCURVE",
"41 465 CURVE SMOOTH",
"41 226 OFFCURVE",
"346 314 OFFCURVE",
"346 164 CURVE SMOOTH",
"346 128 OFFCURVE",
"321 90 OFFCURVE",
"251 90 CURVE SMOOTH",
"186 90 OFFCURVE",
"150 131 OFFCURVE",
"150 190 CURVE SMOOTH",
"150 194 OFFCURVE",
"151 203 OFFCURVE",
"151 205 CURVE",
"28 205 LINE",
"28 201 OFFCURVE",
"28 192 OFFCURVE",
"28 185 CURVE SMOOTH",
"28 69 OFFCURVE",
"107 4 OFFCURVE",
"207 -8 CURVE",
"200 -71 LINE",
"230 -71 LINE SMOOTH",
"254 -71 OFFCURVE",
"261 -78 OFFCURVE",
"261 -93 CURVE SMOOTH",
"261 -110 OFFCURVE",
"249 -115 OFFCURVE",
"228 -115 CURVE SMOOTH",
"162 -115 LINE",
"162 -160 LINE",
"185 -164 OFFCURVE",
"214 -167 OFFCURVE",
"240 -167 CURVE SMOOTH",
"280 -167 OFFCURVE",
"340 -155 OFFCURVE",
"340 -93 CURVE SMOOTH",
"340 -51 OFFCURVE",
"307 -33 OFFCURVE",
"267 -30 CURVE",
"269 -10 LINE",
"387 -3 OFFCURVE",
"468 54 OFFCURVE",
"468 189 CURVE SMOOTH",
"468 421 OFFCURVE",
"162 345 OFFCURVE",
"162 473 CURVE SMOOTH",
"162 512 OFFCURVE",
"193 541 OFFCURVE",
"250 541 CURVE SMOOTH",
"304 541 OFFCURVE",
"336 506 OFFCURVE",
"336 453 CURVE SMOOTH",
"336 445 LINE",
"456 445 LINE",
"456 456 LINE SMOOTH",
"456 586 OFFCURVE",
"363 642 OFFCURVE",
"251 642 CURVE SMOOTH"
);
}
);
width = 503;
}
);
unicode = 015E;
},
{
glyphname = Scircumflex;
lastChange = "2015-02-24 03:04:22 +0000";
layers = (
{
layerId = "F9754C76-BF5B-4405-B8AE-C91642E979E1";
name = Regular;
paths = (
{
closed = 1;
nodes = (
"140 642 OFFCURVE",
"51 589 OFFCURVE",
"51 472 CURVE SMOOTH",
"51 244 OFFCURVE",
"379 328 OFFCURVE",
"379 168 CURVE SMOOTH",
"379 100 OFFCURVE",
"331 63 OFFCURVE",
"246 63 CURVE SMOOTH",
"175 63 OFFCURVE",
"122 100 OFFCURVE",
"122 178 CURVE SMOOTH",
"122 183 OFFCURVE",
"123 196 OFFCURVE",
"123 197 CURVE",
"38 197 LINE",
"38 194 OFFCURVE",
"37 185 OFFCURVE",
"37 178 CURVE SMOOTH",
"37 40 OFFCURVE",
"135 -11 OFFCURVE",
"250 -11 CURVE SMOOTH",
"372 -11 OFFCURVE",
"464 41 OFFCURVE",
"464 182 CURVE SMOOTH",
"464 404 OFFCURVE",
"136 329 OFFCURVE",
"136 479 CURVE SMOOTH",
"136 540 OFFCURVE",
"186 567 OFFCURVE",
"253 567 CURVE SMOOTH",
"316 567 OFFCURVE",
"365 531 OFFCURVE",
"365 467 CURVE SMOOTH",
"365 453 LINE",
"448 453 LINE",
"448 464 LINE SMOOTH",
"448 591 OFFCURVE",
"361 642 OFFCURVE",
"251 642 CURVE SMOOTH"
);
},
{
closed = 1;
nodes = (
"366 686 LINE",
"288 811 LINE",
"216 811 LINE",
"137 686 LINE",
"210 686 LINE",
"252 759 LINE",
"292 686 LINE"
);
}
);
width = 503;
},
{
layerId = "6F612806-55AD-4202-9302-A343176768ED";
name = Bold;
paths = (
{
closed = 1;
nodes = (
"139 642 OFFCURVE",
"41 584 OFFCURVE",
"41 465 CURVE SMOOTH",
"41 226 OFFCURVE",
"346 314 OFFCURVE",
"346 164 CURVE SMOOTH",
"346 128 OFFCURVE",
"321 90 OFFCURVE",
"251 90 CURVE SMOOTH",
"186 90 OFFCURVE",
"150 131 OFFCURVE",
"150 190 CURVE SMOOTH",
"150 194 OFFCURVE",
"151 203 OFFCURVE",
"151 205 CURVE",
"28 205 LINE",
"28 201 OFFCURVE",
"28 192 OFFCURVE",
"28 185 CURVE SMOOTH",
"28 55 OFFCURVE",
"130 -11 OFFCURVE",
"245 -11 CURVE SMOOTH",
"376 -11 OFFCURVE",
"468 45 OFFCURVE",
"468 189 CURVE SMOOTH",
"468 421 OFFCURVE",
"162 345 OFFCURVE",
"162 473 CURVE SMOOTH",
"162 512 OFFCURVE",
"193 541 OFFCURVE",
"250 541 CURVE SMOOTH",
"304 541 OFFCURVE",
"336 506 OFFCURVE",
"336 453 CURVE SMOOTH",
"336 445 LINE",
"456 445 LINE",
"456 456 LINE SMOOTH",
"456 586 OFFCURVE",
"363 642 OFFCURVE",
"251 642 CURVE SMOOTH"
);
},
{
closed = 1;
nodes = (
"375 687 LINE",
"297 812 LINE",
"207 812 LINE",
"128 687 LINE",
"210 687 LINE",
"252 751 LINE",
"292 687 LINE"
);
}
);
width = 503;
}
);
unicode = 015C;
},
{
glyphname = T;
lastChange = "2015-02-24 03:04:22 +0000";
layers = (
{
anchors = (
{
name = bottom;
position = "{231, 0}";
},
{
name = center;
position = "{231, 315}";
},
{
name = top;
position = "{231, 630}";
}
);
layerId = "F9754C76-BF5B-4405-B8AE-C91642E979E1";
name = Regular;
paths = (
{
closed = 1;
nodes = (
"442 630 LINE",
"18 630 LINE",
"18 557 LINE",
"189 557 LINE",
"189 0 LINE",
"270 0 LINE",
"270 557 LINE",
"442 557 LINE"
);
}
);
width = 461;
},
{
anchors = (
{
name = bottom;
position = "{231, 0}";
},
{
name = center;
position = "{231, 315}";
},
{
name = top;
position = "{231, 630}";
}
);
layerId = "6F612806-55AD-4202-9302-A343176768ED";
name = Bold;
paths = (
{
closed = 1;
nodes = (
"446 630 LINE",
"16 630 LINE",
"16 526 LINE",
"172 526 LINE",
"172 0 LINE",
"289 0 LINE",
"289 526 LINE",
"446 526 LINE"
);
}
);
width = 461;
}
);
unicode = 0054;
},
{
glyphname = Tbar;
lastChange = "2015-02-24 03:04:22 +0000";
layers = (
{
layerId = "F9754C76-BF5B-4405-B8AE-C91642E979E1";
name = Regular;
paths = (
{
closed = 1;
nodes = (
"442 630 LINE",
"18 630 LINE",
"18 557 LINE",
"189 557 LINE",
"189 361 LINE",
"71 361 LINE",
"71 294 LINE",
"189 294 LINE",
"189 0 LINE",
"270 0 LINE",
"270 294 LINE",
"391 294 LINE",
"391 361 LINE",
"270 361 LINE",
"270 557 LINE",
"442 557 LINE"
);
}
);
width = 461;
},
{
layerId = "6F612806-55AD-4202-9302-A343176768ED";
name = Bold;
paths = (
{
closed = 1;
nodes = (
"446 630 LINE",
"16 630 LINE",
"16 526 LINE",
"172 526 LINE",
"172 361 LINE",
"68 361 LINE",
"68 282 LINE",
"172 282 LINE",
"172 0 LINE",
"289 0 LINE",
"289 282 LINE",
"392 282 LINE",
"392 361 LINE",
"289 361 LINE",
"289 526 LINE",
"446 526 LINE"
);
}
);
width = 461;
}
);
unicode = 0166;
},
{
glyphname = Tcaron;
lastChange = "2015-02-24 03:04:22 +0000";
layers = (
{
layerId = "F9754C76-BF5B-4405-B8AE-C91642E979E1";
name = Regular;
paths = (
{
closed = 1;
nodes = (
"442 630 LINE",
"18 630 LINE",
"18 557 LINE",
"189 557 LINE",
"189 0 LINE",
"270 0 LINE",
"270 557 LINE",
"442 557 LINE"
);
},
{
closed = 1;
nodes = (
"344 812 LINE",
"271 812 LINE",
"230 739 LINE",
"189 812 LINE",
"115 812 LINE",
"194 687 LINE",
"265 687 LINE"
);
}
);
width = 461;
},
{
layerId = "6F612806-55AD-4202-9302-A343176768ED";
name = Bold;
paths = (
{
closed = 1;
nodes = (
"446 630 LINE",
"16 630 LINE",
"16 526 LINE",
"172 526 LINE",
"172 0 LINE",
"289 0 LINE",
"289 526 LINE",
"446 526 LINE"
);
},
{
closed = 1;
nodes = (
"354 812 LINE",
"271 812 LINE",
"231 749 LINE",
"189 812 LINE",
"107 812 LINE",
"186 687 LINE",
"276 687 LINE"
);
}
);
width = 461;
}
);
unicode = 0164;
},
{
glyphname = Tcommaaccent;
lastChange = "2015-02-24 03:04:22 +0000";
layers = (
{
layerId = "F9754C76-BF5B-4405-B8AE-C91642E979E1";
name = Regular;
paths = (
{
closed = 1;
nodes = (
"442 630 LINE",
"18 630 LINE",
"18 557 LINE",
"189 557 LINE",
"189 0 LINE",
"270 0 LINE",
"270 557 LINE",
"442 557 LINE"
);
},
{
closed = 1;
nodes = (
"269 -55 LINE",
"191 -55 LINE",
"191 -138 LINE",
"223 -138 LINE",
"202 -204 LINE",
"242 -204 LINE",
"269 -132 LINE"
);
}
);
width = 461;
},
{
layerId = "6F612806-55AD-4202-9302-A343176768ED";
name = Bold;
paths = (
{
closed = 1;
nodes = (
"446 630 LINE",
"16 630 LINE",
"16 526 LINE",
"172 526 LINE",
"172 0 LINE",
"289 0 LINE",
"289 526 LINE",
"446 526 LINE"
);
},
{
closed = 1;
nodes = (
"287 -51 LINE",
"174 -51 LINE",
"174 -163 LINE",
"218 -163 LINE",
"186 -241 LINE",
"245 -241 LINE",
"287 -154 LINE"
);
}
);
width = 461;
}
);
unicode = 021A;
},
{
glyphname = U;
lastChange = "2015-02-24 03:04:22 +0000";
layers = (
{
anchors = (
{
name = ogonek;
position = "{490, 9}";
},
{
name = top;
position = "{272, 630}";
}
);
layerId = "F9754C76-BF5B-4405-B8AE-C91642E979E1";
name = Regular;
paths = (
{
closed = 1;
nodes = (
"479 630 LINE",
"399 630 LINE",
"399 201 LINE SMOOTH",
"399 111 OFFCURVE",
"352 63 OFFCURVE",
"272 63 CURVE SMOOTH",
"193 63 OFFCURVE",
"146 111 OFFCURVE",
"146 201 CURVE SMOOTH",
"146 630 LINE",
"64 630 LINE",
"64 205 LINE SMOOTH",
"64 63 OFFCURVE",
"142 -11 OFFCURVE",
"272 -11 CURVE SMOOTH",
"401 -11 OFFCURVE",
"479 63 OFFCURVE",
"479 205 CURVE SMOOTH"
);
}
);
width = 544;
},
{
anchors = (
{
name = ogonek;
position = "{490, 9}";
},
{
name = top;
position = "{272, 630}";
}
);
layerId = "6F612806-55AD-4202-9302-A343176768ED";
name = Bold;
paths = (
{
closed = 1;
nodes = (
"489 630 LINE",
"371 630 LINE",
"371 202 LINE SMOOTH",
"371 129 OFFCURVE",
"335 90 OFFCURVE",
"272 90 CURVE SMOOTH",
"210 90 OFFCURVE",
"174 129 OFFCURVE",
"174 202 CURVE SMOOTH",
"174 630 LINE",
"56 630 LINE",
"56 198 LINE SMOOTH",
"56 60 OFFCURVE",
"137 -11 OFFCURVE",
"272 -11 CURVE SMOOTH",
"408 -11 OFFCURVE",
"489 60 OFFCURVE",
"489 198 CURVE SMOOTH"
);
}
);
width = 544;
}
);
unicode = 0055;
},
{
glyphname = Uacute;
lastChange = "2015-02-24 03:04:22 +0000";
layers = (
{
layerId = "F9754C76-BF5B-4405-B8AE-C91642E979E1";
name = Regular;
paths = (
{
closed = 1;
nodes = (
"479 630 LINE",
"399 630 LINE",
"399 201 LINE SMOOTH",
"399 111 OFFCURVE",
"352 63 OFFCURVE",
"272 63 CURVE SMOOTH",
"193 63 OFFCURVE",
"146 111 OFFCURVE",
"146 201 CURVE SMOOTH",
"146 630 LINE",
"64 630 LINE",
"64 205 LINE SMOOTH",
"64 63 OFFCURVE",
"142 -11 OFFCURVE",
"272 -11 CURVE SMOOTH",
"401 -11 OFFCURVE",
"479 63 OFFCURVE",
"479 205 CURVE SMOOTH"
);
},
{
closed = 1;
nodes = (
"379 812 LINE",
"296 812 LINE",
"217 691 LINE",
"282 691 LINE",
"380 809 LINE"
);
}
);
width = 544;
},
{
layerId = "6F612806-55AD-4202-9302-A343176768ED";
name = Bold;
paths = (
{
closed = 1;
nodes = (
"489 630 LINE",
"371 630 LINE",
"371 202 LINE SMOOTH",
"371 129 OFFCURVE",
"335 90 OFFCURVE",
"272 90 CURVE SMOOTH",
"210 90 OFFCURVE",
"174 129 OFFCURVE",
"174 202 CURVE SMOOTH",
"174 630 LINE",
"56 630 LINE",
"56 198 LINE SMOOTH",
"56 60 OFFCURVE",
"137 -11 OFFCURVE",
"272 -11 CURVE SMOOTH",
"408 -11 OFFCURVE",
"489 60 OFFCURVE",
"489 198 CURVE SMOOTH"
);
},
{
closed = 1;
nodes = (
"398 812 LINE",
"288 812 LINE",
"209 691 LINE",
"300 691 LINE",
"399 809 LINE"
);
}
);
width = 544;
}
);
unicode = 00DA;
},
{
glyphname = Ubreve;
lastChange = "2015-02-24 03:04:22 +0000";
layers = (
{
layerId = "F9754C76-BF5B-4405-B8AE-C91642E979E1";
name = Regular;
paths = (
{
closed = 1;
nodes = (
"479 630 LINE",
"399 630 LINE",
"399 201 LINE SMOOTH",
"399 111 OFFCURVE",
"352 63 OFFCURVE",
"272 63 CURVE SMOOTH",
"193 63 OFFCURVE",
"146 111 OFFCURVE",
"146 201 CURVE SMOOTH",
"146 630 LINE",
"64 630 LINE",
"64 205 LINE SMOOTH",
"64 63 OFFCURVE",
"142 -11 OFFCURVE",
"272 -11 CURVE SMOOTH",
"401 -11 OFFCURVE",
"479 63 OFFCURVE",
"479 205 CURVE SMOOTH"
);
},
{
closed = 1;
nodes = (
"328 812 LINE",
"326 799 OFFCURVE",
"304 781 OFFCURVE",
"272 781 CURVE SMOOTH",
"241 781 OFFCURVE",
"220 799 OFFCURVE",
"218 812 CURVE",
"158 812 LINE",
"158 771 OFFCURVE",
"202 723 OFFCURVE",
"272 723 CURVE SMOOTH",
"343 723 OFFCURVE",
"386 771 OFFCURVE",
"386 812 CURVE"
);
}
);
width = 544;
},
{
layerId = "6F612806-55AD-4202-9302-A343176768ED";
name = Bold;
paths = (
{
closed = 1;
nodes = (
"489 630 LINE",
"371 630 LINE",
"371 202 LINE SMOOTH",
"371 129 OFFCURVE",
"335 90 OFFCURVE",
"272 90 CURVE SMOOTH",
"210 90 OFFCURVE",
"174 129 OFFCURVE",
"174 202 CURVE SMOOTH",
"174 630 LINE",
"56 630 LINE",
"56 198 LINE SMOOTH",
"56 60 OFFCURVE",
"137 -11 OFFCURVE",
"272 -11 CURVE SMOOTH",
"408 -11 OFFCURVE",
"489 60 OFFCURVE",
"489 198 CURVE SMOOTH"
);
},
{
closed = 1;
nodes = (
"327 812 LINE",
"326 799 OFFCURVE",
"304 781 OFFCURVE",
"271 781 CURVE SMOOTH",
"241 781 OFFCURVE",
"220 799 OFFCURVE",
"218 812 CURVE",
"150 812 LINE",
"150 765 OFFCURVE",
"196 713 OFFCURVE",
"271 713 CURVE SMOOTH",
"347 713 OFFCURVE",
"395 765 OFFCURVE",
"395 812 CURVE"
);
}
);
width = 544;
}
);
unicode = 016C;
},
{
glyphname = Ucircumflex;
lastChange = "2015-02-24 03:04:22 +0000";
layers = (
{
layerId = "F9754C76-BF5B-4405-B8AE-C91642E979E1";
name = Regular;
paths = (
{
closed = 1;
nodes = (
"479 630 LINE",
"399 630 LINE",
"399 201 LINE SMOOTH",
"399 111 OFFCURVE",
"352 63 OFFCURVE",
"272 63 CURVE SMOOTH",
"193 63 OFFCURVE",
"146 111 OFFCURVE",
"146 201 CURVE SMOOTH",
"146 630 LINE",
"64 630 LINE",
"64 205 LINE SMOOTH",
"64 63 OFFCURVE",
"142 -11 OFFCURVE",
"272 -11 CURVE SMOOTH",
"401 -11 OFFCURVE",
"479 63 OFFCURVE",
"479 205 CURVE SMOOTH"
);
},
{
closed = 1;
nodes = (
"308 811 LINE",
"236 811 LINE",
"157 686 LINE",
"231 686 LINE",
"274 759 LINE",
"313 686 LINE",
"387 686 LINE"
);
}
);
width = 544;
},
{
layerId = "6F612806-55AD-4202-9302-A343176768ED";
name = Bold;
paths = (
{
closed = 1;
nodes = (
"489 630 LINE",
"371 630 LINE",
"371 202 LINE SMOOTH",
"371 129 OFFCURVE",
"335 90 OFFCURVE",
"272 90 CURVE SMOOTH",
"210 90 OFFCURVE",
"174 129 OFFCURVE",
"174 202 CURVE SMOOTH",
"174 630 LINE",
"56 630 LINE",
"56 198 LINE SMOOTH",
"56 60 OFFCURVE",
"137 -11 OFFCURVE",
"272 -11 CURVE SMOOTH",
"408 -11 OFFCURVE",
"489 60 OFFCURVE",
"489 198 CURVE SMOOTH"
);
},
{
closed = 1;
nodes = (
"318 812 LINE",
"228 812 LINE",
"149 687 LINE",
"231 687 LINE",
"272 751 LINE",
"313 687 LINE",
"396 687 LINE"
);
}
);
width = 544;
}
);
unicode = 00DB;
},
{
glyphname = Udieresis;
lastChange = "2015-02-24 03:04:22 +0000";
layers = (
{
layerId = "F9754C76-BF5B-4405-B8AE-C91642E979E1";
name = Regular;
paths = (
{
closed = 1;
nodes = (
"479 630 LINE",
"399 630 LINE",
"399 201 LINE SMOOTH",
"399 111 OFFCURVE",
"352 63 OFFCURVE",
"272 63 CURVE SMOOTH",
"193 63 OFFCURVE",
"146 111 OFFCURVE",
"146 201 CURVE SMOOTH",
"146 630 LINE",
"64 630 LINE",
"64 205 LINE SMOOTH",
"64 63 OFFCURVE",
"142 -11 OFFCURVE",
"272 -11 CURVE SMOOTH",
"401 -11 OFFCURVE",
"479 63 OFFCURVE",
"479 205 CURVE SMOOTH"
);
},
{
closed = 1;
nodes = (
"242 812 LINE",
"162 812 LINE",
"162 725 LINE",
"242 725 LINE"
);
},
{
closed = 1;
nodes = (
"382 812 LINE",
"301 812 LINE",
"301 725 LINE",
"382 725 LINE"
);
}
);
width = 544;
},
{
layerId = "6F612806-55AD-4202-9302-A343176768ED";
name = Bold;
paths = (
{
closed = 1;
nodes = (
"489 630 LINE",
"371 630 LINE",
"371 202 LINE SMOOTH",
"371 129 OFFCURVE",
"335 90 OFFCURVE",
"272 90 CURVE SMOOTH",
"210 90 OFFCURVE",
"174 129 OFFCURVE",
"174 202 CURVE SMOOTH",
"174 630 LINE",
"56 630 LINE",
"56 198 LINE SMOOTH",
"56 60 OFFCURVE",
"137 -11 OFFCURVE",
"272 -11 CURVE SMOOTH",
"408 -11 OFFCURVE",
"489 60 OFFCURVE",
"489 198 CURVE SMOOTH"
);
},
{
closed = 1;
nodes = (
"238 812 LINE",
"147 812 LINE",
"147 711 LINE",
"238 711 LINE"
);
},
{
closed = 1;
nodes = (
"399 812 LINE",
"306 812 LINE",
"306 711 LINE",
"399 711 LINE"
);
}
);
width = 544;
}
);
unicode = 00DC;
},
{
glyphname = Ugrave;
lastChange = "2015-02-24 03:04:22 +0000";
layers = (
{
layerId = "F9754C76-BF5B-4405-B8AE-C91642E979E1";
name = Regular;
paths = (
{
closed = 1;
nodes = (
"479 630 LINE",
"399 630 LINE",
"399 201 LINE SMOOTH",
"399 111 OFFCURVE",
"352 63 OFFCURVE",
"272 63 CURVE SMOOTH",
"193 63 OFFCURVE",
"146 111 OFFCURVE",
"146 201 CURVE SMOOTH",
"146 630 LINE",
"64 630 LINE",
"64 205 LINE SMOOTH",
"64 63 OFFCURVE",
"142 -11 OFFCURVE",
"272 -11 CURVE SMOOTH",
"401 -11 OFFCURVE",
"479 63 OFFCURVE",
"479 205 CURVE SMOOTH"
);
},
{
closed = 1;
nodes = (
"249 812 LINE",
"164 812 LINE",
"163 809 LINE",
"264 691 LINE",
"327 691 LINE"
);
}
);
width = 544;
},
{
layerId = "6F612806-55AD-4202-9302-A343176768ED";
name = Bold;
paths = (
{
closed = 1;
nodes = (
"489 630 LINE",
"371 630 LINE",
"371 202 LINE SMOOTH",
"371 129 OFFCURVE",
"335 90 OFFCURVE",
"272 90 CURVE SMOOTH",
"210 90 OFFCURVE",
"174 129 OFFCURVE",
"174 202 CURVE SMOOTH",
"174 630 LINE",
"56 630 LINE",
"56 198 LINE SMOOTH",
"56 60 OFFCURVE",
"137 -11 OFFCURVE",
"272 -11 CURVE SMOOTH",
"408 -11 OFFCURVE",
"489 60 OFFCURVE",
"489 198 CURVE SMOOTH"
);
},
{
closed = 1;
nodes = (
"257 812 LINE",
"147 812 LINE",
"146 809 LINE",
"244 691 LINE",
"336 691 LINE"
);
}
);
width = 544;
}
);
unicode = 00D9;
},
{
glyphname = Uhungarumlaut;
lastChange = "2015-02-24 03:04:22 +0000";
layers = (
{
layerId = "F9754C76-BF5B-4405-B8AE-C91642E979E1";
name = Regular;
paths = (
{
closed = 1;
nodes = (
"479 630 LINE",
"399 630 LINE",
"399 201 LINE SMOOTH",
"399 111 OFFCURVE",
"352 63 OFFCURVE",
"272 63 CURVE SMOOTH",
"193 63 OFFCURVE",
"146 111 OFFCURVE",
"146 201 CURVE SMOOTH",
"146 630 LINE",
"64 630 LINE",
"64 205 LINE SMOOTH",
"64 63 OFFCURVE",
"142 -11 OFFCURVE",
"272 -11 CURVE SMOOTH",
"401 -11 OFFCURVE",
"479 63 OFFCURVE",
"479 205 CURVE SMOOTH"
);
},
{
closed = 1;
nodes = (
"323 812 LINE",
"241 812 LINE",
"184 691 LINE",
"248 691 LINE",
"324 809 LINE"
);
},
{
closed = 1;
nodes = (
"443 812 LINE",
"361 812 LINE",
"305 691 LINE",
"367 691 LINE",
"444 809 LINE"
);
}
);
width = 544;
},
{
layerId = "6F612806-55AD-4202-9302-A343176768ED";
name = Bold;
paths = (
{
closed = 1;
nodes = (
"489 630 LINE",
"371 630 LINE",
"371 202 LINE SMOOTH",
"371 129 OFFCURVE",
"335 90 OFFCURVE",
"272 90 CURVE SMOOTH",
"210 90 OFFCURVE",
"174 129 OFFCURVE",
"174 202 CURVE SMOOTH",
"174 630 LINE",
"56 630 LINE",
"56 198 LINE SMOOTH",
"56 60 OFFCURVE",
"137 -11 OFFCURVE",
"272 -11 CURVE SMOOTH",
"408 -11 OFFCURVE",
"489 60 OFFCURVE",
"489 198 CURVE SMOOTH"
);
},
{
closed = 1;
nodes = (
"317 812 LINE",
"226 812 LINE",
"168 691 LINE",
"241 691 LINE",
"318 809 LINE"
);
},
{
closed = 1;
nodes = (
"446 812 LINE",
"354 812 LINE",
"297 691 LINE",
"369 691 LINE",
"447 809 LINE"
);
}
);
width = 544;
}
);
unicode = 0170;
},
{
glyphname = Umacron;
lastChange = "2015-02-24 03:04:22 +0000";
layers = (
{
layerId = "F9754C76-BF5B-4405-B8AE-C91642E979E1";
name = Regular;
paths = (
{
closed = 1;
nodes = (
"479 630 LINE",
"399 630 LINE",
"399 201 LINE SMOOTH",
"399 111 OFFCURVE",
"352 63 OFFCURVE",
"272 63 CURVE SMOOTH",
"193 63 OFFCURVE",
"146 111 OFFCURVE",
"146 201 CURVE SMOOTH",
"146 630 LINE",
"64 630 LINE",
"64 205 LINE SMOOTH",
"64 63 OFFCURVE",
"142 -11 OFFCURVE",
"272 -11 CURVE SMOOTH",
"401 -11 OFFCURVE",
"479 63 OFFCURVE",
"479 205 CURVE SMOOTH"
);
},
{
closed = 1;
nodes = (
"387 764 LINE",
"157 764 LINE",
"157 698 LINE",
"387 698 LINE"
);
}
);
width = 544;
},
{
layerId = "6F612806-55AD-4202-9302-A343176768ED";
name = Bold;
paths = (
{
closed = 1;
nodes = (
"489 630 LINE",
"371 630 LINE",
"371 202 LINE SMOOTH",
"371 129 OFFCURVE",
"335 90 OFFCURVE",
"272 90 CURVE SMOOTH",
"210 90 OFFCURVE",
"174 129 OFFCURVE",
"174 202 CURVE SMOOTH",
"174 630 LINE",
"56 630 LINE",
"56 198 LINE SMOOTH",
"56 60 OFFCURVE",
"137 -11 OFFCURVE",
"272 -11 CURVE SMOOTH",
"408 -11 OFFCURVE",
"489 60 OFFCURVE",
"489 198 CURVE SMOOTH"
);
},
{
closed = 1;
nodes = (
"390 778 LINE",
"155 778 LINE",
"155 698 LINE",
"390 698 LINE"
);
}
);
width = 544;
}
);
unicode = 016A;
},
{
glyphname = Uogonek;
lastChange = "2015-02-24 03:04:22 +0000";
layers = (
{
layerId = "F9754C76-BF5B-4405-B8AE-C91642E979E1";
name = Regular;
paths = (
{
closed = 1;
nodes = (
"479 630 LINE",
"399 630 LINE",
"399 201 LINE SMOOTH",
"399 111 OFFCURVE",
"352 63 OFFCURVE",
"272 63 CURVE SMOOTH",
"193 63 OFFCURVE",
"146 111 OFFCURVE",
"146 201 CURVE SMOOTH",
"146 630 LINE",
"64 630 LINE",
"64 205 LINE SMOOTH",
"64 63 OFFCURVE",
"142 -11 OFFCURVE",
"272 -11 CURVE SMOOTH",
"288 -11 OFFCURVE",
"298 -10 OFFCURVE",
"310 -7 CURVE",
"307 5 LINE",
"285 -18 OFFCURVE",
"268 -44 OFFCURVE",
"268 -84 CURVE SMOOTH",
"268 -148 OFFCURVE",
"315 -167 OFFCURVE",
"355 -167 CURVE SMOOTH",
"373 -167 OFFCURVE",
"392 -162 OFFCURVE",
"411 -155 CURVE",
"411 -107 LINE",
"383 -107 LINE SMOOTH",
"352 -107 OFFCURVE",
"340 -83 OFFCURVE",
"340 -57 CURVE SMOOTH",
"340 -32 OFFCURVE",
"354 -8 OFFCURVE",
"365 4 CURVE",
"438 34 OFFCURVE",
"479 101 OFFCURVE",
"479 205 CURVE SMOOTH"
);
}
);
width = 544;
},
{
layerId = "6F612806-55AD-4202-9302-A343176768ED";
name = Bold;
paths = (
{
closed = 1;
nodes = (
"489 630 LINE",
"371 630 LINE",
"371 209 LINE SMOOTH",
"371 131 OFFCURVE",
"335 90 OFFCURVE",
"272 90 CURVE SMOOTH",
"210 90 OFFCURVE",
"174 131 OFFCURVE",
"174 209 CURVE SMOOTH",
"174 630 LINE",
"56 630 LINE",
"56 205 LINE SMOOTH",
"56 63 OFFCURVE",
"137 -11 OFFCURVE",
"272 -11 CURVE SMOOTH",
"291 -11 OFFCURVE",
"309 -11 OFFCURVE",
"329 -7 CURVE",
"302 10 LINE",
"277 -12 OFFCURVE",
"255 -42 OFFCURVE",
"255 -87 CURVE SMOOTH",
"255 -151 OFFCURVE",
"304 -171 OFFCURVE",
"345 -171 CURVE SMOOTH",
"366 -171 OFFCURVE",
"385 -165 OFFCURVE",
"407 -157 CURVE",
"407 -107 LINE",
"386 -107 LINE SMOOTH",
"356 -107 OFFCURVE",
"344 -83 OFFCURVE",
"344 -59 CURVE SMOOTH",
"344 -34 OFFCURVE",
"361 -8 OFFCURVE",
"372 4 CURVE",
"447 33 OFFCURVE",
"489 101 OFFCURVE",
"489 205 CURVE SMOOTH"
);
}
);
width = 544;
}
);
unicode = 0172;
},
{
glyphname = Uring;
lastChange = "2015-02-24 03:04:22 +0000";
layers = (
{
layerId = "F9754C76-BF5B-4405-B8AE-C91642E979E1";
name = Regular;
paths = (
{
closed = 1;
nodes = (
"479 630 LINE",
"399 630 LINE",
"399 201 LINE SMOOTH",
"399 111 OFFCURVE",
"352 63 OFFCURVE",
"272 63 CURVE SMOOTH",
"193 63 OFFCURVE",
"146 111 OFFCURVE",
"146 201 CURVE SMOOTH",
"146 630 LINE",
"64 630 LINE",
"64 205 LINE SMOOTH",
"64 63 OFFCURVE",
"142 -11 OFFCURVE",
"272 -11 CURVE SMOOTH",
"401 -11 OFFCURVE",
"479 63 OFFCURVE",
"479 205 CURVE SMOOTH"
);
},
{
closed = 1;
nodes = (
"224 841 OFFCURVE",
"184 802 OFFCURVE",
"184 753 CURVE SMOOTH",
"184 703 OFFCURVE",
"225 665 OFFCURVE",
"272 665 CURVE SMOOTH",
"321 665 OFFCURVE",
"361 704 OFFCURVE",
"361 753 CURVE SMOOTH",
"361 801 OFFCURVE",
"321 841 OFFCURVE",
"272 841 CURVE SMOOTH"
);
},
{
closed = 1;
nodes = (
"297 800 OFFCURVE",
"319 779 OFFCURVE",
"319 753 CURVE SMOOTH",
"319 727 OFFCURVE",
"297 706 OFFCURVE",
"272 706 CURVE SMOOTH",
"246 706 OFFCURVE",
"226 727 OFFCURVE",
"226 753 CURVE SMOOTH",
"226 779 OFFCURVE",
"246 800 OFFCURVE",
"272 800 CURVE SMOOTH"
);
}
);
width = 544;
},
{
layerId = "6F612806-55AD-4202-9302-A343176768ED";
name = Bold;
paths = (
{
closed = 1;
nodes = (
"489 630 LINE",
"371 630 LINE",
"371 202 LINE SMOOTH",
"371 129 OFFCURVE",
"335 90 OFFCURVE",
"272 90 CURVE SMOOTH",
"210 90 OFFCURVE",
"174 129 OFFCURVE",
"174 202 CURVE SMOOTH",
"174 630 LINE",
"56 630 LINE",
"56 198 LINE SMOOTH",
"56 60 OFFCURVE",
"137 -11 OFFCURVE",
"272 -11 CURVE SMOOTH",
"408 -11 OFFCURVE",
"489 60 OFFCURVE",
"489 198 CURVE SMOOTH"
);
},
{
closed = 1;
nodes = (
"224 839 OFFCURVE",
"184 800 OFFCURVE",
"184 751 CURVE SMOOTH",
"184 701 OFFCURVE",
"225 662 OFFCURVE",
"272 662 CURVE SMOOTH",
"321 662 OFFCURVE",
"361 702 OFFCURVE",
"361 751 CURVE SMOOTH",
"361 799 OFFCURVE",
"321 839 OFFCURVE",
"272 839 CURVE SMOOTH"
);
},
{
closed = 1;
nodes = (
"295 794 OFFCURVE",
"314 775 OFFCURVE",
"314 751 CURVE SMOOTH",
"314 727 OFFCURVE",
"295 709 OFFCURVE",
"272 709 CURVE SMOOTH",
"249 709 OFFCURVE",
"230 727 OFFCURVE",
"230 751 CURVE SMOOTH",
"230 775 OFFCURVE",
"249 794 OFFCURVE",
"272 794 CURVE SMOOTH"
);
}
);
width = 544;
}
);
unicode = 016E;
},
{
glyphname = Utilde;
lastChange = "2015-02-24 03:04:22 +0000";
layers = (
{
layerId = "F9754C76-BF5B-4405-B8AE-C91642E979E1";
name = Regular;
paths = (
{
closed = 1;
nodes = (
"479 630 LINE",
"399 630 LINE",
"399 201 LINE SMOOTH",
"399 111 OFFCURVE",
"352 63 OFFCURVE",
"272 63 CURVE SMOOTH",
"193 63 OFFCURVE",
"146 111 OFFCURVE",
"146 201 CURVE SMOOTH",
"146 630 LINE",
"64 630 LINE",
"64 205 LINE SMOOTH",
"64 63 OFFCURVE",
"142 -11 OFFCURVE",
"272 -11 CURVE SMOOTH",
"401 -11 OFFCURVE",
"479 63 OFFCURVE",
"479 205 CURVE SMOOTH"
);
},
{
closed = 1;
nodes = (
"353 812 LINE",
"350 790 OFFCURVE",
"338 784 OFFCURVE",
"321 784 CURVE SMOOTH",
"286 784 OFFCURVE",
"256 812 OFFCURVE",
"216 812 CURVE SMOOTH",
"161 812 OFFCURVE",
"138 758 OFFCURVE",
"138 717 CURVE",
"191 717 LINE",
"194 737 OFFCURVE",
"206 745 OFFCURVE",
"223 745 CURVE SMOOTH",
"258 745 OFFCURVE",
"288 717 OFFCURVE",
"329 717 CURVE SMOOTH",
"384 717 OFFCURVE",
"407 770 OFFCURVE",
"407 812 CURVE"
);
}
);
width = 544;
},
{
layerId = "6F612806-55AD-4202-9302-A343176768ED";
name = Bold;
paths = (
{
closed = 1;
nodes = (
"489 630 LINE",
"371 630 LINE",
"371 202 LINE SMOOTH",
"371 129 OFFCURVE",
"335 90 OFFCURVE",
"272 90 CURVE SMOOTH",
"210 90 OFFCURVE",
"174 129 OFFCURVE",
"174 202 CURVE SMOOTH",
"174 630 LINE",
"56 630 LINE",
"56 198 LINE SMOOTH",
"56 60 OFFCURVE",
"137 -11 OFFCURVE",
"272 -11 CURVE SMOOTH",
"408 -11 OFFCURVE",
"489 60 OFFCURVE",
"489 198 CURVE SMOOTH"
);
},
{
closed = 1;
nodes = (
"366 812 LINE",
"362 786 OFFCURVE",
"349 778 OFFCURVE",
"330 778 CURVE SMOOTH",
"289 778 OFFCURVE",
"253 812 OFFCURVE",
"208 812 CURVE SMOOTH",
"144 812 OFFCURVE",
"118 750 OFFCURVE",
"118 700 CURVE",
"178 700 LINE",
"182 725 OFFCURVE",
"194 733 OFFCURVE",
"214 733 CURVE SMOOTH",
"256 733 OFFCURVE",
"291 700 OFFCURVE",
"336 700 CURVE SMOOTH",
"400 700 OFFCURVE",
"426 761 OFFCURVE",
"426 812 CURVE"
);
}
);
width = 544;
}
);
unicode = 0168;
},
{
glyphname = V;
lastChange = "2015-02-24 03:04:22 +0000";
layers = (
{
layerId = "F9754C76-BF5B-4405-B8AE-C91642E979E1";
name = Regular;
paths = (
{
closed = 1;
nodes = (
"304 0 LINE",
"495 630 LINE",
"417 630 LINE",
"257 89 LINE",
"253 89 LINE",
"97 630 LINE",
"7 630 LINE",
"200 0 LINE"
);
}
);
width = 503;
},
{
layerId = "6F612806-55AD-4202-9302-A343176768ED";
name = Bold;
paths = (
{
closed = 1;
nodes = (
"311 0 LINE",
"503 630 LINE",
"388 630 LINE",
"258 179 LINE",
"254 179 LINE",
"122 630 LINE",
"0 630 LINE",
"192 0 LINE"
);
}
);
width = 503;
}
);
unicode = 0056;
},
{
glyphname = W;
lastChange = "2015-02-24 03:04:22 +0000";
layers = (
{
anchors = (
{
name = top;
position = "{356, 630}";
}
);
layerId = "F9754C76-BF5B-4405-B8AE-C91642E979E1";
name = Regular;
paths = (
{
closed = 1;
nodes = (
"556 0 LINE",
"702 630 LINE",
"629 630 LINE",
"532 194 LINE SMOOTH",
"523 154 OFFCURVE",
"513 83 OFFCURVE",
"513 83 CURVE SMOOTH",
"510 83 LINE SMOOTH",
"510 83 OFFCURVE",
"501 149 OFFCURVE",
"493 194 CURVE SMOOTH",
"415 630 LINE",
"303 630 LINE",
"230 194 LINE SMOOTH",
"220 139 OFFCURVE",
"214 83 OFFCURVE",
"214 83 CURVE SMOOTH",
"210 83 LINE SMOOTH",
"210 83 OFFCURVE",
"200 158 OFFCURVE",
"191 194 CURVE SMOOTH",
"95 630 LINE",
"9 630 LINE",
"155 0 LINE",
"260 0 LINE",
"336 427 LINE SMOOTH",
"343 470 OFFCURVE",
"353 554 OFFCURVE",
"353 554 CURVE",
"357 554 LINE",
"357 554 OFFCURVE",
"367 470 OFFCURVE",
"374 427 CURVE SMOOTH",
"451 0 LINE"
);
}
);
width = 711;
},
{
anchors = (
{
name = top;
position = "{356, 630}";
}
);
layerId = "6F612806-55AD-4202-9302-A343176768ED";
name = Bold;
paths = (
{
closed = 1;
nodes = (
"574 0 LINE",
"710 630 LINE",
"609 630 LINE",
"532 242 LINE SMOOTH",
"526 211 OFFCURVE",
"520 155 OFFCURVE",
"520 155 CURVE SMOOTH",
"517 155 LINE SMOOTH",
"517 155 OFFCURVE",
"510 218 OFFCURVE",
"504 242 CURVE SMOOTH",
"430 630 LINE",
"296 630 LINE",
"219 242 LINE SMOOTH",
"214 216 OFFCURVE",
"208 155 OFFCURVE",
"208 155 CURVE SMOOTH",
"204 155 LINE SMOOTH",
"204 155 OFFCURVE",
"198 215 OFFCURVE",
"192 242 CURVE SMOOTH",
"116 630 LINE",
"0 630 LINE",
"137 0 LINE",
"256 0 LINE",
"340 401 LINE SMOOTH",
"345 428 OFFCURVE",
"353 491 OFFCURVE",
"353 491 CURVE",
"357 491 LINE",
"357 491 OFFCURVE",
"362 434 OFFCURVE",
"369 401 CURVE SMOOTH",
"456 0 LINE"
);
}
);
width = 711;
}
);
unicode = 0057;
},
{
glyphname = Wacute;
lastChange = "2015-02-24 03:04:22 +0000";
layers = (
{
layerId = "F9754C76-BF5B-4405-B8AE-C91642E979E1";
name = Regular;
paths = (
{
closed = 1;
nodes = (
"702 630 LINE",
"629 630 LINE",
"532 194 LINE SMOOTH",
"523 154 OFFCURVE",
"513 83 OFFCURVE",
"513 83 CURVE SMOOTH",
"510 83 LINE SMOOTH",
"510 83 OFFCURVE",
"501 149 OFFCURVE",
"493 194 CURVE SMOOTH",
"415 630 LINE",
"303 630 LINE",
"230 194 LINE SMOOTH",
"220 139 OFFCURVE",
"214 83 OFFCURVE",
"214 83 CURVE SMOOTH",
"210 83 LINE SMOOTH",
"210 83 OFFCURVE",
"200 158 OFFCURVE",
"191 194 CURVE SMOOTH",
"95 630 LINE",
"9 630 LINE",
"155 0 LINE",
"260 0 LINE",
"336 427 LINE SMOOTH",
"343 470 OFFCURVE",
"353 554 OFFCURVE",
"353 554 CURVE",
"357 554 LINE",
"357 554 OFFCURVE",
"367 470 OFFCURVE",
"374 427 CURVE SMOOTH",
"451 0 LINE",
"556 0 LINE"
);
},
{
closed = 1;
nodes = (
"463 812 LINE",
"381 812 LINE",
"302 691 LINE",
"365 691 LINE",
"464 809 LINE"
);
}
);
width = 711;
},
{
layerId = "6F612806-55AD-4202-9302-A343176768ED";
name = Bold;
paths = (
{
closed = 1;
nodes = (
"710 630 LINE",
"609 630 LINE",
"532 242 LINE SMOOTH",
"526 211 OFFCURVE",
"520 155 OFFCURVE",
"520 155 CURVE SMOOTH",
"517 155 LINE SMOOTH",
"517 155 OFFCURVE",
"510 218 OFFCURVE",
"504 242 CURVE SMOOTH",
"430 630 LINE",
"296 630 LINE",
"219 242 LINE SMOOTH",
"214 216 OFFCURVE",
"208 155 OFFCURVE",
"208 155 CURVE SMOOTH",
"204 155 LINE SMOOTH",
"204 155 OFFCURVE",
"198 215 OFFCURVE",
"192 242 CURVE SMOOTH",
"116 630 LINE",
"0 630 LINE",
"137 0 LINE",
"256 0 LINE",
"340 401 LINE SMOOTH",
"345 428 OFFCURVE",
"353 491 OFFCURVE",
"353 491 CURVE",
"357 491 LINE",
"357 491 OFFCURVE",
"362 434 OFFCURVE",
"369 401 CURVE SMOOTH",
"456 0 LINE",
"574 0 LINE"
);
},
{
closed = 1;
nodes = (
"482 812 LINE",
"371 812 LINE",
"292 691 LINE",
"384 691 LINE",
"483 809 LINE"
);
}
);
width = 711;
}
);
unicode = 1E82;
},
{
glyphname = Wcircumflex;
lastChange = "2015-02-24 03:04:22 +0000";
layers = (
{
layerId = "F9754C76-BF5B-4405-B8AE-C91642E979E1";
name = Regular;
paths = (
{
closed = 1;
nodes = (
"556 0 LINE",
"702 630 LINE",
"629 630 LINE",
"532 194 LINE SMOOTH",
"523 154 OFFCURVE",
"513 83 OFFCURVE",
"513 83 CURVE SMOOTH",
"510 83 LINE SMOOTH",
"510 83 OFFCURVE",
"501 149 OFFCURVE",
"493 194 CURVE SMOOTH",
"415 630 LINE",
"303 630 LINE",
"230 194 LINE SMOOTH",
"220 139 OFFCURVE",
"214 83 OFFCURVE",
"214 83 CURVE SMOOTH",
"210 83 LINE SMOOTH",
"210 83 OFFCURVE",
"200 158 OFFCURVE",
"191 194 CURVE SMOOTH",
"95 630 LINE",
"9 630 LINE",
"155 0 LINE",
"260 0 LINE",
"336 427 LINE SMOOTH",
"343 470 OFFCURVE",
"353 554 OFFCURVE",
"353 554 CURVE",
"357 554 LINE",
"357 554 OFFCURVE",
"367 470 OFFCURVE",
"374 427 CURVE SMOOTH",
"451 0 LINE"
);
},
{
closed = 1;
nodes = (
"471 686 LINE",
"392 811 LINE",
"321 811 LINE",
"241 686 LINE",
"315 686 LINE",
"357 759 LINE",
"397 686 LINE"
);
}
);
width = 711;
},
{
layerId = "6F612806-55AD-4202-9302-A343176768ED";
name = Bold;
paths = (
{
closed = 1;
nodes = (
"574 0 LINE",
"710 630 LINE",
"609 630 LINE",
"532 242 LINE SMOOTH",
"526 211 OFFCURVE",
"520 155 OFFCURVE",
"520 155 CURVE SMOOTH",
"517 155 LINE SMOOTH",
"517 155 OFFCURVE",
"510 218 OFFCURVE",
"504 242 CURVE SMOOTH",
"430 630 LINE",
"296 630 LINE",
"219 242 LINE SMOOTH",
"214 216 OFFCURVE",
"208 155 OFFCURVE",
"208 155 CURVE SMOOTH",
"204 155 LINE SMOOTH",
"204 155 OFFCURVE",
"198 215 OFFCURVE",
"192 242 CURVE SMOOTH",
"116 630 LINE",
"0 630 LINE",
"137 0 LINE",
"256 0 LINE",
"340 401 LINE SMOOTH",
"345 428 OFFCURVE",
"353 491 OFFCURVE",
"353 491 CURVE",
"357 491 LINE",
"357 491 OFFCURVE",
"362 434 OFFCURVE",
"369 401 CURVE SMOOTH",
"456 0 LINE"
);
},
{
closed = 1;
nodes = (
"479 687 LINE",
"401 812 LINE",
"312 812 LINE",
"233 687 LINE",
"315 687 LINE",
"357 751 LINE",
"397 687 LINE"
);
}
);
width = 711;
}
);
unicode = 0174;
},
{
glyphname = Wdieresis;
lastChange = "2015-02-24 03:04:22 +0000";
layers = (
{
layerId = "F9754C76-BF5B-4405-B8AE-C91642E979E1";
name = Regular;
paths = (
{
closed = 1;
nodes = (
"702 630 LINE",
"629 630 LINE",
"532 194 LINE SMOOTH",
"523 154 OFFCURVE",
"513 83 OFFCURVE",
"513 83 CURVE SMOOTH",
"510 83 LINE SMOOTH",
"510 83 OFFCURVE",
"501 149 OFFCURVE",
"493 194 CURVE SMOOTH",
"415 630 LINE",
"303 630 LINE",
"230 194 LINE SMOOTH",
"220 139 OFFCURVE",
"214 83 OFFCURVE",
"214 83 CURVE SMOOTH",
"210 83 LINE SMOOTH",
"210 83 OFFCURVE",
"200 158 OFFCURVE",
"191 194 CURVE SMOOTH",
"95 630 LINE",
"9 630 LINE",
"155 0 LINE",
"260 0 LINE",
"336 427 LINE SMOOTH",
"343 470 OFFCURVE",
"353 554 OFFCURVE",
"353 554 CURVE",
"357 554 LINE",
"357 554 OFFCURVE",
"367 470 OFFCURVE",
"374 427 CURVE SMOOTH",
"451 0 LINE",
"556 0 LINE"
);
},
{
closed = 1;
nodes = (
"327 812 LINE",
"248 812 LINE",
"248 725 LINE",
"327 725 LINE"
);
},
{
closed = 1;
nodes = (
"465 812 LINE",
"385 812 LINE",
"385 725 LINE",
"465 725 LINE"
);
}
);
width = 711;
},
{
layerId = "6F612806-55AD-4202-9302-A343176768ED";
name = Bold;
paths = (
{
closed = 1;
nodes = (
"710 630 LINE",
"609 630 LINE",
"532 242 LINE SMOOTH",
"526 211 OFFCURVE",
"520 155 OFFCURVE",
"520 155 CURVE SMOOTH",
"517 155 LINE SMOOTH",
"517 155 OFFCURVE",
"510 218 OFFCURVE",
"504 242 CURVE SMOOTH",
"430 630 LINE",
"296 630 LINE",
"219 242 LINE SMOOTH",
"214 216 OFFCURVE",
"208 155 OFFCURVE",
"208 155 CURVE SMOOTH",
"204 155 LINE SMOOTH",
"204 155 OFFCURVE",
"198 215 OFFCURVE",
"192 242 CURVE SMOOTH",
"116 630 LINE",
"0 630 LINE",
"137 0 LINE",
"256 0 LINE",
"340 401 LINE SMOOTH",
"345 428 OFFCURVE",
"353 491 OFFCURVE",
"353 491 CURVE",
"357 491 LINE",
"357 491 OFFCURVE",
"362 434 OFFCURVE",
"369 401 CURVE SMOOTH",
"456 0 LINE",
"574 0 LINE"
);
},
{
closed = 1;
nodes = (
"321 812 LINE",
"230 812 LINE",
"230 711 LINE",
"321 711 LINE"
);
},
{
closed = 1;
nodes = (
"483 812 LINE",
"391 812 LINE",
"391 711 LINE",
"483 711 LINE"
);
}
);
width = 711;
}
);
unicode = 1E84;
},
{
glyphname = Wgrave;
lastChange = "2015-02-24 03:04:22 +0000";
layers = (
{
layerId = "F9754C76-BF5B-4405-B8AE-C91642E979E1";
name = Regular;
paths = (
{
closed = 1;
nodes = (
"702 630 LINE",
"629 630 LINE",
"532 194 LINE SMOOTH",
"523 154 OFFCURVE",
"513 83 OFFCURVE",
"513 83 CURVE SMOOTH",
"510 83 LINE SMOOTH",
"510 83 OFFCURVE",
"501 149 OFFCURVE",
"493 194 CURVE SMOOTH",
"415 630 LINE",
"303 630 LINE",
"230 194 LINE SMOOTH",
"220 139 OFFCURVE",
"214 83 OFFCURVE",
"214 83 CURVE SMOOTH",
"210 83 LINE SMOOTH",
"210 83 OFFCURVE",
"200 158 OFFCURVE",
"191 194 CURVE SMOOTH",
"95 630 LINE",
"9 630 LINE",
"155 0 LINE",
"260 0 LINE",
"336 427 LINE SMOOTH",
"343 470 OFFCURVE",
"353 554 OFFCURVE",
"353 554 CURVE",
"357 554 LINE",
"357 554 OFFCURVE",
"367 470 OFFCURVE",
"374 427 CURVE SMOOTH",
"451 0 LINE",
"556 0 LINE"
);
},
{
closed = 1;
nodes = (
"332 812 LINE",
"250 812 LINE",
"249 809 LINE",
"347 691 LINE",
"411 691 LINE"
);
}
);
width = 711;
},
{
layerId = "6F612806-55AD-4202-9302-A343176768ED";
name = Bold;
paths = (
{
closed = 1;
nodes = (
"710 630 LINE",
"609 630 LINE",
"532 242 LINE SMOOTH",
"526 211 OFFCURVE",
"520 155 OFFCURVE",
"520 155 CURVE SMOOTH",
"517 155 LINE SMOOTH",
"517 155 OFFCURVE",
"510 218 OFFCURVE",
"504 242 CURVE SMOOTH",
"430 630 LINE",
"296 630 LINE",
"219 242 LINE SMOOTH",
"214 216 OFFCURVE",
"208 155 OFFCURVE",
"208 155 CURVE SMOOTH",
"204 155 LINE SMOOTH",
"204 155 OFFCURVE",
"198 215 OFFCURVE",
"192 242 CURVE SMOOTH",
"116 630 LINE",
"0 630 LINE",
"137 0 LINE",
"256 0 LINE",
"340 401 LINE SMOOTH",
"345 428 OFFCURVE",
"353 491 OFFCURVE",
"353 491 CURVE",
"357 491 LINE",
"357 491 OFFCURVE",
"362 434 OFFCURVE",
"369 401 CURVE SMOOTH",
"456 0 LINE",
"574 0 LINE"
);
},
{
closed = 1;
nodes = (
"340 812 LINE",
"230 812 LINE",
"229 809 LINE",
"329 691 LINE",
"419 691 LINE"
);
}
);
width = 711;
}
);
unicode = 1E80;
},
{
glyphname = X;
lastChange = "2015-02-24 03:04:22 +0000";
layers = (
{
layerId = "F9754C76-BF5B-4405-B8AE-C91642E979E1";
name = Regular;
paths = (
{
closed = 1;
nodes = (
"479 630 LINE",
"392 630 LINE",
"251 400 LINE",
"257 400 LINE",
"118 630 LINE",
"22 630 LINE",
"205 328 LINE",
"4 0 LINE",
"90 0 LINE",
"251 261 LINE",
"246 261 LINE",
"404 0 LINE",
"499 0 LINE",
"296 335 LINE"
);
}
);
width = 503;
},
{
layerId = "6F612806-55AD-4202-9302-A343176768ED";
name = Bold;
paths = (
{
closed = 1;
nodes = (
"486 630 LINE",
"363 630 LINE",
"258 424 LINE",
"254 424 LINE",
"148 630 LINE",
"17 630 LINE",
"178 331 LINE",
"0 0 LINE",
"123 0 LINE",
"244 238 LINE",
"249 238 LINE",
"371 0 LINE",
"502 0 LINE",
"322 333 LINE"
);
}
);
width = 503;
}
);
unicode = 0058;
},
{
glyphname = Y;
lastChange = "2015-02-24 03:04:22 +0000";
layers = (
{
anchors = (
{
name = top;
position = "{252, 630}";
}
);
layerId = "F9754C76-BF5B-4405-B8AE-C91642E979E1";
name = Regular;
paths = (
{
closed = 1;
nodes = (
"292 261 LINE",
"495 630 LINE",
"417 630 LINE",
"260 338 LINE",
"257 338 LINE",
"97 630 LINE",
"7 630 LINE",
"211 261 LINE",
"211 0 LINE",
"292 0 LINE"
);
}
);
width = 503;
},
{
anchors = (
{
name = top;
position = "{252, 630}";
}
);
layerId = "6F612806-55AD-4202-9302-A343176768ED";
name = Bold;
paths = (
{
closed = 1;
nodes = (
"311 238 LINE",
"503 630 LINE",
"385 630 LINE",
"257 354 LINE",
"253 354 LINE",
"124 630 LINE",
"0 630 LINE",
"193 238 LINE",
"193 0 LINE",
"311 0 LINE"
);
}
);
width = 503;
}
);
unicode = 0059;
},
{
glyphname = Yacute;
lastChange = "2015-02-24 03:04:22 +0000";
layers = (
{
layerId = "F9754C76-BF5B-4405-B8AE-C91642E979E1";
name = Regular;
paths = (
{
closed = 1;
nodes = (
"495 630 LINE",
"417 630 LINE",
"260 338 LINE",
"257 338 LINE",
"97 630 LINE",
"7 630 LINE",
"211 261 LINE",
"211 0 LINE",
"292 0 LINE",
"292 261 LINE"
);
},
{
closed = 1;
nodes = (
"359 812 LINE",
"276 812 LINE",
"197 691 LINE",
"260 691 LINE",
"360 809 LINE"
);
}
);
width = 503;
},
{
layerId = "6F612806-55AD-4202-9302-A343176768ED";
name = Bold;
paths = (
{
closed = 1;
nodes = (
"503 630 LINE",
"385 630 LINE",
"257 354 LINE",
"253 354 LINE",
"124 630 LINE",
"0 630 LINE",
"193 238 LINE",
"193 0 LINE",
"311 0 LINE",
"311 238 LINE"
);
},
{
closed = 1;
nodes = (
"378 812 LINE",
"267 812 LINE",
"188 691 LINE",
"280 691 LINE",
"379 809 LINE"
);
}
);
width = 503;
}
);
unicode = 00DD;
},
{
glyphname = Ycircumflex;
lastChange = "2015-02-24 03:04:22 +0000";
layers = (
{
layerId = "F9754C76-BF5B-4405-B8AE-C91642E979E1";
name = Regular;
paths = (
{
closed = 1;
nodes = (
"292 261 LINE",
"495 630 LINE",
"417 630 LINE",
"260 338 LINE",
"257 338 LINE",
"97 630 LINE",
"7 630 LINE",
"211 261 LINE",
"211 0 LINE",
"292 0 LINE"
);
},
{
closed = 1;
nodes = (
"366 686 LINE",
"288 811 LINE",
"216 811 LINE",
"137 686 LINE",
"210 686 LINE",
"252 759 LINE",
"292 686 LINE"
);
}
);
width = 503;
},
{
layerId = "6F612806-55AD-4202-9302-A343176768ED";
name = Bold;
paths = (
{
closed = 1;
nodes = (
"311 238 LINE",
"503 630 LINE",
"385 630 LINE",
"257 354 LINE",
"253 354 LINE",
"124 630 LINE",
"0 630 LINE",
"193 238 LINE",
"193 0 LINE",
"311 0 LINE"
);
},
{
closed = 1;
nodes = (
"375 687 LINE",
"297 812 LINE",
"207 812 LINE",
"128 687 LINE",
"210 687 LINE",
"252 751 LINE",
"292 687 LINE"
);
}
);
width = 503;
}
);
unicode = 0176;
},
{
glyphname = Ydieresis;
lastChange = "2015-02-24 03:04:22 +0000";
layers = (
{
layerId = "F9754C76-BF5B-4405-B8AE-C91642E979E1";
name = Regular;
paths = (
{
closed = 1;
nodes = (
"495 630 LINE",
"417 630 LINE",
"260 338 LINE",
"257 338 LINE",
"97 630 LINE",
"7 630 LINE",
"211 261 LINE",
"211 0 LINE",
"292 0 LINE",
"292 261 LINE"
);
},
{
closed = 1;
nodes = (
"223 812 LINE",
"142 812 LINE",
"142 725 LINE",
"223 725 LINE"
);
},
{
closed = 1;
nodes = (
"361 812 LINE",
"281 812 LINE",
"281 725 LINE",
"361 725 LINE"
);
}
);
width = 503;
},
{
layerId = "6F612806-55AD-4202-9302-A343176768ED";
name = Bold;
paths = (
{
closed = 1;
nodes = (
"503 630 LINE",
"385 630 LINE",
"257 354 LINE",
"253 354 LINE",
"124 630 LINE",
"0 630 LINE",
"193 238 LINE",
"193 0 LINE",
"311 0 LINE",
"311 238 LINE"
);
},
{
closed = 1;
nodes = (
"217 812 LINE",
"125 812 LINE",
"125 711 LINE",
"217 711 LINE"
);
},
{
closed = 1;
nodes = (
"378 812 LINE",
"286 812 LINE",
"286 711 LINE",
"378 711 LINE"
);
}
);
width = 503;
}
);
unicode = 0178;
},
{
glyphname = Ygrave;
lastChange = "2015-02-24 03:04:22 +0000";
layers = (
{
layerId = "F9754C76-BF5B-4405-B8AE-C91642E979E1";
name = Regular;
paths = (
{
closed = 1;
nodes = (
"495 630 LINE",
"417 630 LINE",
"260 338 LINE",
"257 338 LINE",
"97 630 LINE",
"7 630 LINE",
"211 261 LINE",
"211 0 LINE",
"292 0 LINE",
"292 261 LINE"
);
},
{
closed = 1;
nodes = (
"227 812 LINE",
"145 812 LINE",
"144 809 LINE",
"242 691 LINE",
"306 691 LINE"
);
}
);
width = 503;
},
{
layerId = "6F612806-55AD-4202-9302-A343176768ED";
name = Bold;
paths = (
{
closed = 1;
nodes = (
"503 630 LINE",
"385 630 LINE",
"257 354 LINE",
"253 354 LINE",
"124 630 LINE",
"0 630 LINE",
"193 238 LINE",
"193 0 LINE",
"311 0 LINE",
"311 238 LINE"
);
},
{
closed = 1;
nodes = (
"235 812 LINE",
"125 812 LINE",
"124 809 LINE",
"224 691 LINE",
"314 691 LINE"
);
}
);
width = 503;
}
);
unicode = 1EF2;
},
{
glyphname = Z;
lastChange = "2015-02-24 03:04:22 +0000";
layers = (
{
anchors = (
{
name = top;
position = "{231, 630}";
}
);
layerId = "F9754C76-BF5B-4405-B8AE-C91642E979E1";
name = Regular;
paths = (
{
closed = 1;
nodes = (
"434 630 LINE",
"37 630 LINE",
"37 557 LINE",
"318 557 LINE",
"19 35 LINE",
"19 0 LINE",
"440 0 LINE",
"440 74 LINE",
"133 74 LINE",
"434 596 LINE"
);
}
);
width = 461;
},
{
anchors = (
{
name = top;
position = "{231, 630}";
}
);
layerId = "6F612806-55AD-4202-9302-A343176768ED";
name = Bold;
paths = (
{
closed = 1;
nodes = (
"435 630 LINE",
"34 630 LINE",
"34 526 LINE",
"274 526 LINE",
"15 45 LINE",
"15 0 LINE",
"441 0 LINE",
"441 105 LINE",
"176 105 LINE",
"435 584 LINE"
);
}
);
width = 461;
}
);
unicode = 005A;
},
{
glyphname = Zacute;
lastChange = "2015-02-24 03:04:22 +0000";
layers = (
{
layerId = "F9754C76-BF5B-4405-B8AE-C91642E979E1";
name = Regular;
paths = (
{
closed = 1;
nodes = (
"434 630 LINE",
"37 630 LINE",
"37 557 LINE",
"318 557 LINE",
"19 35 LINE",
"19 0 LINE",
"440 0 LINE",
"440 74 LINE",
"133 74 LINE",
"434 596 LINE"
);
},
{
closed = 1;
nodes = (
"337 812 LINE",
"255 812 LINE",
"176 691 LINE",
"239 691 LINE",
"338 809 LINE"
);
}
);
width = 461;
},
{
layerId = "6F612806-55AD-4202-9302-A343176768ED";
name = Bold;
paths = (
{
closed = 1;
nodes = (
"435 630 LINE",
"34 630 LINE",
"34 526 LINE",
"274 526 LINE",
"15 45 LINE",
"15 0 LINE",
"441 0 LINE",
"441 105 LINE",
"176 105 LINE",
"435 584 LINE"
);
},
{
closed = 1;
nodes = (
"357 812 LINE",
"246 812 LINE",
"167 691 LINE",
"258 691 LINE",
"358 809 LINE"
);
}
);
width = 461;
}
);
unicode = 0179;
},
{
glyphname = Zcaron;
lastChange = "2015-02-24 03:04:22 +0000";
layers = (
{
layerId = "F9754C76-BF5B-4405-B8AE-C91642E979E1";
name = Regular;
paths = (
{
closed = 1;
nodes = (
"434 630 LINE",
"37 630 LINE",
"37 557 LINE",
"318 557 LINE",
"19 35 LINE",
"19 0 LINE",
"440 0 LINE",
"440 74 LINE",
"133 74 LINE",
"434 596 LINE"
);
},
{
closed = 1;
nodes = (
"344 812 LINE",
"271 812 LINE",
"230 739 LINE",
"189 812 LINE",
"115 812 LINE",
"194 687 LINE",
"265 687 LINE"
);
}
);
width = 461;
},
{
layerId = "6F612806-55AD-4202-9302-A343176768ED";
name = Bold;
paths = (
{
closed = 1;
nodes = (
"435 630 LINE",
"34 630 LINE",
"34 526 LINE",
"274 526 LINE",
"15 45 LINE",
"15 0 LINE",
"441 0 LINE",
"441 105 LINE",
"176 105 LINE",
"435 584 LINE"
);
},
{
closed = 1;
nodes = (
"354 812 LINE",
"271 812 LINE",
"231 749 LINE",
"189 812 LINE",
"107 812 LINE",
"186 687 LINE",
"276 687 LINE"
);
}
);
width = 461;
}
);
unicode = 017D;
},
{
glyphname = Zdotaccent;
lastChange = "2015-02-24 03:04:22 +0000";
layers = (
{
layerId = "F9754C76-BF5B-4405-B8AE-C91642E979E1";
name = Regular;
paths = (
{
closed = 1;
nodes = (
"434 630 LINE",
"37 630 LINE",
"37 557 LINE",
"318 557 LINE",
"19 35 LINE",
"19 0 LINE",
"440 0 LINE",
"440 74 LINE",
"133 74 LINE",
"434 596 LINE"
);
},
{
closed = 1;
nodes = (
"270 812 LINE",
"190 812 LINE",
"190 725 LINE",
"270 725 LINE"
);
}
);
width = 461;
},
{
layerId = "6F612806-55AD-4202-9302-A343176768ED";
name = Bold;
paths = (
{
closed = 1;
nodes = (
"435 630 LINE",
"34 630 LINE",
"34 526 LINE",
"274 526 LINE",
"15 45 LINE",
"15 0 LINE",
"441 0 LINE",
"441 105 LINE",
"176 105 LINE",
"435 584 LINE"
);
},
{
closed = 1;
nodes = (
"280 812 LINE",
"181 812 LINE",
"181 706 LINE",
"280 706 LINE"
);
}
);
width = 461;
}
);
unicode = 017B;
},
{
glyphname = a;
lastChange = "2015-02-24 03:04:22 +0000";
layers = (
{
anchors = (
{
name = ogonek;
position = "{376, 9}";
},
{
name = top;
position = "{210, 484}";
}
);
layerId = "F9754C76-BF5B-4405-B8AE-C91642E979E1";
name = Regular;
paths = (
{
closed = 1;
nodes = (
"114 495 OFFCURVE",
"50 448 OFFCURVE",
"50 361 CURVE SMOOTH",
"50 353 OFFCURVE",
"50 345 OFFCURVE",
"51 340 CURVE",
"125 340 LINE",
"125 352 LINE SMOOTH",
"125 388 OFFCURVE",
"142 427 OFFCURVE",
"200 427 CURVE SMOOTH",
"261 427 OFFCURVE",
"276 395 OFFCURVE",
"276 349 CURVE SMOOTH",
"276 287 LINE",
"135 287 OFFCURVE",
"31 258 OFFCURVE",
"31 125 CURVE SMOOTH",
"31 8 OFFCURVE",
"110 -11 OFFCURVE",
"158 -11 CURVE SMOOTH",
"209 -11 OFFCURVE",
"251 12 OFFCURVE",
"276 52 CURVE",
"281 52 LINE",
"289 17 OFFCURVE",
"317 -7 OFFCURVE",
"357 -7 CURVE SMOOTH",
"381 -7 OFFCURVE",
"398 -1 OFFCURVE",
"407 4 CURVE",
"407 56 LINE",
"376 56 LINE SMOOTH",
"364 56 OFFCURVE",
"352 66 OFFCURVE",
"352 88 CURVE SMOOTH",
"352 360 LINE SMOOTH",
"352 445 OFFCURVE",
"303 495 OFFCURVE",
"205 495 CURVE SMOOTH"
);
},
{
closed = 1;
nodes = (
"276 176 LINE",
"276 96 OFFCURVE",
"224 56 OFFCURVE",
"176 56 CURVE SMOOTH",
"133 56 OFFCURVE",
"110 75 OFFCURVE",
"110 130 CURVE SMOOTH",
"110 205 OFFCURVE",
"178 219 OFFCURVE",
"276 219 CURVE"
);
}
);
width = 419;
},
{
anchors = (
{
name = ogonek;
position = "{376, 9}";
},
{
name = top;
position = "{210, 484}";
}
);
layerId = "6F612806-55AD-4202-9302-A343176768ED";
name = Bold;
paths = (
{
closed = 1;
nodes = (
"100 495 OFFCURVE",
"35 441 OFFCURVE",
"35 361 CURVE SMOOTH",
"35 353 OFFCURVE",
"35 345 OFFCURVE",
"36 340 CURVE",
"145 340 LINE",
"145 354 LINE SMOOTH",
"145 376 OFFCURVE",
"157 405 OFFCURVE",
"202 405 CURVE SMOOTH",
"244 405 OFFCURVE",
"253 378 OFFCURVE",
"253 344 CURVE SMOOTH",
"253 294 LINE",
"112 294 OFFCURVE",
"12 256 OFFCURVE",
"12 125 CURVE SMOOTH",
"12 12 OFFCURVE",
"89 -11 OFFCURVE",
"134 -11 CURVE SMOOTH",
"199 -11 OFFCURVE",
"229 14 OFFCURVE",
"257 52 CURVE",
"261 52 LINE",
"272 15 OFFCURVE",
"303 -11 OFFCURVE",
"346 -11 CURVE SMOOTH",
"380 -11 OFFCURVE",
"400 -3 OFFCURVE",
"412 4 CURVE",
"412 82 LINE",
"390 82 LINE SMOOTH",
"376 82 OFFCURVE",
"364 92 OFFCURVE",
"364 114 CURVE SMOOTH",
"364 353 LINE SMOOTH",
"364 442 OFFCURVE",
"312 495 OFFCURVE",
"200 495 CURVE SMOOTH"
);
},
{
closed = 1;
nodes = (
"253 186 LINE",
"253 130 OFFCURVE",
"233 81 OFFCURVE",
"180 81 CURVE SMOOTH",
"142 81 OFFCURVE",
"126 102 OFFCURVE",
"126 135 CURVE SMOOTH",
"126 198 OFFCURVE",
"188 214 OFFCURVE",
"253 214 CURVE"
);
}
);
width = 419;
}
);
unicode = 0061;
},
{
glyphname = aacute;
lastChange = "2015-02-24 03:04:22 +0000";
layers = (
{
layerId = "F9754C76-BF5B-4405-B8AE-C91642E979E1";
name = Regular;
paths = (
{
closed = 1;
nodes = (
"114 495 OFFCURVE",
"50 448 OFFCURVE",
"50 361 CURVE SMOOTH",
"50 353 OFFCURVE",
"50 345 OFFCURVE",
"51 340 CURVE",
"125 340 LINE",
"125 352 LINE SMOOTH",
"125 388 OFFCURVE",
"142 427 OFFCURVE",
"200 427 CURVE SMOOTH",
"261 427 OFFCURVE",
"276 395 OFFCURVE",
"276 349 CURVE SMOOTH",
"276 287 LINE",
"135 287 OFFCURVE",
"31 258 OFFCURVE",
"31 125 CURVE SMOOTH",
"31 8 OFFCURVE",
"110 -11 OFFCURVE",
"158 -11 CURVE SMOOTH",
"209 -11 OFFCURVE",
"251 12 OFFCURVE",
"276 52 CURVE",
"281 52 LINE",
"289 17 OFFCURVE",
"317 -7 OFFCURVE",
"357 -7 CURVE SMOOTH",
"381 -7 OFFCURVE",
"398 -1 OFFCURVE",
"407 4 CURVE",
"407 56 LINE",
"376 56 LINE SMOOTH",
"364 56 OFFCURVE",
"352 66 OFFCURVE",
"352 88 CURVE SMOOTH",
"352 360 LINE SMOOTH",
"352 445 OFFCURVE",
"303 495 OFFCURVE",
"205 495 CURVE SMOOTH"
);
},
{
closed = 1;
nodes = (
"276 176 LINE",
"276 96 OFFCURVE",
"224 56 OFFCURVE",
"176 56 CURVE SMOOTH",
"133 56 OFFCURVE",
"110 75 OFFCURVE",
"110 130 CURVE SMOOTH",
"110 205 OFFCURVE",
"178 219 OFFCURVE",
"276 219 CURVE"
);
},
{
closed = 1;
nodes = (
"313 665 LINE",
"230 665 LINE",
"151 543 LINE",
"214 543 LINE",
"313 661 LINE"
);
}
);
width = 419;
},
{
layerId = "6F612806-55AD-4202-9302-A343176768ED";
name = Bold;
paths = (
{
closed = 1;
nodes = (
"100 495 OFFCURVE",
"35 441 OFFCURVE",
"35 361 CURVE SMOOTH",
"35 353 OFFCURVE",
"35 345 OFFCURVE",
"36 340 CURVE",
"145 340 LINE",
"145 354 LINE SMOOTH",
"145 376 OFFCURVE",
"157 405 OFFCURVE",
"202 405 CURVE SMOOTH",
"244 405 OFFCURVE",
"253 378 OFFCURVE",
"253 344 CURVE SMOOTH",
"253 294 LINE",
"112 294 OFFCURVE",
"12 256 OFFCURVE",
"12 125 CURVE SMOOTH",
"12 12 OFFCURVE",
"89 -11 OFFCURVE",
"134 -11 CURVE SMOOTH",
"199 -11 OFFCURVE",
"229 14 OFFCURVE",
"257 52 CURVE",
"261 52 LINE",
"272 15 OFFCURVE",
"303 -11 OFFCURVE",
"346 -11 CURVE SMOOTH",
"380 -11 OFFCURVE",
"400 -3 OFFCURVE",
"412 4 CURVE",
"412 82 LINE",
"390 82 LINE SMOOTH",
"376 82 OFFCURVE",
"364 92 OFFCURVE",
"364 114 CURVE SMOOTH",
"364 353 LINE SMOOTH",
"364 442 OFFCURVE",
"312 495 OFFCURVE",
"200 495 CURVE SMOOTH"
);
},
{
closed = 1;
nodes = (
"253 186 LINE",
"253 130 OFFCURVE",
"233 81 OFFCURVE",
"180 81 CURVE SMOOTH",
"142 81 OFFCURVE",
"126 102 OFFCURVE",
"126 135 CURVE SMOOTH",
"126 198 OFFCURVE",
"188 214 OFFCURVE",
"253 214 CURVE"
);
},
{
closed = 1;
nodes = (
"326 665 LINE",
"215 665 LINE",
"136 543 LINE",
"227 543 LINE",
"327 661 LINE"
);
}
);
width = 419;
}
);
unicode = 00E1;
},
{
glyphname = abreve;
lastChange = "2015-02-24 03:04:22 +0000";
layers = (
{
layerId = "F9754C76-BF5B-4405-B8AE-C91642E979E1";
name = Regular;
paths = (
{
closed = 1;
nodes = (
"114 495 OFFCURVE",
"50 448 OFFCURVE",
"50 361 CURVE SMOOTH",
"50 353 OFFCURVE",
"50 345 OFFCURVE",
"51 340 CURVE",
"125 340 LINE",
"125 352 LINE SMOOTH",
"125 388 OFFCURVE",
"142 427 OFFCURVE",
"200 427 CURVE SMOOTH",
"261 427 OFFCURVE",
"276 395 OFFCURVE",
"276 349 CURVE SMOOTH",
"276 287 LINE",
"135 287 OFFCURVE",
"31 258 OFFCURVE",
"31 125 CURVE SMOOTH",
"31 8 OFFCURVE",
"110 -11 OFFCURVE",
"158 -11 CURVE SMOOTH",
"209 -11 OFFCURVE",
"251 12 OFFCURVE",
"276 52 CURVE",
"281 52 LINE",
"289 17 OFFCURVE",
"317 -7 OFFCURVE",
"357 -7 CURVE SMOOTH",
"381 -7 OFFCURVE",
"398 -1 OFFCURVE",
"407 4 CURVE",
"407 56 LINE",
"376 56 LINE SMOOTH",
"364 56 OFFCURVE",
"352 66 OFFCURVE",
"352 88 CURVE SMOOTH",
"352 360 LINE SMOOTH",
"352 445 OFFCURVE",
"303 495 OFFCURVE",
"205 495 CURVE SMOOTH"
);
},
{
closed = 1;
nodes = (
"276 176 LINE",
"276 96 OFFCURVE",
"224 56 OFFCURVE",
"176 56 CURVE SMOOTH",
"133 56 OFFCURVE",
"110 75 OFFCURVE",
"110 130 CURVE SMOOTH",
"110 205 OFFCURVE",
"178 219 OFFCURVE",
"276 219 CURVE"
);
},
{
closed = 1;
nodes = (
"265 665 LINE",
"263 652 OFFCURVE",
"241 634 OFFCURVE",
"210 634 CURVE SMOOTH",
"178 634 OFFCURVE",
"158 652 OFFCURVE",
"155 665 CURVE",
"96 665 LINE",
"96 623 OFFCURVE",
"139 575 OFFCURVE",
"210 575 CURVE SMOOTH",
"281 575 OFFCURVE",
"323 623 OFFCURVE",
"323 665 CURVE"
);
}
);
width = 419;
},
{
layerId = "6F612806-55AD-4202-9302-A343176768ED";
name = Bold;
paths = (
{
closed = 1;
nodes = (
"100 495 OFFCURVE",
"35 441 OFFCURVE",
"35 361 CURVE SMOOTH",
"35 353 OFFCURVE",
"35 345 OFFCURVE",
"36 340 CURVE",
"145 340 LINE",
"145 354 LINE SMOOTH",
"145 376 OFFCURVE",
"157 405 OFFCURVE",
"202 405 CURVE SMOOTH",
"244 405 OFFCURVE",
"253 378 OFFCURVE",
"253 344 CURVE SMOOTH",
"253 294 LINE",
"112 294 OFFCURVE",
"12 256 OFFCURVE",
"12 125 CURVE SMOOTH",
"12 12 OFFCURVE",
"89 -11 OFFCURVE",
"134 -11 CURVE SMOOTH",
"199 -11 OFFCURVE",
"229 14 OFFCURVE",
"257 52 CURVE",
"261 52 LINE",
"272 15 OFFCURVE",
"303 -11 OFFCURVE",
"346 -11 CURVE SMOOTH",
"380 -11 OFFCURVE",
"400 -3 OFFCURVE",
"412 4 CURVE",
"412 82 LINE",
"390 82 LINE SMOOTH",
"376 82 OFFCURVE",
"364 92 OFFCURVE",
"364 114 CURVE SMOOTH",
"364 353 LINE SMOOTH",
"364 442 OFFCURVE",
"312 495 OFFCURVE",
"200 495 CURVE SMOOTH"
);
},
{
closed = 1;
nodes = (
"253 186 LINE",
"253 130 OFFCURVE",
"233 81 OFFCURVE",
"180 81 CURVE SMOOTH",
"142 81 OFFCURVE",
"126 102 OFFCURVE",
"126 135 CURVE SMOOTH",
"126 198 OFFCURVE",
"188 214 OFFCURVE",
"253 214 CURVE"
);
},
{
closed = 1;
nodes = (
"254 665 LINE",
"252 652 OFFCURVE",
"230 634 OFFCURVE",
"199 634 CURVE SMOOTH",
"170 634 OFFCURVE",
"148 652 OFFCURVE",
"146 665 CURVE",
"76 665 LINE",
"76 619 OFFCURVE",
"123 567 OFFCURVE",
"199 567 CURVE SMOOTH",
"275 567 OFFCURVE",
"322 619 OFFCURVE",
"322 665 CURVE"
);
}
);
width = 419;
}
);
unicode = 0103;
},
{
glyphname = acircumflex;
lastChange = "2015-02-24 03:04:22 +0000";
layers = (
{
layerId = "F9754C76-BF5B-4405-B8AE-C91642E979E1";
name = Regular;
paths = (
{
closed = 1;
nodes = (
"114 495 OFFCURVE",
"50 448 OFFCURVE",
"50 361 CURVE SMOOTH",
"50 353 OFFCURVE",
"50 345 OFFCURVE",
"51 340 CURVE",
"125 340 LINE",
"125 352 LINE SMOOTH",
"125 388 OFFCURVE",
"142 427 OFFCURVE",
"200 427 CURVE SMOOTH",
"261 427 OFFCURVE",
"276 395 OFFCURVE",
"276 349 CURVE SMOOTH",
"276 287 LINE",
"135 287 OFFCURVE",
"31 258 OFFCURVE",
"31 125 CURVE SMOOTH",
"31 8 OFFCURVE",
"110 -11 OFFCURVE",
"158 -11 CURVE SMOOTH",
"209 -11 OFFCURVE",
"251 12 OFFCURVE",
"276 52 CURVE",
"281 52 LINE",
"289 17 OFFCURVE",
"317 -7 OFFCURVE",
"357 -7 CURVE SMOOTH",
"381 -7 OFFCURVE",
"398 -1 OFFCURVE",
"407 4 CURVE",
"407 56 LINE",
"376 56 LINE SMOOTH",
"364 56 OFFCURVE",
"352 66 OFFCURVE",
"352 88 CURVE SMOOTH",
"352 360 LINE SMOOTH",
"352 445 OFFCURVE",
"303 495 OFFCURVE",
"205 495 CURVE SMOOTH"
);
},
{
closed = 1;
nodes = (
"276 176 LINE",
"276 96 OFFCURVE",
"224 56 OFFCURVE",
"176 56 CURVE SMOOTH",
"133 56 OFFCURVE",
"110 75 OFFCURVE",
"110 130 CURVE SMOOTH",
"110 205 OFFCURVE",
"178 219 OFFCURVE",
"276 219 CURVE"
);
},
{
closed = 1;
nodes = (
"324 540 LINE",
"246 664 LINE",
"174 664 LINE",
"96 540 LINE",
"170 540 LINE",
"210 613 LINE",
"251 540 LINE"
);
}
);
width = 419;
},
{
layerId = "6F612806-55AD-4202-9302-A343176768ED";
name = Bold;
paths = (
{
closed = 1;
nodes = (
"100 495 OFFCURVE",
"35 441 OFFCURVE",
"35 361 CURVE SMOOTH",
"35 353 OFFCURVE",
"35 345 OFFCURVE",
"36 340 CURVE",
"145 340 LINE",
"145 354 LINE SMOOTH",
"145 376 OFFCURVE",
"157 405 OFFCURVE",
"202 405 CURVE SMOOTH",
"244 405 OFFCURVE",
"253 378 OFFCURVE",
"253 344 CURVE SMOOTH",
"253 294 LINE",
"112 294 OFFCURVE",
"12 256 OFFCURVE",
"12 125 CURVE SMOOTH",
"12 12 OFFCURVE",
"89 -11 OFFCURVE",
"134 -11 CURVE SMOOTH",
"199 -11 OFFCURVE",
"229 14 OFFCURVE",
"257 52 CURVE",
"261 52 LINE",
"272 15 OFFCURVE",
"303 -11 OFFCURVE",
"346 -11 CURVE SMOOTH",
"380 -11 OFFCURVE",
"400 -3 OFFCURVE",
"412 4 CURVE",
"412 82 LINE",
"390 82 LINE SMOOTH",
"376 82 OFFCURVE",
"364 92 OFFCURVE",
"364 114 CURVE SMOOTH",
"364 353 LINE SMOOTH",
"364 442 OFFCURVE",
"312 495 OFFCURVE",
"200 495 CURVE SMOOTH"
);
},
{
closed = 1;
nodes = (
"253 186 LINE",
"253 130 OFFCURVE",
"233 81 OFFCURVE",
"180 81 CURVE SMOOTH",
"142 81 OFFCURVE",
"126 102 OFFCURVE",
"126 135 CURVE SMOOTH",
"126 198 OFFCURVE",
"188 214 OFFCURVE",
"253 214 CURVE"
);
},
{
closed = 1;
nodes = (
"323 541 LINE",
"245 665 LINE",
"155 665 LINE",
"76 541 LINE",
"158 541 LINE",
"200 604 LINE",
"241 541 LINE"
);
}
);
width = 419;
}
);
unicode = 00E2;
},
{
glyphname = adieresis;
lastChange = "2015-02-24 03:04:22 +0000";
layers = (
{
layerId = "F9754C76-BF5B-4405-B8AE-C91642E979E1";
name = Regular;
paths = (
{
closed = 1;
nodes = (
"114 495 OFFCURVE",
"50 448 OFFCURVE",
"50 361 CURVE SMOOTH",
"50 353 OFFCURVE",
"50 345 OFFCURVE",
"51 340 CURVE",
"125 340 LINE",
"125 352 LINE SMOOTH",
"125 388 OFFCURVE",
"142 427 OFFCURVE",
"200 427 CURVE SMOOTH",
"261 427 OFFCURVE",
"276 395 OFFCURVE",
"276 349 CURVE SMOOTH",
"276 287 LINE",
"135 287 OFFCURVE",
"31 258 OFFCURVE",
"31 125 CURVE SMOOTH",
"31 8 OFFCURVE",
"110 -11 OFFCURVE",
"158 -11 CURVE SMOOTH",
"209 -11 OFFCURVE",
"251 12 OFFCURVE",
"276 52 CURVE",
"281 52 LINE",
"289 17 OFFCURVE",
"317 -7 OFFCURVE",
"357 -7 CURVE SMOOTH",
"381 -7 OFFCURVE",
"398 -1 OFFCURVE",
"407 4 CURVE",
"407 56 LINE",
"376 56 LINE SMOOTH",
"364 56 OFFCURVE",
"352 66 OFFCURVE",
"352 88 CURVE SMOOTH",
"352 360 LINE SMOOTH",
"352 445 OFFCURVE",
"303 495 OFFCURVE",
"205 495 CURVE SMOOTH"
);
},
{
closed = 1;
nodes = (
"276 176 LINE",
"276 96 OFFCURVE",
"224 56 OFFCURVE",
"176 56 CURVE SMOOTH",
"133 56 OFFCURVE",
"110 75 OFFCURVE",
"110 130 CURVE SMOOTH",
"110 205 OFFCURVE",
"178 219 OFFCURVE",
"276 219 CURVE"
);
},
{
closed = 1;
nodes = (
"180 665 LINE",
"100 665 LINE",
"100 577 LINE",
"180 577 LINE"
);
},
{
closed = 1;
nodes = (
"319 665 LINE",
"238 665 LINE",
"238 577 LINE",
"319 577 LINE"
);
}
);
width = 419;
},
{
layerId = "6F612806-55AD-4202-9302-A343176768ED";
name = Bold;
paths = (
{
closed = 1;
nodes = (
"100 495 OFFCURVE",
"35 441 OFFCURVE",
"35 361 CURVE SMOOTH",
"35 353 OFFCURVE",
"35 345 OFFCURVE",
"36 340 CURVE",
"145 340 LINE",
"145 354 LINE SMOOTH",
"145 376 OFFCURVE",
"157 405 OFFCURVE",
"202 405 CURVE SMOOTH",
"244 405 OFFCURVE",
"253 378 OFFCURVE",
"253 344 CURVE SMOOTH",
"253 294 LINE",
"112 294 OFFCURVE",
"12 256 OFFCURVE",
"12 125 CURVE SMOOTH",
"12 12 OFFCURVE",
"89 -11 OFFCURVE",
"134 -11 CURVE SMOOTH",
"199 -11 OFFCURVE",
"229 14 OFFCURVE",
"257 52 CURVE",
"261 52 LINE",
"272 15 OFFCURVE",
"303 -11 OFFCURVE",
"346 -11 CURVE SMOOTH",
"380 -11 OFFCURVE",
"400 -3 OFFCURVE",
"412 4 CURVE",
"412 82 LINE",
"390 82 LINE SMOOTH",
"376 82 OFFCURVE",
"364 92 OFFCURVE",
"364 114 CURVE SMOOTH",
"364 353 LINE SMOOTH",
"364 442 OFFCURVE",
"312 495 OFFCURVE",
"200 495 CURVE SMOOTH"
);
},
{
closed = 1;
nodes = (
"253 186 LINE",
"253 130 OFFCURVE",
"233 81 OFFCURVE",
"180 81 CURVE SMOOTH",
"142 81 OFFCURVE",
"126 102 OFFCURVE",
"126 135 CURVE SMOOTH",
"126 198 OFFCURVE",
"188 214 OFFCURVE",
"253 214 CURVE"
);
},
{
closed = 1;
nodes = (
"165 665 LINE",
"74 665 LINE",
"74 565 LINE",
"165 565 LINE"
);
},
{
closed = 1;
nodes = (
"326 665 LINE",
"234 665 LINE",
"234 565 LINE",
"326 565 LINE"
);
}
);
width = 419;
}
);
unicode = 00E4;
},
{
glyphname = agrave;
lastChange = "2015-02-24 03:04:22 +0000";
layers = (
{
layerId = "F9754C76-BF5B-4405-B8AE-C91642E979E1";
name = Regular;
paths = (
{
closed = 1;
nodes = (
"114 495 OFFCURVE",
"50 448 OFFCURVE",
"50 361 CURVE SMOOTH",
"50 353 OFFCURVE",
"50 345 OFFCURVE",
"51 340 CURVE",
"125 340 LINE",
"125 352 LINE SMOOTH",
"125 388 OFFCURVE",
"142 427 OFFCURVE",
"200 427 CURVE SMOOTH",
"261 427 OFFCURVE",
"276 395 OFFCURVE",
"276 349 CURVE SMOOTH",
"276 287 LINE",
"135 287 OFFCURVE",
"31 258 OFFCURVE",
"31 125 CURVE SMOOTH",
"31 8 OFFCURVE",
"110 -11 OFFCURVE",
"158 -11 CURVE SMOOTH",
"209 -11 OFFCURVE",
"251 12 OFFCURVE",
"276 52 CURVE",
"281 52 LINE",
"289 17 OFFCURVE",
"317 -7 OFFCURVE",
"357 -7 CURVE SMOOTH",
"381 -7 OFFCURVE",
"398 -1 OFFCURVE",
"407 4 CURVE",
"407 56 LINE",
"376 56 LINE SMOOTH",
"364 56 OFFCURVE",
"352 66 OFFCURVE",
"352 88 CURVE SMOOTH",
"352 360 LINE SMOOTH",
"352 445 OFFCURVE",
"303 495 OFFCURVE",
"205 495 CURVE SMOOTH"
);
},
{
closed = 1;
nodes = (
"276 176 LINE",
"276 96 OFFCURVE",
"224 56 OFFCURVE",
"176 56 CURVE SMOOTH",
"133 56 OFFCURVE",
"110 75 OFFCURVE",
"110 130 CURVE SMOOTH",
"110 205 OFFCURVE",
"178 219 OFFCURVE",
"276 219 CURVE"
);
},
{
closed = 1;
nodes = (
"181 665 LINE",
"99 665 LINE",
"98 661 LINE",
"197 543 LINE",
"260 543 LINE"
);
}
);
width = 419;
},
{
layerId = "6F612806-55AD-4202-9302-A343176768ED";
name = Bold;
paths = (
{
closed = 1;
nodes = (
"100 495 OFFCURVE",
"35 441 OFFCURVE",
"35 361 CURVE SMOOTH",
"35 353 OFFCURVE",
"35 345 OFFCURVE",
"36 340 CURVE",
"145 340 LINE",
"145 354 LINE SMOOTH",
"145 376 OFFCURVE",
"157 405 OFFCURVE",
"202 405 CURVE SMOOTH",
"244 405 OFFCURVE",
"253 378 OFFCURVE",
"253 344 CURVE SMOOTH",
"253 294 LINE",
"112 294 OFFCURVE",
"12 256 OFFCURVE",
"12 125 CURVE SMOOTH",
"12 12 OFFCURVE",
"89 -11 OFFCURVE",
"134 -11 CURVE SMOOTH",
"199 -11 OFFCURVE",
"229 14 OFFCURVE",
"257 52 CURVE",
"261 52 LINE",
"272 15 OFFCURVE",
"303 -11 OFFCURVE",
"346 -11 CURVE SMOOTH",
"380 -11 OFFCURVE",
"400 -3 OFFCURVE",
"412 4 CURVE",
"412 82 LINE",
"390 82 LINE SMOOTH",
"376 82 OFFCURVE",
"364 92 OFFCURVE",
"364 114 CURVE SMOOTH",
"364 353 LINE SMOOTH",
"364 442 OFFCURVE",
"312 495 OFFCURVE",
"200 495 CURVE SMOOTH"
);
},
{
closed = 1;
nodes = (
"253 186 LINE",
"253 130 OFFCURVE",
"233 81 OFFCURVE",
"180 81 CURVE SMOOTH",
"142 81 OFFCURVE",
"126 102 OFFCURVE",
"126 135 CURVE SMOOTH",
"126 198 OFFCURVE",
"188 214 OFFCURVE",
"253 214 CURVE"
);
},
{
closed = 1;
nodes = (
"184 665 LINE",
"74 665 LINE",
"73 661 LINE",
"172 543 LINE",
"263 543 LINE"
);
}
);
width = 419;
}
);
unicode = 00E0;
},
{
glyphname = amacron;
lastChange = "2015-02-24 03:04:22 +0000";
layers = (
{
layerId = "F9754C76-BF5B-4405-B8AE-C91642E979E1";
name = Regular;
paths = (
{
closed = 1;
nodes = (
"114 495 OFFCURVE",
"50 448 OFFCURVE",
"50 361 CURVE SMOOTH",
"50 353 OFFCURVE",
"50 345 OFFCURVE",
"51 340 CURVE",
"125 340 LINE",
"125 352 LINE SMOOTH",
"125 388 OFFCURVE",
"142 427 OFFCURVE",
"200 427 CURVE SMOOTH",
"261 427 OFFCURVE",
"276 395 OFFCURVE",
"276 349 CURVE SMOOTH",
"276 287 LINE",
"135 287 OFFCURVE",
"31 258 OFFCURVE",
"31 125 CURVE SMOOTH",
"31 8 OFFCURVE",
"110 -11 OFFCURVE",
"158 -11 CURVE SMOOTH",
"209 -11 OFFCURVE",
"251 12 OFFCURVE",
"276 52 CURVE",
"281 52 LINE",
"289 17 OFFCURVE",
"317 -7 OFFCURVE",
"357 -7 CURVE SMOOTH",
"381 -7 OFFCURVE",
"398 -1 OFFCURVE",
"407 4 CURVE",
"407 56 LINE",
"376 56 LINE SMOOTH",
"364 56 OFFCURVE",
"352 66 OFFCURVE",
"352 88 CURVE SMOOTH",
"352 360 LINE SMOOTH",
"352 445 OFFCURVE",
"303 495 OFFCURVE",
"205 495 CURVE SMOOTH"
);
},
{
closed = 1;
nodes = (
"276 176 LINE",
"276 96 OFFCURVE",
"224 56 OFFCURVE",
"176 56 CURVE SMOOTH",
"133 56 OFFCURVE",
"110 75 OFFCURVE",
"110 130 CURVE SMOOTH",
"110 205 OFFCURVE",
"178 219 OFFCURVE",
"276 219 CURVE"
);
},
{
closed = 1;
nodes = (
"326 551 LINE",
"326 617 LINE",
"95 617 LINE",
"95 551 LINE"
);
}
);
width = 419;
},
{
layerId = "6F612806-55AD-4202-9302-A343176768ED";
name = Bold;
paths = (
{
closed = 1;
nodes = (
"100 495 OFFCURVE",
"35 441 OFFCURVE",
"35 361 CURVE SMOOTH",
"35 353 OFFCURVE",
"35 345 OFFCURVE",
"36 340 CURVE",
"145 340 LINE",
"145 354 LINE SMOOTH",
"145 376 OFFCURVE",
"157 405 OFFCURVE",
"202 405 CURVE SMOOTH",
"244 405 OFFCURVE",
"253 378 OFFCURVE",
"253 344 CURVE SMOOTH",
"253 294 LINE",
"112 294 OFFCURVE",
"12 256 OFFCURVE",
"12 125 CURVE SMOOTH",
"12 12 OFFCURVE",
"89 -11 OFFCURVE",
"134 -11 CURVE SMOOTH",
"199 -11 OFFCURVE",
"229 14 OFFCURVE",
"257 52 CURVE",
"261 52 LINE",
"272 15 OFFCURVE",
"303 -11 OFFCURVE",
"346 -11 CURVE SMOOTH",
"380 -11 OFFCURVE",
"400 -3 OFFCURVE",
"412 4 CURVE",
"412 82 LINE",
"390 82 LINE SMOOTH",
"376 82 OFFCURVE",
"364 92 OFFCURVE",
"364 114 CURVE SMOOTH",
"364 353 LINE SMOOTH",
"364 442 OFFCURVE",
"312 495 OFFCURVE",
"200 495 CURVE SMOOTH"
);
},
{
closed = 1;
nodes = (
"253 186 LINE",
"253 130 OFFCURVE",
"233 81 OFFCURVE",
"180 81 CURVE SMOOTH",
"142 81 OFFCURVE",
"126 102 OFFCURVE",
"126 135 CURVE SMOOTH",
"126 198 OFFCURVE",
"188 214 OFFCURVE",
"253 214 CURVE"
);
},
{
closed = 1;
nodes = (
"317 551 LINE",
"317 630 LINE",
"82 630 LINE",
"82 551 LINE"
);
}
);
width = 419;
}
);
unicode = 0101;
},
{
glyphname = aogonek;
lastChange = "2015-02-24 03:04:22 +0000";
layers = (
{
layerId = "F9754C76-BF5B-4405-B8AE-C91642E979E1";
name = Regular;
paths = (
{
closed = 1;
nodes = (
"453 -107 LINE",
"424 -107 LINE SMOOTH",
"393 -107 OFFCURVE",
"383 -83 OFFCURVE",
"383 -57 CURVE SMOOTH",
"383 -33 OFFCURVE",
"395 -10 OFFCURVE",
"407 4 CURVE",
"407 56 LINE",
"376 56 LINE SMOOTH",
"364 56 OFFCURVE",
"352 66 OFFCURVE",
"352 88 CURVE SMOOTH",
"352 360 LINE SMOOTH",
"352 445 OFFCURVE",
"303 495 OFFCURVE",
"205 495 CURVE SMOOTH",
"114 495 OFFCURVE",
"50 448 OFFCURVE",
"50 361 CURVE SMOOTH",
"50 353 OFFCURVE",
"50 345 OFFCURVE",
"51 340 CURVE",
"125 340 LINE",
"125 352 LINE SMOOTH",
"125 388 OFFCURVE",
"142 427 OFFCURVE",
"200 427 CURVE SMOOTH",
"261 427 OFFCURVE",
"276 395 OFFCURVE",
"276 349 CURVE SMOOTH",
"276 287 LINE",
"135 287 OFFCURVE",
"31 258 OFFCURVE",
"31 125 CURVE SMOOTH",
"31 8 OFFCURVE",
"110 -11 OFFCURVE",
"158 -11 CURVE SMOOTH",
"209 -11 OFFCURVE",
"251 12 OFFCURVE",
"276 52 CURVE",
"281 52 LINE",
"288 22 OFFCURVE",
"309 1 OFFCURVE",
"338 -5 CURVE",
"322 -26 OFFCURVE",
"311 -49 OFFCURVE",
"311 -84 CURVE SMOOTH",
"311 -148 OFFCURVE",
"358 -167 OFFCURVE",
"397 -167 CURVE SMOOTH",
"416 -167 OFFCURVE",
"434 -162 OFFCURVE",
"453 -155 CURVE"
);
},
{
closed = 1;
nodes = (
"276 176 LINE",
"276 96 OFFCURVE",
"224 56 OFFCURVE",
"176 56 CURVE SMOOTH",
"133 56 OFFCURVE",
"110 75 OFFCURVE",
"110 130 CURVE SMOOTH",
"110 205 OFFCURVE",
"178 219 OFFCURVE",
"276 219 CURVE"
);
}
);
width = 419;
},
{
layerId = "6F612806-55AD-4202-9302-A343176768ED";
name = Bold;
paths = (
{
closed = 1;
nodes = (
"446 -107 LINE",
"425 -107 LINE SMOOTH",
"395 -107 OFFCURVE",
"385 -84 OFFCURVE",
"385 -60 CURVE SMOOTH",
"385 -35 OFFCURVE",
"401 -9 OFFCURVE",
"412 4 CURVE",
"412 82 LINE",
"390 82 LINE SMOOTH",
"376 82 OFFCURVE",
"364 92 OFFCURVE",
"364 114 CURVE SMOOTH",
"364 353 LINE SMOOTH",
"364 442 OFFCURVE",
"312 495 OFFCURVE",
"200 495 CURVE SMOOTH",
"100 495 OFFCURVE",
"35 441 OFFCURVE",
"35 361 CURVE SMOOTH",
"35 353 OFFCURVE",
"35 345 OFFCURVE",
"36 340 CURVE",
"145 340 LINE",
"145 354 LINE SMOOTH",
"145 376 OFFCURVE",
"157 405 OFFCURVE",
"202 405 CURVE SMOOTH",
"244 405 OFFCURVE",
"253 378 OFFCURVE",
"253 344 CURVE SMOOTH",
"253 294 LINE",
"112 294 OFFCURVE",
"12 256 OFFCURVE",
"12 125 CURVE SMOOTH",
"12 12 OFFCURVE",
"89 -11 OFFCURVE",
"134 -11 CURVE SMOOTH",
"199 -11 OFFCURVE",
"229 14 OFFCURVE",
"257 52 CURVE",
"261 52 LINE",
"270 22 OFFCURVE",
"291 -1 OFFCURVE",
"322 -8 CURVE",
"306 -28 OFFCURVE",
"294 -52 OFFCURVE",
"294 -88 CURVE SMOOTH",
"294 -152 OFFCURVE",
"344 -171 OFFCURVE",
"385 -171 CURVE SMOOTH",
"406 -171 OFFCURVE",
"424 -166 OFFCURVE",
"446 -158 CURVE"
);
},
{
closed = 1;
nodes = (
"253 186 LINE",
"253 130 OFFCURVE",
"233 81 OFFCURVE",
"180 81 CURVE SMOOTH",
"142 81 OFFCURVE",
"126 102 OFFCURVE",
"126 135 CURVE SMOOTH",
"126 198 OFFCURVE",
"188 214 OFFCURVE",
"253 214 CURVE"
);
}
);
width = 419;
}
);
unicode = 0105;
},
